SplineFontDB: 3.0
FontName: Antonio-Light
FullName: Antonio Light
FamilyName: Antonio
Weight: Light
Copyright: Copyright (c) 2011-12, vernon adams (vern@newtypography.co.uk), with Reserved Font Names 'Antonio'
Version: 1
ItalicAngle: 0
UnderlinePosition: 0
UnderlineWidth: 0
Ascent: 1638
Descent: 410
sfntRevision: 0x00010000
LayerCount: 2
Layer: 0 1 "Back"  1
Layer: 1 1 "Fore"  0
XUID: [1021 913 -2060267417 2748317]
FSType: 0
OS2Version: 4
OS2_WeightWidthSlopeOnly: 0
OS2_UseTypoMetrics: 1
CreationTime: 1374865713
ModificationTime: 1375455527
PfmFamily: 17
TTFWeight: 300
TTFWidth: 1
LineGap: 0
VLineGap: 0
Panose: 2 0 3 3 0 0 0 0 0 0
OS2TypoAscent: 2342
OS2TypoAOffset: 0
OS2TypoDescent: -612
OS2TypoDOffset: 0
OS2TypoLinegap: 0
OS2WinAscent: 2342
OS2WinAOffset: 0
OS2WinDescent: 612
OS2WinDOffset: 0
HheadAscent: 2342
HheadAOffset: 0
HheadDescent: -612
HheadDOffset: 0
OS2SubXSize: 1331
OS2SubYSize: 1433
OS2SubXOff: 0
OS2SubYOff: 286
OS2SupXSize: 1331
OS2SupYSize: 1433
OS2SupXOff: 0
OS2SupYOff: 983
OS2StrikeYSize: 102
OS2StrikeYPos: 530
OS2Vendor: 'newt'
OS2CodePages: 20000093.00000000
OS2UnicodeRanges: a00000ef.5000204b.00000000.00000000
Lookup: 258 0 0 "'kern' Horizontal Kerning in Latin lookup 0"  {"'kern' Horizontal Kerning in Latin lookup 1 subtable" [307,0,0] } ['kern' ('DFLT' <'dflt' > 'latn' <'dflt' > ) ]
MarkAttachClasses: 1
DEI: 91125
KernClass2: 16 27 "'kern' Horizontal Kerning in Latin lookup 1 subtable" 
 89 A Agrave Aacute Acircumflex Atilde Adieresis Aring Abreve Amacron Aogonek uni0200 uni0202
 9 B uni1E02
 47 C Ccedilla Cacute Ccaron Ccircumflex Cdotaccent
 16 D Dcaron uni1E0A
 9 F uni1E1E
 52 G Gbreve Gcircumflex Gcommaaccent Gdotaccent uni01F4
 13 J Jcircumflex
 14 K Kcommaaccent
 28 L Lacute Lcaron Lcommaaccent
 9 P uni1E56
 1 V
 37 W Wacute Wcircumflex Wdieresis Wgrave
 37 Y Yacute Ycircumflex Ydieresis Ygrave
 89 o ograve oacute ocircumflex otilde odieresis obreve ohungarumlaut omacron uni020D uni020F
 44 r racute rcaron rcommaaccent uni0211 uni0213

StartChar: .notdef
Encoding: 65536 -1 0
Width: 1152
Flags: W
LayerCount: 2
UndoRedoHistory
Layer: 1
Undoes
EndUndoes
Redoes
EndRedoes
EndUndoRedoHistory
Fore
SplineSet
691 1500 m 1,0,-1
 767 1500 l 1,1,-1
 767 240 l 1,2,-1
 699 240 l 1,3,-1
 463 1190 l 1,4,-1
 469 849 l 1,5,-1
 469 240 l 1,6,-1
 388 240 l 1,7,-1
 388 1500 l 1,8,-1
 448 1500 l 1,9,-1
 700 526 l 1,10,-1
 691 960 l 1,11,-1
 691 1500 l 1,0,-1
166 1760 m 1,12,-1
 986 1760 l 1,13,-1
 986 0 l 1,14,-1
 166 0 l 1,15,-1
 166 1760 l 1,12,-1
904 72 m 1,16,-1
 904 1688 l 1,17,-1
 248 1688 l 1,18,-1
 248 72 l 1,19,-1
 904 72 l 1,16,-1
EndSplineSet
EndChar

StartChar: exclam
Encoding: 33 33 4
Width: 501
Flags: W
LayerCount: 2
UndoRedoHistory
Layer: 1
Undoes
EndUndoes
Redoes
EndRedoes
EndUndoRedoHistory
Fore
SplineSet
157 1760 m 1,0,-1
 345 1760 l 1,1,-1
 280 368 l 1,2,-1
 220 368 l 1,3,-1
 157 1760 l 1,0,-1
156 202 m 1,4,-1
 342 202 l 1,5,-1
 342 0 l 1,6,-1
 156 0 l 1,7,-1
 156 202 l 1,4,-1
EndSplineSet
EndChar

StartChar: quotedbl
Encoding: 34 34 5
Width: 771
Flags: W
LayerCount: 2
UndoRedoHistory
Layer: 1
Undoes
EndUndoes
Redoes
EndRedoes
EndUndoRedoHistory
Fore
SplineSet
487 1760 m 1,0,-1
 644 1760 l 1,1,-1
 551 1125 l 1,2,-1
 487 1125 l 1,3,-1
 487 1760 l 1,0,-1
196 1760 m 1,4,-1
 352 1760 l 1,5,-1
 260 1125 l 1,6,-1
 196 1125 l 1,7,-1
 196 1760 l 1,4,-1
EndSplineSet
EndChar

StartChar: numbersign
Encoding: 35 35 6
Width: 829
Flags: W
LayerCount: 2
UndoRedoHistory
Layer: 1
Undoes
EndUndoes
Redoes
EndRedoes
EndUndoRedoHistory
Fore
SplineSet
698 1760 m 1,0,-1
 801 1760 l 1,1,-1
 678 1138 l 1,2,-1
 841 1138 l 1,3,-1
 841 1041 l 1,4,-1
 658 1041 l 1,5,-1
 604 767 l 1,6,-1
 798 767 l 1,7,-1
 798 670 l 1,8,-1
 585 670 l 1,9,-1
 452 0 l 1,10,-1
 350 0 l 1,11,-1
 480 670 l 1,12,-1
 264 670 l 1,13,-1
 133 0 l 1,14,-1
 22 0 l 1,15,-1
 154 670 l 1,16,-1
 -12 670 l 1,17,-1
 -12 767 l 1,18,-1
 174 767 l 1,19,-1
 228 1041 l 1,20,-1
 31 1041 l 1,21,-1
 31 1138 l 1,22,-1
 247 1138 l 1,23,-1
 370 1760 l 1,24,-1
 482 1760 l 1,25,-1
 357 1138 l 1,26,-1
 573 1138 l 1,27,-1
 698 1760 l 1,0,-1
502 765 m 1,28,-1
 555 1035 l 1,29,-1
 336 1035 l 1,30,-1
 282 765 l 1,31,-1
 502 765 l 1,28,-1
EndSplineSet
EndChar

StartChar: dollar
Encoding: 36 36 7
Width: 830
Flags: W
LayerCount: 2
UndoRedoHistory
Layer: 1
Undoes
EndUndoes
Redoes
EndRedoes
EndUndoRedoHistory
Fore
SplineSet
461 1564 m 1,0,1
 701 1536 701 1536 701 1111 c 2,2,-1
 701 1005 l 1,3,-1
 561 1005 l 1,4,-1
 561 1126 l 2,5,6
 561 1283 561 1283 528.5 1356 c 128,-1,7
 496 1429 496 1429 426 1429 c 0,8,9
 291 1429 291 1429 291 1198 c 0,10,11
 291 1121 291 1121 319 1059.5 c 128,-1,12
 347 998 347 998 434 912 c 2,13,-1
 539 809 l 1,14,15
 731 623 731 623 731 373 c 0,16,17
 731 213 731 213 668.5 129 c 128,-1,18
 606 45 606 45 503 31 c 1,19,-1
 503 -221 l 1,20,-1
 396 -221 l 1,21,-1
 396 32 l 1,22,23
 283 48 283 48 216.5 140 c 128,-1,24
 150 232 150 232 150 455 c 2,25,-1
 150 584 l 1,26,-1
 299 584 l 1,27,-1
 299 481 l 2,28,29
 299 164 299 164 441 164 c 0,30,31
 515 164 515 164 546 212 c 128,-1,32
 577 260 577 260 577 372.5 c 128,-1,33
 577 485 577 485 552 558.5 c 128,-1,34
 527 632 527 632 436 718 c 2,35,-1
 325 823 l 2,36,37
 141 996 141 996 141 1234 c 0,38,39
 141 1398 141 1398 217 1482 c 0,40,41
 272 1543 272 1543 354 1559 c 1,42,-1
 354 1783 l 1,43,-1
 461 1783 l 1,44,-1
 461 1564 l 1,0,1
EndSplineSet
EndChar

StartChar: percent
Encoding: 37 37 8
Width: 2078
Flags: W
LayerCount: 2
UndoRedoHistory
Layer: 1
Undoes
EndUndoes
Redoes
EndRedoes
EndUndoRedoHistory
Fore
SplineSet
1337 1760 m 1,0,-1
 1477 1760 l 1,1,-1
 755 0 l 1,2,-1
 607 0 l 1,3,-1
 1337 1760 l 1,0,-1
566 1436 m 2,4,5
 566 1559 566 1559 537.5 1602.5 c 128,-1,6
 509 1646 509 1646 429.5 1646 c 128,-1,7
 350 1646 350 1646 321 1602.5 c 128,-1,8
 292 1559 292 1559 292 1436 c 2,9,-1
 292 936 l 2,10,11
 292 808 292 808 320.5 763 c 128,-1,12
 349 718 349 718 429 718 c 128,-1,13
 509 718 509 718 537.5 763 c 128,-1,14
 566 808 566 808 566 936 c 2,15,-1
 566 1436 l 2,4,5
155 1364 m 2,16,17
 155 1492 155 1492 166 1568.5 c 128,-1,18
 177 1645 177 1645 209 1695 c 128,-1,19
 241 1745 241 1745 292.5 1764 c 128,-1,20
 344 1783 344 1783 421 1783 c 128,-1,21
 498 1783 498 1783 544 1770 c 0,22,23
 640 1743 640 1743 672 1652 c 1,24,25
 704 1558 704 1558 704 1364 c 2,26,-1
 704 1012 l 2,27,28
 704 879 704 879 693 800 c 128,-1,29
 682 721 682 721 650 669.5 c 128,-1,30
 618 618 618 618 566.5 599.5 c 128,-1,31
 515 581 515 581 437.5 581 c 128,-1,32
 360 581 360 581 314 594 c 0,33,34
 217 622 217 622 186 717 c 128,-1,35
 155 812 155 812 155 1012 c 2,36,-1
 155 1364 l 2,16,17
1374 763 m 2,37,38
 1374 957 1374 957 1399.5 1029.5 c 128,-1,39
 1425 1102 1425 1102 1456 1128 c 0,40,41
 1518 1180 1518 1180 1626 1180 c 1,42,43
 1629 1181 1629 1181 1632 1181 c 0,44,45
 1735 1181 1735 1181 1786 1162.5 c 128,-1,46
 1837 1144 1837 1144 1869 1094 c 128,-1,47
 1901 1044 1901 1044 1912 967.5 c 128,-1,48
 1923 891 1923 891 1923 763 c 2,49,-1
 1923 411 l 2,50,51
 1923 213 1923 213 1898.5 137.5 c 128,-1,52
 1874 62 1874 62 1842 34 c 0,53,54
 1766 -32 1766 -32 1680 -32 c 0,55,56
 1490 -32 1490 -32 1428 68 c 0,57,58
 1396 120 1396 120 1385 199 c 128,-1,59
 1374 278 1374 278 1374 411 c 2,60,-1
 1374 763 l 2,37,38
1786 835 m 2,61,62
 1786 958 1786 958 1757 1001.5 c 128,-1,63
 1728 1045 1728 1045 1648.5 1045 c 128,-1,64
 1569 1045 1569 1045 1540.5 1001.5 c 128,-1,65
 1512 958 1512 958 1512 835 c 2,66,-1
 1512 335 l 2,67,68
 1512 207 1512 207 1540.5 162 c 128,-1,69
 1569 117 1569 117 1649 117 c 128,-1,70
 1729 117 1729 117 1757.5 162 c 128,-1,71
 1786 207 1786 207 1786 335 c 2,72,-1
 1786 835 l 2,61,62
EndSplineSet
EndChar

StartChar: ampersand
Encoding: 38 38 9
Width: 830
Flags: W
LayerCount: 2
UndoRedoHistory
Layer: 1
Undoes
EndUndoes
Redoes
EndRedoes
EndUndoRedoHistory
Fore
SplineSet
832 690 m 1,0,1
 756 580 756 580 682 368 c 1,2,-1
 837 0 l 1,3,-1
 710 0 l 1,4,-1
 607 253 l 1,5,6
 556 52 556 52 444 0 c 0,7,8
 398 -22 398 -22 338 -20 c 0,9,10
 212 -16 212 -16 144 65 c 0,11,12
 72 150 72 150 72 341 c 128,-1,13
 72 532 72 532 136.5 667.5 c 128,-1,14
 201 803 201 803 311 959 c 1,15,16
 166 1331 166 1331 166 1443 c 0,17,18
 166 1612 166 1612 232 1697.5 c 128,-1,19
 298 1783 298 1783 433.5 1783 c 128,-1,20
 569 1783 569 1783 615.5 1694.5 c 128,-1,21
 662 1606 662 1606 662 1447 c 128,-1,22
 662 1288 662 1288 602 1174 c 128,-1,23
 542 1060 542 1060 448 925 c 1,24,-1
 620 516 l 1,25,26
 697 697 697 697 771 797 c 1,27,-1
 832 690 l 1,0,1
295 1468 m 2,28,-1
 295 1445 l 2,29,30
 295 1353 295 1353 399 1057 c 1,31,32
 539 1256 539 1256 539 1456 c 0,33,34
 539 1570 539 1570 517 1618 c 128,-1,35
 495 1666 495 1666 428 1667 c 0,36,37
 426 1666 l 0,38,39
 358 1666 358 1666 330.5 1626 c 128,-1,40
 303 1586 303 1586 299 1545.5 c 128,-1,41
 295 1505 295 1505 295 1468 c 2,28,-1
365 826 m 1,42,43
 291 731 291 731 245.5 592.5 c 128,-1,44
 200 454 200 454 200 342 c 0,45,46
 200 105 200 105 353 105 c 2,47,-1
 354 105 l 2,48,49
 399 105 399 105 435 142 c 0,50,51
 493 202 493 202 552 376 c 1,52,-1
 365 826 l 1,42,43
EndSplineSet
EndChar

StartChar: quotesingle
Encoding: 39 39 10
Width: 404
Flags: W
LayerCount: 2
UndoRedoHistory
Layer: 1
Undoes
EndUndoes
Redoes
EndRedoes
EndUndoRedoHistory
Fore
SplineSet
124 1760 m 1,0,-1
 282 1760 l 1,1,-1
 217 1125 l 1,2,-1
 184 1125 l 1,3,-1
 124 1760 l 1,0,-1
EndSplineSet
EndChar

StartChar: parenleft
Encoding: 40 40 11
Width: 546
Flags: W
LayerCount: 2
UndoRedoHistory
Layer: 1
Undoes
EndUndoes
Redoes
EndRedoes
EndUndoRedoHistory
Fore
SplineSet
428 -4 m 2,0,-1
 448 -4 l 1,1,-1
 448 -117 l 1,2,3
 324 -117 324 -117 278.5 -95.5 c 128,-1,4
 233 -74 233 -74 214.5 -47.5 c 128,-1,5
 196 -21 196 -21 178 43 c 128,-1,6
 160 107 160 107 160 295 c 2,7,-1
 160 1370 l 2,8,9
 160 1558 160 1558 178 1622 c 128,-1,10
 196 1686 196 1686 214.5 1712.5 c 128,-1,11
 233 1739 233 1739 279 1760.5 c 128,-1,12
 325 1782 325 1782 448 1783 c 1,13,-1
 448 1669 l 1,14,-1
 439 1669 l 2,15,16
 362 1669 362 1669 351.5 1657 c 128,-1,17
 341 1645 341 1645 332 1632 c 0,18,19
 309 1596 309 1596 309 1391 c 2,20,-1
 309 193 l 2,21,22
 309 68 309 68 332 33 c 0,23,24
 341 19 341 19 351.5 7.5 c 128,-1,25
 362 -4 362 -4 428 -4 c 2,0,-1
EndSplineSet
EndChar

StartChar: parenright
Encoding: 41 41 12
Width: 546
Flags: W
LayerCount: 2
UndoRedoHistory
Layer: 1
Undoes
EndUndoes
Redoes
EndRedoes
EndUndoRedoHistory
Fore
SplineSet
98 1669 m 1,0,-1
 98 1783 l 1,1,2
 222 1782 222 1782 267.5 1760 c 128,-1,3
 313 1738 313 1738 331.5 1712 c 128,-1,4
 350 1686 350 1686 368 1622 c 128,-1,5
 386 1558 386 1558 386 1370 c 2,6,-1
 386 293 l 2,7,8
 386 105 386 105 368 41 c 128,-1,9
 350 -23 350 -23 331.5 -49.5 c 128,-1,10
 313 -76 313 -76 267.5 -97 c 128,-1,11
 222 -118 222 -118 98 -119 c 1,12,-1
 98 -6 l 1,13,-1
 107 -6 l 2,14,15
 184 -6 184 -6 194 5 c 0,16,17
 221 35 221 35 225 60 c 0,18,19
 237 142 237 142 237 289 c 2,20,-1
 237 1422 l 2,21,22
 237 1429 237 1429 237 1436 c 0,23,24
 237 1597 237 1597 214 1632 c 0,25,26
 205 1646 205 1646 194.5 1657.5 c 128,-1,27
 184 1669 184 1669 127 1669 c 2,28,-1
 98 1669 l 1,0,-1
EndSplineSet
EndChar

StartChar: asterisk
Encoding: 42 42 13
Width: 960
Flags: W
LayerCount: 2
UndoRedoHistory
Layer: 1
Undoes
EndUndoes
Redoes
EndRedoes
EndUndoRedoHistory
Fore
SplineSet
414 1783 m 1,0,-1
 547 1783 l 1,1,-1
 527 1514 l 1,2,-1
 751 1686 l 1,3,-1
 819 1570 l 1,4,-1
 569 1438 l 1,5,-1
 819 1298 l 1,6,-1
 751 1181 l 1,7,-1
 527 1358 l 1,8,-1
 547 1086 l 1,9,-1
 414 1086 l 1,10,-1
 438 1362 l 1,11,-1
 216 1190 l 1,12,-1
 149 1308 l 1,13,-1
 391 1438 l 1,14,-1
 141 1560 l 1,15,-1
 209 1676 l 1,16,-1
 438 1513 l 1,17,-1
 414 1783 l 1,0,-1
EndSplineSet
EndChar

StartChar: plus
Encoding: 43 43 14
Width: 766
Flags: W
LayerCount: 2
UndoRedoHistory
Layer: 1
Undoes
EndUndoes
Redoes
EndRedoes
EndUndoRedoHistory
Fore
SplineSet
322 1208 m 1,0,-1
 440 1208 l 1,1,-1
 440 948 l 1,2,-1
 674 948 l 1,3,-1
 674 842 l 1,4,-1
 440 842 l 1,5,-1
 440 576 l 1,6,-1
 322 576 l 1,7,-1
 322 842 l 1,8,-1
 92 842 l 1,9,-1
 92 948 l 1,10,-1
 322 948 l 1,11,-1
 322 1208 l 1,0,-1
EndSplineSet
EndChar

StartChar: comma
Encoding: 44 44 15
Width: 437
Flags: W
LayerCount: 2
UndoRedoHistory
Layer: 1
Undoes
EndUndoes
Redoes
EndRedoes
EndUndoRedoHistory
Fore
SplineSet
143 173 m 1,0,-1
 343 173 l 1,1,-1
 343 9 l 1,2,-1
 239 -350 l 1,3,-1
 162 -350 l 1,4,-1
 258 0 l 1,5,-1
 143 0 l 1,6,-1
 143 173 l 1,0,-1
EndSplineSet
EndChar

StartChar: hyphen
Encoding: 45 45 16
Width: 696
Flags: W
LayerCount: 2
UndoRedoHistory
Layer: 1
Undoes
EndUndoes
Redoes
EndRedoes
EndUndoRedoHistory
Fore
SplineSet
109 958 m 1,0,-1
 587 958 l 1,1,-1
 587 842 l 1,2,-1
 109 842 l 1,3,-1
 109 958 l 1,0,-1
EndSplineSet
EndChar

StartChar: period
Encoding: 46 46 17
Width: 532
Flags: W
LayerCount: 2
UndoRedoHistory
Layer: 1
Undoes
EndUndoes
Redoes
EndRedoes
EndUndoRedoHistory
Fore
SplineSet
174 164 m 1,0,-1
 328 164 l 1,1,-1
 328 0 l 1,2,-1
 174 0 l 1,3,-1
 174 164 l 1,0,-1
EndSplineSet
EndChar

StartChar: slash
Encoding: 47 47 18
Width: 743
Flags: W
LayerCount: 2
UndoRedoHistory
Layer: 1
Undoes
EndUndoes
Redoes
EndRedoes
EndUndoRedoHistory
Fore
SplineSet
538 1783 m 1,0,-1
 673 1783 l 1,1,-1
 222 0 l 1,2,-1
 88 0 l 1,3,-1
 538 1783 l 1,0,-1
EndSplineSet
EndChar

StartChar: zero
Encoding: 48 48 19
Width: 831
Flags: W
LayerCount: 2
UndoRedoHistory
Layer: 1
Undoes
EndUndoes
Redoes
EndRedoes
EndUndoRedoHistory
Fore
SplineSet
136 1316 m 2,0,1
 136 1568 136 1568 197 1675.5 c 128,-1,2
 258 1783 258 1783 419 1783 c 0,3,4
 580 1784 580 1784 638 1674 c 0,5,6
 695 1566 695 1566 695 1324 c 0,7,8
 695 1320 695 1320 695 1316 c 1,9,-1
 695 475 l 2,10,11
 695 263 695 263 669 176.5 c 128,-1,12
 643 90 643 90 611 54 c 0,13,14
 546 -20 546 -20 402 -20 c 0,15,16
 401 -20 401 -20 401 -21 c 0,17,18
 258 -21 258 -21 197 93 c 128,-1,19
 136 207 136 207 136 475 c 2,20,-1
 136 1316 l 2,0,1
546 1327 m 2,21,22
 546 1556 546 1556 513 1606 c 128,-1,23
 480 1656 480 1656 407 1656 c 0,24,25
 406 1656 406 1656 406 1657 c 0,26,27
 334 1657 334 1657 309 1585 c 128,-1,28
 284 1513 284 1513 284 1328 c 2,29,-1
 284 470 l 2,30,31
 284 258 284 258 307 188 c 0,32,33
 335 102 335 102 405.5 102 c 128,-1,34
 476 102 476 102 503.5 143 c 128,-1,35
 531 184 531 184 538.5 260 c 128,-1,36
 546 336 546 336 546 470 c 2,37,-1
 546 1327 l 2,21,22
EndSplineSet
EndChar

StartChar: one
Encoding: 49 49 20
Width: 830
Flags: W
LayerCount: 2
UndoRedoHistory
Layer: 1
Undoes
EndUndoes
Redoes
EndRedoes
EndUndoRedoHistory
Fore
SplineSet
469 1760 m 1,0,-1
 558 1760 l 1,1,-1
 558 0 l 1,2,-1
 409 0 l 1,3,-1
 409 1534 l 1,4,5
 374 1493 374 1493 291.5 1460.5 c 128,-1,6
 209 1428 209 1428 151 1428 c 1,7,-1
 151 1521 l 1,8,9
 238 1533 238 1533 334 1600 c 128,-1,10
 430 1667 430 1667 469 1760 c 1,0,-1
EndSplineSet
EndChar

StartChar: two
Encoding: 50 50 21
Width: 830
Flags: W
LayerCount: 2
UndoRedoHistory
Layer: 1
Undoes
EndUndoes
Redoes
EndRedoes
EndUndoRedoHistory
Fore
SplineSet
176 1323 m 2,0,1
 176 1572 176 1572 244 1677.5 c 128,-1,2
 312 1783 312 1783 456 1783 c 128,-1,3
 600 1783 600 1783 659 1670 c 128,-1,4
 718 1557 718 1557 718 1337.5 c 128,-1,5
 718 1118 718 1118 684 979 c 128,-1,6
 650 840 650 840 572 669 c 2,7,-1
 321 121 l 1,8,-1
 694 121 l 1,9,-1
 694 0 l 1,10,-1
 179 0 l 1,11,-1
 179 121 l 1,12,-1
 456 729 l 2,13,14
 536 905 536 905 557.5 1015 c 128,-1,15
 579 1125 579 1125 579 1289.5 c 128,-1,16
 579 1454 579 1454 567 1528.5 c 128,-1,17
 555 1603 555 1603 529 1629.5 c 128,-1,18
 503 1656 503 1656 454 1656 c 0,19,20
 382 1656 382 1656 349.5 1578.5 c 128,-1,21
 317 1501 317 1501 317 1319 c 2,22,-1
 317 1065 l 1,23,-1
 176 1065 l 1,24,-1
 176 1323 l 2,0,1
EndSplineSet
EndChar

StartChar: three
Encoding: 51 51 22
Width: 830
Flags: W
LayerCount: 2
UndoRedoHistory
Layer: 1
Undoes
EndUndoes
Redoes
EndRedoes
EndUndoRedoHistory
Fore
SplineSet
106 1321 m 2,0,1
 106 1555 106 1555 175 1667.5 c 128,-1,2
 244 1780 244 1780 408.5 1780 c 128,-1,3
 573 1780 573 1780 648 1666 c 128,-1,4
 723 1552 723 1552 723 1321 c 0,5,6
 723 980 723 980 548 914 c 1,7,8
 637 874 637 874 681.5 750 c 128,-1,9
 726 626 726 626 726 468 c 0,10,11
 726 218 726 218 649 99 c 128,-1,12
 572 -20 572 -20 406.5 -20 c 128,-1,13
 241 -20 241 -20 170.5 99.5 c 128,-1,14
 100 219 100 219 100 474 c 2,15,-1
 100 517 l 1,16,-1
 250 517 l 1,17,-1
 250 474 l 2,18,19
 250 253 250 253 281.5 178.5 c 128,-1,20
 313 104 313 104 411 104 c 128,-1,21
 509 104 509 104 542.5 182.5 c 128,-1,22
 576 261 576 261 576 440.5 c 128,-1,23
 576 620 576 620 553 704 c 128,-1,24
 530 788 530 788 484.5 821 c 128,-1,25
 439 854 439 854 362 854 c 2,26,-1
 323 854 l 1,27,-1
 323 982 l 1,28,-1
 360 982 l 2,29,30
 451 982 451 982 488.5 1007 c 128,-1,31
 526 1032 526 1032 541 1070 c 0,32,33
 573 1150 573 1150 573 1288 c 0,34,35
 573 1529 573 1529 526 1592 c 0,36,37
 480 1655 480 1655 406 1655 c 0,38,39
 405 1655 405 1655 404 1655 c 1,40,41
 292 1655 292 1655 266 1488 c 0,42,43
 256 1420 256 1420 255 1318 c 1,44,-1
 255 1287 l 1,45,-1
 106 1287 l 1,46,-1
 106 1321 l 2,0,1
EndSplineSet
EndChar

StartChar: four
Encoding: 52 52 23
Width: 830
Flags: W
LayerCount: 2
UndoRedoHistory
Layer: 1
Undoes
EndUndoes
Redoes
EndRedoes
EndUndoRedoHistory
Fore
SplineSet
476 1760 m 1,0,-1
 620 1760 l 1,1,-1
 620 468 l 1,2,-1
 774 468 l 1,3,-1
 774 352 l 1,4,-1
 620 352 l 1,5,-1
 620 0 l 1,6,-1
 485 0 l 1,7,-1
 485 352 l 1,8,-1
 95 352 l 1,9,-1
 95 449 l 1,10,-1
 476 1760 l 1,0,-1
485 468 m 1,11,-1
 485 1468 l 1,12,-1
 217 468 l 1,13,-1
 485 468 l 1,11,-1
EndSplineSet
EndChar

StartChar: five
Encoding: 53 53 24
Width: 830
Flags: W
LayerCount: 2
UndoRedoHistory
Layer: 1
Undoes
EndUndoes
Redoes
EndRedoes
EndUndoRedoHistory
Fore
SplineSet
188 1760 m 1,0,-1
 648 1760 l 1,1,-1
 648 1624 l 1,2,-1
 323 1624 l 1,3,-1
 323 1126 l 1,4,5
 336 1168 336 1168 376 1193.5 c 128,-1,6
 416 1219 416 1219 444.5 1220.5 c 128,-1,7
 473 1222 473 1222 493 1222 c 0,8,9
 600 1222 600 1222 643 1123.5 c 128,-1,10
 686 1025 686 1025 686 828 c 2,11,-1
 686 321 l 2,12,13
 686 155 686 155 628 67.5 c 128,-1,14
 570 -20 570 -20 430 -20 c 0,15,16
 251 -20 251 -20 194 113 c 0,17,18
 164 183 164 183 164 291 c 2,19,-1
 164 459 l 1,20,-1
 307 459 l 1,21,-1
 307 263 l 2,22,23
 307 178 307 178 335 140 c 128,-1,24
 363 102 363 102 424.5 102 c 128,-1,25
 486 102 486 102 515.5 141.5 c 128,-1,26
 545 181 545 181 545 274 c 2,27,-1
 545 869 l 2,28,29
 545 985 545 985 519.5 1038 c 128,-1,30
 494 1091 494 1091 437 1091 c 128,-1,31
 380 1091 380 1091 346 1039.5 c 128,-1,32
 312 988 312 988 312 888 c 1,33,-1
 188 910 l 1,34,-1
 188 1760 l 1,0,-1
EndSplineSet
EndChar

StartChar: six
Encoding: 54 54 25
Width: 830
Flags: W
LayerCount: 2
UndoRedoHistory
Layer: 1
Undoes
EndUndoes
Redoes
EndRedoes
EndUndoRedoHistory
Fore
SplineSet
284 1013 m 1,0,1
 350 1102 350 1102 462 1102 c 0,2,3
 618 1102 618 1102 681.5 984 c 128,-1,4
 745 866 745 866 745 559 c 2,5,-1
 745 442 l 1,6,7
 744 212 744 212 681 96 c 128,-1,8
 618 -20 618 -20 446.5 -20 c 128,-1,9
 275 -20 275 -20 205.5 96.5 c 128,-1,10
 136 213 136 213 136 506 c 2,11,-1
 136 1264 l 2,12,13
 136 1486 136 1486 162.5 1575.5 c 128,-1,14
 189 1665 189 1665 223 1703 c 0,15,16
 294 1783 294 1783 442 1783 c 128,-1,17
 590 1783 590 1783 645 1691 c 0,18,19
 685 1624 685 1624 697 1528 c 0,20,21
 709 1432 709 1432 711 1284 c 1,22,-1
 711 1252 l 1,23,-1
 559 1252 l 1,24,-1
 559 1283 l 2,25,26
 559 1519 559 1519 539.5 1577.5 c 128,-1,27
 520 1636 520 1636 483 1648 c 0,28,29
 464 1654 464 1654 428 1654 c 0,30,31
 427 1654 427 1654 425 1655 c 0,32,33
 358 1655 358 1655 324 1607 c 1,34,35
 284 1551 284 1551 284 1255 c 2,36,-1
 284 1013 l 1,0,1
595 547 m 2,37,38
 595 797 595 797 567 887.5 c 128,-1,39
 539 978 539 978 459.5 978 c 128,-1,40
 380 978 380 978 333.5 952.5 c 128,-1,41
 287 927 287 927 284 926 c 1,42,-1
 284 504 l 2,43,44
 284 262 284 262 308 197 c 128,-1,45
 332 132 332 132 378 116 c 0,46,47
 404 107 404 107 454.5 107 c 128,-1,48
 505 107 505 107 536.5 135 c 128,-1,49
 568 163 568 163 581.5 234 c 128,-1,50
 595 305 595 305 595 446 c 2,51,-1
 595 547 l 2,37,38
EndSplineSet
EndChar

StartChar: seven
Encoding: 55 55 26
Width: 830
Flags: W
LayerCount: 2
UndoRedoHistory
Layer: 1
Undoes
EndUndoes
Redoes
EndRedoes
EndUndoRedoHistory
Fore
SplineSet
95 1760 m 1,0,-1
 728 1760 l 1,1,-1
 728 1654 l 1,2,3
 722 1654 722 1654 676 1509 c 0,4,5
 628 1358 628 1358 582 1175 c 0,6,7
 427 559 427 559 391 0 c 1,8,-1
 236 0 l 1,9,10
 285 618 285 618 434 1165 c 1,11,12
 509 1425 509 1425 576 1592 c 1,13,-1
 598 1643 l 1,14,-1
 95 1643 l 1,15,-1
 95 1760 l 1,0,-1
EndSplineSet
EndChar

StartChar: eight
Encoding: 56 56 27
Width: 830
Flags: W
LayerCount: 2
UndoRedoHistory
Layer: 1
Undoes
EndUndoes
Redoes
EndRedoes
EndUndoRedoHistory
Fore
SplineSet
111 403 m 2,0,-1
 110 434 l 1,1,2
 110 638 110 638 146.5 755 c 128,-1,3
 183 872 183 872 265 927 c 1,4,5
 193 978 193 978 160.5 1077.5 c 128,-1,6
 128 1177 128 1177 128 1375.5 c 128,-1,7
 128 1574 128 1574 198.5 1678.5 c 128,-1,8
 269 1783 269 1783 423.5 1783 c 128,-1,9
 578 1783 578 1783 647.5 1679 c 128,-1,10
 717 1575 717 1575 717 1378 c 128,-1,11
 717 1181 717 1181 682.5 1082.5 c 128,-1,12
 648 984 648 984 571 931 c 1,13,14
 650 874 650 874 685.5 756 c 128,-1,15
 721 638 721 638 721 434 c 2,16,-1
 721 413 l 1,17,18
 716 186 716 186 644.5 83 c 128,-1,19
 573 -20 573 -20 419 -20 c 128,-1,20
 265 -20 265 -20 191.5 80.5 c 128,-1,21
 118 181 118 181 111 403 c 2,0,-1
536 767 m 0,22,23
 501 869 501 869 420 869 c 0,24,25
 419 868 l 0,26,27
 259 867 259 867 259 464 c 1,28,29
 260 460 260 460 260 458 c 0,30,31
 260 256 260 256 299 179.5 c 128,-1,32
 338 103 338 103 419.5 103 c 128,-1,33
 501 103 501 103 536.5 183 c 128,-1,34
 572 263 572 263 572 464 c 128,-1,35
 572 665 572 665 536 767 c 0,22,23
533 1070 m 128,-1,37
 568 1158 568 1158 568 1334.5 c 128,-1,38
 568 1511 568 1511 533 1582 c 128,-1,39
 498 1653 498 1653 421.5 1653 c 128,-1,40
 345 1653 345 1653 311 1580.5 c 128,-1,41
 277 1508 277 1508 277 1332 c 128,-1,42
 277 1156 277 1156 311 1069 c 128,-1,43
 345 982 345 982 421.5 982 c 128,-1,36
 498 982 498 982 533 1070 c 128,-1,37
EndSplineSet
EndChar

StartChar: nine
Encoding: 57 57 28
Width: 830
Flags: W
LayerCount: 2
UndoRedoHistory
Layer: 1
Undoes
EndUndoes
Redoes
EndRedoes
EndUndoRedoHistory
Fore
SplineSet
109 1252 m 2,0,1
 110 1468 110 1468 124 1528 c 0,2,3
 155 1654 155 1654 182.5 1686 c 128,-1,4
 210 1718 210 1718 253.5 1750.5 c 128,-1,5
 297 1783 297 1783 378 1783 c 128,-1,6
 459 1783 459 1783 504 1768 c 0,7,8
 553 1752 553 1752 580 1730 c 0,9,10
 667 1660 667 1660 684 1486 c 0,11,12
 694 1390 694 1390 694 1254 c 2,13,-1
 694 542 l 2,14,15
 694 264 694 264 664 164 c 128,-1,16
 634 64 634 64 575.5 22 c 128,-1,17
 517 -20 517 -20 435 -20 c 0,18,19
 293 -20 293 -20 231 57 c 0,20,21
 202 94 202 94 176 186.5 c 128,-1,22
 150 279 150 279 149 508 c 1,23,-1
 292 508 l 1,24,-1
 292 483 l 1,25,26
 295 229 295 229 315.5 174 c 128,-1,27
 336 119 336 119 379 108 c 0,28,29
 399 103 399 103 431 103 c 0,30,31
 502 103 502 103 523 158 c 128,-1,32
 544 213 544 213 544 370 c 2,33,-1
 544 712 l 1,34,35
 494 662 494 662 408 662 c 0,36,37
 256 662 256 662 188 754 c 1,38,39
 110 863 110 863 109 1226 c 1,40,-1
 109 1252 l 2,0,1
544 1255 m 2,41,42
 544 1484 544 1484 522 1554 c 0,43,44
 499 1624 499 1624 458 1642 c 0,45,46
 429 1654 429 1654 401 1654 c 0,47,48
 374 1654 374 1654 346 1642 c 0,49,50
 304 1624 304 1624 280 1554 c 1,51,52
 258 1493 258 1493 259 1288 c 0,53,54
 259 1273 259 1273 259 1257 c 1,55,-1
 259 1208 l 1,56,57
 259 1197 259 1197 259 1187 c 0,58,59
 260 939 260 939 282 871 c 0,60,61
 306 800 306 800 350 784 c 0,62,63
 374 776 374 776 429 776 c 128,-1,64
 484 776 484 776 544 803 c 1,65,-1
 544 1255 l 2,41,42
EndSplineSet
EndChar

StartChar: colon
Encoding: 58 58 29
Width: 555
Flags: W
LayerCount: 2
UndoRedoHistory
Layer: 1
Undoes
EndUndoes
Redoes
EndRedoes
EndUndoRedoHistory
Fore
SplineSet
179 543 m 1,0,-1
 362 543 l 1,1,-1
 362 312 l 1,2,-1
 179 312 l 1,3,-1
 179 543 l 1,0,-1
179 1279 m 1,4,-1
 362 1279 l 1,5,-1
 362 1048 l 1,6,-1
 179 1048 l 1,7,-1
 179 1279 l 1,4,-1
EndSplineSet
EndChar

StartChar: semicolon
Encoding: 59 59 30
Width: 561
Flags: W
LayerCount: 2
UndoRedoHistory
Layer: 1
Undoes
EndUndoes
Redoes
EndRedoes
EndUndoRedoHistory
Fore
SplineSet
179 1279 m 1,0,-1
 362 1279 l 1,1,-1
 362 1048 l 1,2,-1
 179 1048 l 1,3,-1
 179 1279 l 1,0,-1
181 523 m 1,4,-1
 381 523 l 1,5,-1
 381 359 l 1,6,-1
 277 0 l 1,7,-1
 200 0 l 1,8,-1
 296 350 l 1,9,-1
 181 350 l 1,10,-1
 181 523 l 1,4,-1
EndSplineSet
EndChar

StartChar: less
Encoding: 60 60 31
Width: 730
Flags: W
LayerCount: 2
UndoRedoHistory
Layer: 1
Undoes
EndUndoes
Redoes
EndRedoes
EndUndoRedoHistory
Fore
SplineSet
63 823 m 1,0,-1
 642 1219 l 1,1,-1
 642 1051 l 1,2,-1
 174 758 l 1,3,-1
 642 448 l 1,4,-1
 642 288 l 1,5,-1
 63 688 l 1,6,-1
 63 823 l 1,0,-1
EndSplineSet
EndChar

StartChar: equal
Encoding: 61 61 32
Width: 722
Flags: W
LayerCount: 2
UndoRedoHistory
Layer: 1
Undoes
EndUndoes
Redoes
EndRedoes
EndUndoRedoHistory
Fore
SplineSet
94 1025 m 1,0,-1
 628 1025 l 1,1,-1
 628 896 l 1,2,-1
 94 896 l 1,3,-1
 94 1025 l 1,0,-1
94 729 m 1,4,-1
 628 729 l 1,5,-1
 628 601 l 1,6,-1
 94 601 l 1,7,-1
 94 729 l 1,4,-1
EndSplineSet
EndChar

StartChar: greater
Encoding: 62 62 33
Width: 730
Flags: W
LayerCount: 2
UndoRedoHistory
Layer: 1
Undoes
EndUndoes
Redoes
EndRedoes
EndUndoRedoHistory
Fore
SplineSet
84 1059 m 1,0,-1
 84 1219 l 1,1,-1
 663 818 l 1,2,-1
 663 684 l 1,3,-1
 84 288 l 1,4,-1
 84 456 l 1,5,-1
 552 749 l 1,6,-1
 84 1059 l 1,0,-1
EndSplineSet
EndChar

StartChar: question
Encoding: 63 63 34
Width: 708
Flags: W
LayerCount: 2
UndoRedoHistory
Layer: 1
Undoes
EndUndoes
Redoes
EndRedoes
EndUndoRedoHistory
Fore
SplineSet
158 1365 m 1,0,1
 156 1476 l 1,2,3
 156 1614 156 1614 188.5 1672.5 c 128,-1,4
 221 1731 221 1731 268 1757 c 128,-1,5
 315 1783 315 1783 375 1783 c 128,-1,6
 435 1783 435 1783 468.5 1775.5 c 128,-1,7
 502 1768 502 1768 526 1748.5 c 128,-1,8
 550 1729 550 1729 567 1712 c 0,9,10
 588 1691 588 1691 603 1631 c 0,11,12
 623 1550 623 1550 623 1415 c 0,13,14
 623 1399 623 1399 623 1383 c 1,15,-1
 623 1314 l 2,16,17
 623 1048 623 1048 564.5 920.5 c 128,-1,18
 506 793 506 793 353 750 c 1,19,-1
 353 494 l 1,20,-1
 228 494 l 1,21,-1
 228 810 l 1,22,23
 324 845 324 845 362.5 878.5 c 128,-1,24
 401 912 401 912 420 936 c 0,25,26
 438 959 438 959 452 996 c 0,27,28
 478 1062 478 1062 484 1148 c 0,29,30
 491 1230 491 1230 491 1382 c 128,-1,31
 491 1534 491 1534 472.5 1597.5 c 128,-1,32
 454 1661 454 1661 393 1661 c 128,-1,33
 332 1661 332 1661 311 1602.5 c 128,-1,34
 290 1544 290 1544 290 1375 c 2,35,-1
 290 1160 l 1,36,-1
 158 1160 l 1,37,-1
 158 1365 l 1,0,1
227 299 m 1,38,-1
 353 299 l 1,39,-1
 353 0 l 1,40,-1
 227 0 l 1,41,-1
 227 299 l 1,38,-1
EndSplineSet
EndChar

StartChar: at
Encoding: 64 64 35
Width: 1340
Flags: W
LayerCount: 2
UndoRedoHistory
Layer: 1
Undoes
EndUndoes
Redoes
EndRedoes
EndUndoRedoHistory
Fore
SplineSet
1161 121 m 1,0,1
 948 53 948 53 783 53 c 0,2,3
 459 53 459 53 259.5 238 c 128,-1,4
 60 423 60 423 60 790 c 0,5,6
 60 1266 60 1266 277 1466 c 0,7,8
 440 1616 440 1616 741 1616 c 128,-1,9
 1042 1616 1042 1616 1161 1418 c 128,-1,10
 1280 1220 1280 1220 1280 867 c 0,11,12
 1280 663 1280 663 1226.5 522.5 c 128,-1,13
 1173 382 1173 382 1051 382 c 0,14,15
 986 382 986 382 942 426.5 c 128,-1,16
 898 471 898 471 886 548 c 1,17,18
 858 450 858 450 766 402 c 0,19,20
 710 373 710 373 660 373 c 0,21,22
 472 373 472 373 394 572 c 0,23,24
 357 668 357 668 357 767 c 0,25,26
 357 1027 357 1027 436 1146 c 1,27,28
 526 1284 526 1284 714 1284 c 0,29,30
 831 1284 831 1284 975 1237 c 1,31,-1
 975 641 l 2,32,33
 975 553 975 553 992 510.5 c 128,-1,34
 1009 468 1009 468 1052 468 c 0,35,36
 1171 468 1171 468 1171 864 c 0,37,38
 1171 1061 1171 1061 1156 1136 c 128,-1,39
 1141 1211 1141 1211 1125 1260 c 0,40,41
 1096 1345 1096 1345 1030 1413 c 1,42,43
 934 1514 934 1514 736 1514 c 0,44,45
 387 1514 387 1514 262 1228 c 0,46,47
 188 1056 188 1056 188 787 c 0,48,49
 188 610 188 610 240 478 c 0,50,51
 338 234 338 234 596 170 c 0,52,53
 680 149 680 149 771 149 c 0,54,55
 945 149 945 149 1143 221 c 1,56,-1
 1161 121 l 1,0,1
856 1188 m 1,57,58
 798 1198 798 1198 767 1198 c 128,-1,59
 736 1198 736 1198 704 1195 c 0,60,61
 633 1188 633 1188 589 1148 c 128,-1,62
 545 1108 545 1108 524 1066 c 0,63,64
 477 971 477 971 477 806 c 0,65,66
 477 549 477 549 588 485 c 0,67,68
 620 467 620 467 659.5 467 c 128,-1,69
 699 467 699 467 759 501 c 128,-1,70
 819 535 819 535 849 607 c 1,71,-1
 856 628 l 1,72,-1
 856 1188 l 1,57,58
EndSplineSet
EndChar

StartChar: A
Encoding: 65 65 36
Width: 817
Flags: W
LayerCount: 2
UndoRedoHistory
Layer: 1
Undoes
EndUndoes
Redoes
EndRedoes
EndUndoRedoHistory
Fore
SplineSet
561 473 m 1,0,-1
 399 1476 l 1,1,-1
 397 1476 l 1,2,-1
 248 473 l 1,3,-1
 561 473 l 1,0,-1
318 1760 m 1,4,-1
 470 1760 l 1,5,-1
 783 0 l 1,6,-1
 639 0 l 1,7,-1
 581 362 l 1,8,-1
 229 362 l 1,9,-1
 176 0 l 1,10,-1
 35 0 l 1,11,-1
 318 1760 l 1,4,-1
EndSplineSet
EndChar

StartChar: B
Encoding: 66 66 37
Width: 868
Flags: W
LayerCount: 2
UndoRedoHistory
Layer: 1
Undoes
EndUndoes
Redoes
EndRedoes
EndUndoRedoHistory
Fore
SplineSet
166 1760 m 1,0,-1
 423 1760 l 2,1,2
 581 1760 581 1760 652.5 1706 c 128,-1,3
 724 1652 724 1652 742 1516 c 0,4,5
 750 1456 750 1456 751 1366 c 1,6,-1
 751 1343 l 2,7,8
 751 1172 751 1172 729 1082 c 128,-1,9
 707 992 707 992 638 947 c 1,10,11
 716 909 716 909 745.5 797.5 c 128,-1,12
 775 686 775 686 775 518 c 2,13,-1
 775 487 l 1,14,15
 771 230 771 230 709 115 c 128,-1,16
 647 0 647 0 468 0 c 2,17,-1
 166 0 l 1,18,-1
 166 1760 l 1,0,-1
476 884 m 2,19,-1
 315 884 l 1,20,-1
 315 128 l 1,21,-1
 473 128 l 2,22,23
 546 128 546 128 579.5 176 c 128,-1,24
 613 224 613 224 619.5 326 c 128,-1,25
 626 428 626 428 626 500 c 2,26,-1
 626 583 l 2,27,28
 626 731 626 731 595.5 807.5 c 128,-1,29
 565 884 565 884 476 884 c 2,19,-1
427 1629 m 2,30,-1
 315 1629 l 1,31,-1
 315 1004 l 1,32,-1
 449 1004 l 2,33,34
 518 1004 518 1004 541.5 1019 c 128,-1,35
 565 1034 565 1034 574 1054 c 0,36,37
 601 1122 601 1122 602 1291 c 0,38,39
 602 1296 602 1296 602 1360 c 128,-1,40
 602 1424 602 1424 595 1474 c 0,41,42
 581 1576 581 1576 542 1602.5 c 128,-1,43
 503 1629 503 1629 427 1629 c 2,30,-1
EndSplineSet
EndChar

StartChar: C
Encoding: 67 67 38
Width: 868
Flags: W
LayerCount: 2
UndoRedoHistory
Layer: 1
Undoes
EndUndoes
Redoes
EndRedoes
EndUndoRedoHistory
Fore
SplineSet
136 1251 m 2,0,1
 136 1570 136 1570 216.5 1676.5 c 128,-1,2
 297 1783 297 1783 445.5 1783 c 128,-1,3
 594 1783 594 1783 658 1709 c 0,4,5
 704 1656 704 1656 718 1604 c 0,6,7
 751 1480 751 1480 751 1239 c 2,8,-1
 751 1087 l 1,9,-1
 600 1087 l 1,10,-1
 600 1257 l 2,11,12
 600 1461 600 1461 580 1535 c 128,-1,13
 560 1609 560 1609 530 1633.5 c 128,-1,14
 500 1658 500 1658 453 1658 c 0,15,16
 358 1658 358 1658 321.5 1562 c 128,-1,17
 285 1466 285 1466 285 1258 c 2,18,-1
 285 552 l 2,19,20
 285 297 285 297 317 199.5 c 128,-1,21
 349 102 349 102 445 102 c 128,-1,22
 541 102 541 102 570.5 199 c 128,-1,23
 600 296 600 296 600 551 c 2,24,-1
 600 692 l 1,25,-1
 750 692 l 1,26,-1
 750 552 l 2,27,28
 750 321 750 321 724 219.5 c 128,-1,29
 698 118 698 118 665 74 c 0,30,31
 595 -20 595 -20 448 -20 c 128,-1,32
 301 -20 301 -20 227 73 c 0,33,34
 136 187 136 187 136 550 c 2,35,-1
 136 1251 l 2,0,1
EndSplineSet
EndChar

StartChar: D
Encoding: 68 68 39
Width: 914
Flags: W
LayerCount: 2
UndoRedoHistory
Layer: 1
Undoes
EndUndoes
Redoes
EndRedoes
EndUndoRedoHistory
Fore
SplineSet
166 1760 m 1,0,-1
 437 1760 l 2,1,2
 675 1760 675 1760 740 1566 c 0,3,4
 778 1453 778 1453 778 1258 c 2,5,-1
 778 504 l 2,6,7
 778 229 778 229 700 114.5 c 128,-1,8
 622 0 622 0 431 0 c 2,9,-1
 166 0 l 1,10,-1
 166 1760 l 1,0,-1
629 1274 m 2,11,12
 629 1466 629 1466 584.5 1551 c 128,-1,13
 540 1636 540 1636 446 1636 c 2,14,-1
 314 1636 l 1,15,-1
 314 128 l 1,16,-1
 437 128 l 2,17,18
 560 128 560 128 598 241 c 1,19,20
 628 334 628 334 629 519 c 1,21,-1
 629 1274 l 2,11,12
EndSplineSet
EndChar

StartChar: E
Encoding: 69 69 40
Width: 716
Flags: W
LayerCount: 2
UndoRedoHistory
Layer: 1
Undoes
EndUndoes
Redoes
EndRedoes
EndUndoRedoHistory
Fore
SplineSet
166 1760 m 1,0,-1
 631 1760 l 1,1,-1
 631 1644 l 1,2,-1
 315 1644 l 1,3,-1
 315 956 l 1,4,-1
 612 956 l 1,5,-1
 612 835 l 1,6,-1
 315 835 l 1,7,-1
 315 118 l 1,8,-1
 628 118 l 1,9,-1
 628 0 l 1,10,-1
 166 0 l 1,11,-1
 166 1760 l 1,0,-1
EndSplineSet
EndChar

StartChar: F
Encoding: 70 70 41
Width: 695
Flags: W
LayerCount: 2
UndoRedoHistory
Layer: 1
Undoes
EndUndoes
Redoes
EndRedoes
EndUndoRedoHistory
Fore
SplineSet
166 1760 m 1,0,-1
 628 1760 l 1,1,-1
 628 1644 l 1,2,-1
 314 1644 l 1,3,-1
 314 1005 l 1,4,-1
 611 1005 l 1,5,-1
 611 886 l 1,6,-1
 314 886 l 1,7,-1
 314 0 l 1,8,-1
 166 0 l 1,9,-1
 166 1760 l 1,0,-1
EndSplineSet
EndChar

StartChar: G
Encoding: 71 71 42
Width: 890
Flags: W
LayerCount: 2
UndoRedoHistory
Layer: 1
Undoes
EndUndoes
Redoes
EndRedoes
EndUndoRedoHistory
Fore
SplineSet
136 1245 m 2,0,1
 136 1518 136 1518 189 1626 c 0,2,3
 266 1783 266 1783 446 1783 c 0,4,5
 562 1783 562 1783 618 1740 c 0,6,7
 684 1689 684 1689 702 1639 c 0,8,9
 736 1541 736 1541 742.5 1451 c 128,-1,10
 749 1361 749 1361 749 1247 c 2,11,-1
 749 1100 l 1,12,-1
 597 1100 l 1,13,-1
 597 1372 l 2,14,15
 597 1521 597 1521 567 1589.5 c 128,-1,16
 537 1658 537 1658 447 1658 c 128,-1,17
 357 1658 357 1658 321 1569.5 c 128,-1,18
 285 1481 285 1481 285 1261 c 2,19,-1
 285 543 l 2,20,21
 285 294 285 294 317 198 c 128,-1,22
 349 102 349 102 443 102 c 128,-1,23
 537 102 537 102 569 199 c 128,-1,24
 601 296 601 296 601 541 c 2,25,-1
 601 763 l 1,26,-1
 450 763 l 1,27,-1
 450 890 l 1,28,-1
 749 890 l 1,29,-1
 749 0 l 1,30,-1
 651 0 l 1,31,-1
 635 102 l 1,32,33
 598 40 598 40 548 10 c 128,-1,34
 498 -20 498 -20 419 -20 c 0,35,36
 271 -20 271 -20 203.5 109.5 c 128,-1,37
 136 239 136 239 136 532 c 2,38,-1
 136 1245 l 2,0,1
EndSplineSet
EndChar

StartChar: H
Encoding: 72 72 43
Width: 952
Flags: W
LayerCount: 2
UndoRedoHistory
Layer: 1
Undoes
EndUndoes
Redoes
EndRedoes
EndUndoRedoHistory
Fore
SplineSet
637 1760 m 1,0,-1
 786 1760 l 1,1,-1
 786 0 l 1,2,-1
 637 0 l 1,3,-1
 637 886 l 1,4,-1
 315 886 l 1,5,-1
 315 0 l 1,6,-1
 166 0 l 1,7,-1
 166 1760 l 1,8,-1
 315 1760 l 1,9,-1
 315 998 l 1,10,-1
 637 998 l 1,11,-1
 637 1760 l 1,0,-1
EndSplineSet
EndChar

StartChar: I
Encoding: 73 73 44
Width: 485
Flags: W
LayerCount: 2
UndoRedoHistory
Layer: 1
Undoes
EndUndoes
Redoes
EndRedoes
EndUndoRedoHistory
Fore
SplineSet
168 1760 m 1,0,-1
 317 1760 l 1,1,-1
 317 0 l 1,2,-1
 168 0 l 1,3,-1
 168 1760 l 1,0,-1
EndSplineSet
EndChar

StartChar: J
Encoding: 74 74 45
Width: 784
Flags: W
LayerCount: 2
UndoRedoHistory
Layer: 1
Undoes
EndUndoes
Redoes
EndRedoes
EndUndoRedoHistory
Fore
SplineSet
481 1760 m 1,0,-1
 630 1760 l 1,1,-1
 630 420 l 2,2,3
 630 190 630 190 567.5 85 c 128,-1,4
 505 -20 505 -20 354 -20 c 128,-1,5
 203 -20 203 -20 140.5 77 c 128,-1,6
 78 174 78 174 78 389 c 2,7,-1
 78 540 l 1,8,-1
 229 540 l 1,9,-1
 229 337 l 1,10,11
 229 331 229 331 229 326 c 0,12,13
 230 210 230 210 250 171 c 0,14,15
 272 130 272 130 295 116 c 0,16,17
 322 100 322 100 353 99 c 0,18,19
 373 99 373 99 396 106 c 1,20,21
 420 112 420 112 440 136 c 128,-1,22
 460 160 460 160 466 185 c 0,23,24
 470 210 470 210 474 226 c 0,25,26
 480 250 480 250 481 332 c 2,27,-1
 481 1760 l 1,0,-1
EndSplineSet
EndChar

StartChar: K
Encoding: 75 75 46
Width: 854
Flags: W
LayerCount: 2
UndoRedoHistory
Layer: 1
Undoes
EndUndoes
Redoes
EndRedoes
EndUndoRedoHistory
Fore
SplineSet
670 1760 m 1,0,-1
 814 1760 l 1,1,-1
 452 891 l 1,2,-1
 837 0 l 1,3,-1
 683 0 l 1,4,-1
 317 860 l 1,5,-1
 317 0 l 1,6,-1
 166 0 l 1,7,-1
 166 1760 l 1,8,-1
 315 1760 l 1,9,-1
 315 893 l 1,10,-1
 670 1760 l 1,0,-1
EndSplineSet
EndChar

StartChar: L
Encoding: 76 76 47
Width: 643
Flags: W
LayerCount: 2
UndoRedoHistory
Layer: 1
Undoes
EndUndoes
Redoes
EndRedoes
EndUndoRedoHistory
Fore
SplineSet
166 1760 m 1,0,-1
 315 1760 l 1,1,-1
 315 118 l 1,2,-1
 627 118 l 1,3,-1
 627 0 l 1,4,-1
 166 0 l 1,5,-1
 166 1760 l 1,0,-1
EndSplineSet
EndChar

StartChar: M
Encoding: 77 77 48
Width: 1204
Flags: W
LayerCount: 2
UndoRedoHistory
Layer: 1
Undoes
EndUndoes
Redoes
EndRedoes
EndUndoRedoHistory
Fore
SplineSet
877 1760 m 1,0,-1
 1044 1760 l 1,1,-1
 1044 0 l 1,2,-1
 909 0 l 1,3,-1
 909 754 l 1,4,-1
 932 1463 l 1,5,-1
 681 38 l 1,6,-1
 539 38 l 1,7,-1
 279 1463 l 1,8,-1
 302 754 l 1,9,-1
 302 0 l 1,10,-1
 166 0 l 1,11,-1
 166 1760 l 1,12,-1
 333 1760 l 1,13,-1
 610 282 l 1,14,-1
 877 1760 l 1,0,-1
EndSplineSet
EndChar

StartChar: N
Encoding: 78 78 49
Width: 983
Flags: W
LayerCount: 2
UndoRedoHistory
Layer: 1
Undoes
EndUndoes
Redoes
EndRedoes
EndUndoRedoHistory
Fore
SplineSet
687 1760 m 1,0,-1
 817 1760 l 1,1,-1
 817 0 l 1,2,-1
 701 0 l 1,3,-1
 296 1326 l 1,4,-1
 306 850 l 1,5,-1
 306 0 l 1,6,-1
 166 0 l 1,7,-1
 166 1760 l 1,8,-1
 270 1760 l 1,9,-1
 702 399 l 1,10,-1
 687 1005 l 1,11,-1
 687 1760 l 1,0,-1
EndSplineSet
EndChar

StartChar: O
Encoding: 79 79 50
Width: 891
Flags: W
LayerCount: 2
UndoRedoHistory
Layer: 1
Undoes
EndUndoes
Redoes
EndRedoes
EndUndoRedoHistory
Fore
SplineSet
136 1268 m 2,0,1
 136 1588 136 1588 216 1685.5 c 128,-1,2
 296 1783 296 1783 462 1783 c 128,-1,3
 628 1783 628 1783 691 1674 c 0,4,5
 733 1601 733 1601 744 1504 c 128,-1,6
 755 1407 755 1407 755 1268 c 2,7,-1
 755 519 l 2,8,9
 755 290 755 290 727.5 196.5 c 128,-1,10
 700 103 700 103 665.5 62.5 c 128,-1,11
 631 22 631 22 577 0 c 128,-1,12
 523 -22 523 -22 447 -22 c 128,-1,13
 371 -22 371 -22 317 0 c 0,14,15
 209 43 209 43 172.5 168 c 128,-1,16
 136 293 136 293 136 519 c 2,17,-1
 136 1268 l 2,0,1
606 1280 m 2,18,19
 606 1490 606 1490 575.5 1574 c 128,-1,20
 545 1658 545 1658 451 1658 c 128,-1,21
 357 1658 357 1658 321 1571.5 c 128,-1,22
 285 1485 285 1485 285 1281 c 2,23,-1
 285 519 l 2,24,25
 285 276 285 276 310 208 c 128,-1,26
 335 140 335 140 365.5 121 c 128,-1,27
 396 102 396 102 446 102 c 128,-1,28
 496 102 496 102 526 121 c 128,-1,29
 556 140 556 140 574 190 c 0,30,31
 606 275 606 275 606 519 c 2,32,-1
 606 1280 l 2,18,19
EndSplineSet
EndChar

StartChar: P
Encoding: 80 80 51
Width: 847
Flags: W
LayerCount: 2
UndoRedoHistory
Layer: 1
Undoes
EndUndoes
Redoes
EndRedoes
EndUndoRedoHistory
Fore
SplineSet
166 1760 m 1,0,-1
 472 1760 l 2,1,2
 580 1760 580 1760 642 1720 c 0,3,4
 706 1679 706 1679 726 1629 c 0,5,6
 764 1533 764 1533 771 1452 c 0,7,8
 777 1378 777 1378 777 1278 c 0,9,10
 777 1264 777 1264 777 1249 c 1,11,-1
 777 1231 l 2,12,13
 777 1002 777 1002 748.5 908 c 128,-1,14
 720 814 720 814 684 773 c 0,15,16
 611 689 611 689 463 689 c 2,17,-1
 315 689 l 1,18,-1
 315 0 l 1,19,-1
 166 0 l 1,20,-1
 166 1760 l 1,0,-1
628 1229 m 2,21,-1
 628 1276 l 2,22,23
 628 1470 628 1470 598.5 1553 c 128,-1,24
 569 1636 569 1636 480 1636 c 2,25,-1
 315 1636 l 1,26,-1
 315 815 l 1,27,-1
 473 815 l 2,28,29
 565 815 565 815 596.5 902.5 c 128,-1,30
 628 990 628 990 628 1229 c 2,21,-1
EndSplineSet
EndChar

StartChar: Q
Encoding: 81 81 52
Width: 891
Flags: W
LayerCount: 2
UndoRedoHistory
Layer: 1
Undoes
EndUndoes
Redoes
EndRedoes
EndUndoRedoHistory
Fore
SplineSet
606 1280 m 2,0,1
 606 1490 606 1490 575.5 1574 c 128,-1,2
 545 1658 545 1658 451 1658 c 128,-1,3
 357 1658 357 1658 321 1571.5 c 128,-1,4
 285 1485 285 1485 285 1281 c 2,5,-1
 285 519 l 2,6,7
 285 276 285 276 310 208 c 128,-1,8
 335 140 335 140 365.5 121 c 128,-1,9
 396 102 396 102 446 102 c 128,-1,10
 496 102 496 102 526 121 c 128,-1,11
 556 140 556 140 574 190 c 0,12,13
 606 275 606 275 606 519 c 2,14,-1
 606 1280 l 2,0,1
136 1268 m 2,15,16
 136 1588 136 1588 216 1685.5 c 128,-1,17
 296 1783 296 1783 462 1783 c 128,-1,18
 628 1783 628 1783 691 1674 c 0,19,20
 733 1601 733 1601 744 1504 c 128,-1,21
 755 1407 755 1407 755 1268 c 2,22,-1
 755 519 l 2,23,24
 755 290 755 290 728 196 c 0,25,26
 700 104 700 104 660 56 c 128,-1,27
 620 8 620 8 539 -10 c 1,28,-1
 720 -337 l 1,29,-1
 622 -389 l 1,30,-1
 410 -19 l 1,31,32
 224 -5 224 -5 172 171 c 0,33,34
 136 293 136 293 136 519 c 2,35,-1
 136 1268 l 2,15,16
EndSplineSet
EndChar

StartChar: R
Encoding: 82 82 53
Width: 899
Flags: W
LayerCount: 2
UndoRedoHistory
Layer: 1
Undoes
EndUndoes
Redoes
EndRedoes
EndUndoRedoHistory
Fore
SplineSet
166 1760 m 1,0,-1
 465 1760 l 2,1,2
 646 1760 646 1760 707 1684 c 0,3,4
 753 1627 753 1627 765.5 1544.5 c 128,-1,5
 778 1462 778 1462 778 1305 c 128,-1,6
 778 1148 778 1148 741.5 1048.5 c 128,-1,7
 705 949 705 949 616 925 c 1,8,9
 651 919 651 919 675 903.5 c 128,-1,10
 699 888 699 888 718 851 c 0,11,12
 777 736 777 736 777 284 c 0,13,14
 777 98 777 98 780.5 69.5 c 128,-1,15
 784 41 784 41 799 0 c 1,16,-1
 651 0 l 1,17,18
 635 30 635 30 632 113.5 c 128,-1,19
 629 197 629 197 629 380 c 2,20,-1
 629 574 l 2,21,22
 629 758 629 758 606.5 808 c 128,-1,23
 584 858 584 858 473 858 c 1,24,-1
 315 868 l 1,25,-1
 315 0 l 1,26,-1
 166 0 l 1,27,-1
 166 1760 l 1,0,-1
629 1335 m 2,28,29
 629 1468 629 1468 616.5 1530 c 128,-1,30
 604 1592 604 1592 574.5 1614 c 128,-1,31
 545 1636 545 1636 481 1636 c 2,32,-1
 314 1636 l 1,33,-1
 314 968 l 1,34,-1
 470 968 l 2,35,36
 546 968 546 968 574 994 c 0,37,38
 600 1020 600 1020 614 1080.5 c 128,-1,39
 628 1141 628 1141 629 1322 c 1,40,-1
 629 1335 l 2,28,29
EndSplineSet
EndChar

StartChar: S
Encoding: 83 83 54
Width: 794
Flags: W
LayerCount: 2
UndoRedoHistory
Layer: 1
Undoes
EndUndoes
Redoes
EndRedoes
EndUndoRedoHistory
Fore
SplineSet
98 1490 m 0,0,1
 113 1634 113 1634 182.5 1708.5 c 128,-1,2
 252 1783 252 1783 400 1783 c 128,-1,3
 548 1783 548 1783 606 1708 c 0,4,5
 639 1665 639 1665 656 1628 c 0,6,7
 694 1546 694 1546 695 1242 c 2,8,-1
 695 1143 l 1,9,-1
 562 1143 l 1,10,-1
 562 1253 l 2,11,12
 562 1558 562 1558 499 1624 c 0,13,14
 466 1658 466 1658 404 1658 c 128,-1,15
 342 1658 342 1658 308 1636 c 0,16,17
 240 1590 240 1590 240 1371 c 0,18,19
 240 1232 240 1232 304 1154 c 0,20,21
 328 1124 328 1124 367.5 1086.5 c 128,-1,22
 407 1049 407 1049 414 1042 c 2,23,-1
 511 946 l 2,24,25
 617 841 617 841 670.5 721.5 c 128,-1,26
 724 602 724 602 724 436 c 0,27,28
 724 160 724 160 642.5 70 c 128,-1,29
 561 -20 561 -20 400.5 -20 c 128,-1,30
 240 -20 240 -20 173 100 c 0,31,32
 130 177 130 177 117.5 277 c 128,-1,33
 105 377 105 377 105 523 c 2,34,-1
 105 705 l 1,35,-1
 251 705 l 1,36,-1
 251 526 l 2,37,38
 251 290 251 290 285 196 c 128,-1,39
 319 102 319 102 420 102 c 0,40,41
 495 102 495 102 526 141 c 128,-1,42
 557 180 557 180 564.5 248 c 128,-1,43
 572 316 572 316 572 451.5 c 128,-1,44
 572 587 572 587 538.5 671 c 128,-1,45
 505 755 505 755 419 834 c 2,46,-1
 315 930 l 2,47,48
 190 1046 190 1046 141 1141.5 c 128,-1,49
 92 1237 92 1237 92 1333 c 0,50,51
 92 1340 92 1340 91 1347 c 0,52,53
 92 1434 92 1434 98 1490 c 0,0,1
EndSplineSet
EndChar

StartChar: T
Encoding: 84 84 55
Width: 542
Flags: W
LayerCount: 2
UndoRedoHistory
Layer: 1
Undoes
EndUndoes
Redoes
EndRedoes
EndUndoRedoHistory
Fore
SplineSet
23 1760 m 1,0,-1
 520 1760 l 1,1,-1
 520 1644 l 1,2,-1
 355 1644 l 1,3,-1
 355 0 l 1,4,-1
 207 0 l 1,5,-1
 207 1644 l 1,6,-1
 23 1644 l 1,7,-1
 23 1760 l 1,0,-1
EndSplineSet
EndChar

StartChar: U
Encoding: 85 85 56
Width: 915
Flags: W
LayerCount: 2
UndoRedoHistory
Layer: 1
Undoes
EndUndoes
Redoes
EndRedoes
EndUndoRedoHistory
Fore
SplineSet
618 1760 m 1,0,-1
 767 1760 l 1,1,-1
 767 452 l 1,2,3
 766 206 766 206 703 93 c 128,-1,4
 640 -20 640 -20 458.5 -20 c 128,-1,5
 277 -20 277 -20 212.5 92.5 c 128,-1,6
 148 205 148 205 148 452 c 2,7,-1
 148 1760 l 1,8,-1
 297 1760 l 1,9,-1
 297 457 l 2,10,11
 298 274 298 274 308 235 c 0,12,13
 330 153 330 153 364.5 127.5 c 128,-1,14
 399 102 399 102 453 102 c 128,-1,15
 507 102 507 102 537.5 119 c 128,-1,16
 568 136 568 136 584 158 c 0,17,18
 618 205 618 205 618 456 c 2,19,-1
 618 1760 l 1,0,-1
EndSplineSet
EndChar

StartChar: V
Encoding: 86 86 57
Width: 846
Flags: W
LayerCount: 2
UndoRedoHistory
Layer: 1
Undoes
EndUndoes
Redoes
EndRedoes
EndUndoRedoHistory
Fore
SplineSet
656 1760 m 1,0,-1
 799 1760 l 1,1,-1
 515 0 l 1,2,-1
 360 0 l 1,3,-1
 47 1760 l 1,4,-1
 190 1760 l 1,5,-1
 436 318 l 1,6,-1
 437 318 l 1,7,-1
 656 1760 l 1,0,-1
EndSplineSet
EndChar

StartChar: W
Encoding: 87 87 58
Width: 1312
Flags: W
LayerCount: 2
UndoRedoHistory
Layer: 1
Undoes
EndUndoes
Redoes
EndRedoes
EndUndoRedoHistory
Fore
SplineSet
1114 1760 m 1,0,-1
 1255 1760 l 1,1,-1
 1042 0 l 1,2,-1
 895 0 l 1,3,-1
 677 1448 l 1,4,-1
 443 0 l 1,5,-1
 306 0 l 1,6,-1
 57 1760 l 1,7,-1
 203 1760 l 1,8,-1
 387 322 l 1,9,-1
 607 1760 l 1,10,-1
 731 1760 l 1,11,-1
 966 322 l 1,12,-1
 1114 1760 l 1,0,-1
EndSplineSet
EndChar

StartChar: X
Encoding: 88 88 59
Width: 710
Flags: W
LayerCount: 2
UndoRedoHistory
Layer: 1
Undoes
EndUndoes
Redoes
EndRedoes
EndUndoRedoHistory
Fore
SplineSet
437 853 m 1,0,-1
 656 0 l 1,1,-1
 523 0 l 1,2,-1
 347 680 l 1,3,-1
 176 0 l 1,4,-1
 52 0 l 1,5,-1
 285 919 l 1,6,-1
 67 1760 l 1,7,-1
 204 1760 l 1,8,-1
 373 1101 l 1,9,-1
 535 1760 l 1,10,-1
 659 1760 l 1,11,-1
 437 853 l 1,0,-1
EndSplineSet
EndChar

StartChar: Y
Encoding: 89 89 60
Width: 786
Flags: W
LayerCount: 2
UndoRedoHistory
Layer: 1
Undoes
EndUndoes
Redoes
EndRedoes
EndUndoRedoHistory
Fore
SplineSet
616 1760 m 1,0,-1
 770 1760 l 1,1,-1
 483 773 l 1,2,-1
 483 0 l 1,3,-1
 334 0 l 1,4,-1
 334 772 l 1,5,-1
 16 1760 l 1,6,-1
 166 1760 l 1,7,-1
 407 982 l 1,8,-1
 410 982 l 1,9,-1
 616 1760 l 1,0,-1
EndSplineSet
EndChar

StartChar: Z
Encoding: 90 90 61
Width: 638
Flags: WO
LayerCount: 2
UndoRedoHistory
Layer: 1
Undoes
EndUndoes
Redoes
EndRedoes
EndUndoRedoHistory
Fore
SplineSet
94 1760 m 1,0,-1
 576 1760 l 1,1,-1
 576 1658 l 1,2,-1
 235 118 l 1,3,-1
 570 118 l 1,4,-1
 570 0 l 1,5,-1
 85 0 l 1,6,-1
 85 125 l 1,7,-1
 424 1644 l 1,8,-1
 94 1644 l 1,9,-1
 94 1760 l 1,0,-1
EndSplineSet
EndChar

StartChar: bracketleft
Encoding: 91 91 62
Width: 589
Flags: W
LayerCount: 2
UndoRedoHistory
Layer: 1
Undoes
EndUndoes
Redoes
EndRedoes
EndUndoRedoHistory
Fore
SplineSet
166 1760 m 1,0,-1
 529 1760 l 1,1,-1
 529 1646 l 1,2,-1
 315 1646 l 1,3,-1
 315 35 l 1,4,-1
 529 35 l 1,5,-1
 529 -80 l 1,6,-1
 166 -80 l 1,7,-1
 166 1760 l 1,0,-1
EndSplineSet
EndChar

StartChar: backslash
Encoding: 92 92 63
Width: 726
Flags: W
LayerCount: 2
UndoRedoHistory
Layer: 1
Undoes
EndUndoes
Redoes
EndRedoes
EndUndoRedoHistory
Fore
SplineSet
94 1760 m 1,0,-1
 222 1760 l 1,1,-1
 632 0 l 1,2,-1
 505 0 l 1,3,-1
 94 1760 l 1,0,-1
EndSplineSet
EndChar

StartChar: bracketright
Encoding: 93 93 64
Width: 589
Flags: W
LayerCount: 2
UndoRedoHistory
Layer: 1
Undoes
EndUndoes
Redoes
EndRedoes
EndUndoRedoHistory
Fore
SplineSet
423 1760 m 1,0,-1
 423 -80 l 1,1,-1
 60 -80 l 1,2,-1
 60 35 l 1,3,-1
 274 35 l 1,4,-1
 274 1646 l 1,5,-1
 60 1646 l 1,6,-1
 60 1760 l 1,7,-1
 423 1760 l 1,0,-1
EndSplineSet
EndChar

StartChar: asciicircum
Encoding: 94 94 65
Width: 972
Flags: W
LayerCount: 2
UndoRedoHistory
Layer: 1
Undoes
EndUndoes
Redoes
EndRedoes
EndUndoRedoHistory
Fore
SplineSet
383 1760 m 1,0,-1
 589 1760 l 1,1,-1
 830 837 l 1,2,-1
 681 837 l 1,3,-1
 487 1648 l 1,4,-1
 293 837 l 1,5,-1
 142 837 l 1,6,-1
 383 1760 l 1,0,-1
EndSplineSet
EndChar

StartChar: underscore
Encoding: 95 95 66
Width: 748
Flags: W
LayerCount: 2
UndoRedoHistory
Layer: 1
Undoes
EndUndoes
Redoes
EndRedoes
EndUndoRedoHistory
Fore
SplineSet
48 -64 m 1,0,-1
 699 -64 l 1,1,-1
 699 -185 l 1,2,-1
 48 -185 l 1,3,-1
 48 -64 l 1,0,-1
EndSplineSet
EndChar

StartChar: grave
Encoding: 96 96 67
Width: 650
Flags: W
LayerCount: 2
UndoRedoHistory
Layer: 1
Undoes
EndUndoes
Redoes
EndRedoes
EndUndoRedoHistory
Fore
SplineSet
335 213 m 1,0,-1
 429 -119 l 1,1,-1
 360 -119 l 1,2,-1
 175 213 l 1,3,-1
 335 213 l 1,0,-1
EndSplineSet
EndChar

StartChar: a
Encoding: 97 97 68
Width: 844
Flags: W
LayerCount: 2
UndoRedoHistory
Layer: 1
Undoes
EndUndoes
Redoes
EndRedoes
EndUndoRedoHistory
Fore
SplineSet
563 837 m 1,0,1
 398 762 398 762 372 742 c 0,2,3
 313 698 313 698 303.5 675 c 128,-1,4
 294 652 294 652 285 621 c 128,-1,5
 276 590 276 590 275 509 c 1,6,-1
 275 390 l 2,7,8
 275 235 275 235 299 174 c 128,-1,9
 323 113 323 113 385 113 c 128,-1,10
 447 113 447 113 495 144 c 128,-1,11
 543 175 543 175 563 211 c 1,12,-1
 563 837 l 1,0,1
145 1051 m 2,13,14
 145 1214 145 1214 154 1261.5 c 128,-1,15
 163 1309 163 1309 173.5 1344.5 c 128,-1,16
 184 1380 184 1380 198.5 1403 c 128,-1,17
 213 1426 213 1426 234.5 1450 c 128,-1,18
 256 1474 256 1474 284 1487.5 c 128,-1,19
 312 1501 312 1501 349.5 1509.5 c 128,-1,20
 387 1518 387 1518 433 1518 c 128,-1,21
 479 1518 479 1518 516 1510 c 128,-1,22
 553 1502 553 1502 581 1492 c 128,-1,23
 609 1482 609 1482 629.5 1456.5 c 128,-1,24
 650 1431 650 1431 664 1412 c 128,-1,25
 678 1393 678 1393 688 1350 c 0,26,27
 712 1239 712 1239 712 1043 c 2,28,-1
 712 0 l 1,29,-1
 563 0 l 1,30,-1
 563 112 l 1,31,32
 550 72 550 72 498.5 30.5 c 128,-1,33
 447 -11 447 -11 366 -11 c 0,34,35
 248 -11 248 -11 187.5 88.5 c 128,-1,36
 127 188 127 188 127 377 c 2,37,-1
 127 569 l 2,38,39
 127 672 127 672 176.5 729 c 128,-1,40
 226 786 226 786 262 809 c 0,41,42
 352 866 352 866 451 908 c 2,43,-1
 563 956 l 1,44,-1
 563 1124 l 2,45,46
 563 1269 563 1269 552 1295 c 0,47,48
 528 1353 528 1353 518 1359.5 c 128,-1,49
 508 1366 508 1366 491.5 1376 c 128,-1,50
 475 1386 475 1386 433 1387 c 1,51,52
 344 1387 344 1387 319.5 1316.5 c 128,-1,53
 295 1246 295 1246 295 1048 c 2,54,-1
 295 1011 l 1,55,-1
 145 1011 l 1,56,-1
 145 1051 l 2,13,14
EndSplineSet
EndChar

StartChar: b
Encoding: 98 98 69
Width: 874
Flags: W
LayerCount: 2
UndoRedoHistory
Layer: 1
Undoes
EndUndoes
Redoes
EndRedoes
EndUndoRedoHistory
Fore
SplineSet
160 1783 m 1,0,-1
 309 1783 l 1,1,-1
 309 1372 l 1,2,3
 320 1432 320 1432 373 1475 c 128,-1,4
 426 1518 426 1518 488 1518 c 0,5,6
 552 1518 552 1518 598 1494 c 0,7,8
 686 1448 686 1448 716 1325 c 0,9,10
 746 1201 746 1201 746 1012 c 2,11,-1
 746 490 l 2,12,13
 746 234 746 234 707 135 c 128,-1,14
 668 36 668 36 600 6 c 0,15,16
 562 -10 562 -10 510 -11 c 1,17,18
 363 -11 363 -11 309 114 c 1,19,-1
 309 0 l 1,20,-1
 160 0 l 1,21,-1
 160 1783 l 1,0,-1
597 1061 m 2,22,23
 597 1237 597 1237 582 1280 c 128,-1,24
 567 1323 567 1323 553 1345 c 0,25,26
 527 1386 527 1386 480 1386 c 0,27,28
 436 1386 436 1386 414 1380 c 0,29,30
 358 1365 358 1365 333 1294 c 0,31,32
 309 1226 309 1226 309 1072 c 0,33,34
 309 1066 309 1066 309 1059 c 1,35,-1
 309 460 l 1,36,37
 310 271 310 271 340 193 c 128,-1,38
 370 115 370 115 454 115 c 1,39,-1
 455 116 l 1,40,41
 540 116 540 116 568.5 194 c 128,-1,42
 597 272 597 272 597 466 c 2,43,-1
 597 1061 l 2,22,23
EndSplineSet
EndChar

StartChar: c
Encoding: 99 99 70
Width: 803
Flags: W
LayerCount: 2
UndoRedoHistory
Layer: 1
Undoes
EndUndoes
Redoes
EndRedoes
EndUndoRedoHistory
Fore
SplineSet
128 1028 m 2,0,1
 128 1278 128 1278 178 1375 c 128,-1,2
 228 1472 228 1472 312 1500 c 0,3,4
 361 1516 361 1516 422 1517 c 128,-1,5
 483 1518 483 1518 526.5 1504.5 c 128,-1,6
 570 1491 570 1491 599 1472 c 128,-1,7
 628 1453 628 1453 648 1413 c 128,-1,8
 668 1373 668 1373 678 1341 c 0,9,10
 700 1271 700 1271 700 1020 c 2,11,-1
 700 973 l 1,12,-1
 549 973 l 1,13,-1
 549 1065 l 2,14,15
 549 1239 549 1239 537 1291 c 0,16,17
 515 1381 515 1381 426 1381 c 0,18,19
 317 1381 317 1381 291 1255 c 0,20,21
 277 1187 277 1187 277 1057 c 2,22,-1
 277 455 l 2,23,24
 277 252 277 252 292.5 213.5 c 128,-1,25
 308 175 308 175 324 155 c 0,26,27
 352 119 352 119 422 119 c 0,28,29
 423 120 423 120 424 120 c 0,30,31
 496 120 496 120 521 183 c 128,-1,32
 546 246 546 246 547.5 321 c 128,-1,33
 549 396 549 396 549 449 c 2,34,-1
 549 562 l 1,35,-1
 700 562 l 1,36,-1
 700 517 l 2,37,38
 700 292 700 292 685 209 c 0,39,40
 646 -18 646 -18 432 -18 c 0,41,42
 250 -18 250 -18 190 94 c 0,43,44
 149 170 149 170 138.5 265.5 c 128,-1,45
 128 361 128 361 128 511 c 2,46,-1
 128 1028 l 2,0,1
EndSplineSet
EndChar

StartChar: d
Encoding: 100 100 71
Width: 855
Flags: W
LayerCount: 2
UndoRedoHistory
Layer: 1
Undoes
EndUndoes
Redoes
EndRedoes
EndUndoRedoHistory
Fore
SplineSet
564 1783 m 1,0,-1
 714 1783 l 1,1,-1
 714 0 l 1,2,-1
 564 0 l 1,3,-1
 564 114 l 1,4,5
 512 -11 512 -11 365 -11 c 0,6,7
 198 -10 198 -10 153 188 c 0,8,9
 128 297 128 297 128 481 c 2,10,-1
 128 1008 l 2,11,12
 128 1310 128 1310 200.5 1414 c 128,-1,13
 273 1518 273 1518 405 1518 c 0,14,15
 456 1518 456 1518 499.5 1481.5 c 128,-1,16
 543 1445 543 1445 564 1393 c 1,17,-1
 564 1783 l 1,0,-1
565 1037 m 1,18,19
 565 1043 565 1043 565 1050 c 0,20,21
 564 1234 564 1234 536 1308 c 0,22,23
 506 1386 506 1386 422 1385 c 1,24,-1
 421 1384 l 1,25,26
 336 1384 336 1384 307 1305 c 128,-1,27
 278 1226 278 1226 278 1030 c 2,28,-1
 278 436 l 2,29,30
 278 230 278 230 310.5 172 c 128,-1,31
 343 114 343 114 407 114 c 128,-1,32
 471 114 471 114 498.5 137.5 c 128,-1,33
 526 161 526 161 545.5 216 c 128,-1,34
 565 271 565 271 565 434 c 2,35,-1
 565 1037 l 1,18,19
EndSplineSet
EndChar

StartChar: e
Encoding: 101 101 72
Width: 802
Flags: W
LayerCount: 2
UndoRedoHistory
Layer: 1
Undoes
EndUndoes
Redoes
EndRedoes
EndUndoRedoHistory
Fore
SplineSet
128 1014 m 2,0,1
 128 1276 128 1276 177 1373 c 128,-1,2
 226 1470 226 1470 310 1500 c 0,3,4
 360 1517 360 1517 425.5 1516.5 c 128,-1,5
 491 1516 491 1516 539 1500 c 128,-1,6
 587 1484 587 1484 616 1447 c 0,7,8
 640 1417 640 1417 662 1371 c 0,9,10
 698 1296 698 1296 698 1002 c 2,11,-1
 698 752 l 1,12,-1
 277 752 l 1,13,-1
 277 450 l 1,14,15
 277 444 277 444 277 437 c 0,16,17
 277 216 277 216 311 166 c 0,18,19
 346 114 346 114 414 113.5 c 128,-1,20
 482 113 482 113 509.5 155 c 128,-1,21
 537 197 537 197 543 263.5 c 128,-1,22
 549 330 549 330 549 444 c 2,23,-1
 549 556 l 1,24,-1
 694 556 l 1,25,-1
 694 507 l 2,26,27
 694 285 694 285 679 203 c 0,28,29
 641 -18 641 -18 432 -18 c 0,30,31
 250 -18 250 -18 190 94 c 0,32,33
 150 168 150 168 139 263 c 128,-1,34
 128 358 128 358 128 511 c 2,35,-1
 128 1014 l 2,0,1
549 877 m 1,36,-1
 549 1078 l 2,37,38
 549 1247 549 1247 536 1299 c 0,39,40
 514 1387 514 1387 426 1387 c 1,41,42
 424 1387 424 1387 423 1387 c 0,43,44
 359 1387 359 1387 328 1345 c 0,45,46
 296 1302 296 1302 286.5 1233 c 128,-1,47
 277 1164 277 1164 277 1060 c 2,48,-1
 277 877 l 1,49,-1
 549 877 l 1,36,-1
EndSplineSet
EndChar

StartChar: f
Encoding: 102 102 73
Width: 608
Flags: W
LayerCount: 2
UndoRedoHistory
Layer: 1
Undoes
EndUndoes
Redoes
EndRedoes
EndUndoRedoHistory
Fore
SplineSet
219 1512 m 2,0,1
 219 1650 219 1650 268 1719.5 c 128,-1,2
 317 1789 317 1789 433 1789 c 0,3,4
 514 1789 514 1789 568 1771 c 1,5,-1
 568 1650 l 1,6,7
 523 1657 523 1657 467 1657 c 0,8,9
 411 1657 411 1657 390 1627.5 c 128,-1,10
 369 1598 369 1598 369 1534 c 2,11,-1
 369 1442 l 1,12,-1
 568 1442 l 1,13,-1
 568 1329 l 1,14,-1
 369 1329 l 1,15,-1
 369 0 l 1,16,-1
 219 0 l 1,17,-1
 219 1329 l 1,18,-1
 79 1329 l 1,19,-1
 79 1442 l 1,20,-1
 219 1442 l 1,21,-1
 219 1512 l 2,0,1
EndSplineSet
EndChar

StartChar: g
Encoding: 103 103 74
Width: 858
Flags: W
LayerCount: 2
UndoRedoHistory
Layer: 1
Undoes
EndUndoes
Redoes
EndRedoes
EndUndoRedoHistory
Fore
SplineSet
402 1518 m 0,0,1
 525 1518 525 1518 565 1412 c 1,2,-1
 565 1500 l 1,3,-1
 714 1500 l 1,4,-1
 714 97 l 2,5,6
 714 -126 714 -126 548 -204 c 0,7,8
 486 -233 486 -233 401 -233 c 1,9,-1
 265 -212 l 1,10,11
 186 -188 186 -188 134 -147 c 1,12,-1
 191 -32 l 1,13,14
 289 -105 289 -105 411 -105 c 0,15,16
 488 -105 488 -105 526.5 -54.5 c 128,-1,17
 565 -4 565 -4 565 80 c 2,18,-1
 565 245 l 1,19,20
 535 178 535 178 489.5 152.5 c 128,-1,21
 444 127 444 127 382 127 c 0,22,23
 320 126 320 126 274 152 c 0,24,25
 190 199 190 199 159 321.5 c 128,-1,26
 128 444 128 444 128 632 c 2,27,-1
 128 1013 l 2,28,29
 128 1236 128 1236 192 1377 c 128,-1,30
 256 1518 256 1518 402 1518 c 0,0,1
565 1050 m 1,31,32
 564 1276 564 1276 529 1332 c 128,-1,33
 494 1388 494 1388 421 1388 c 128,-1,34
 348 1388 348 1388 316.5 1333.5 c 128,-1,35
 285 1279 285 1279 281 1199 c 128,-1,36
 277 1119 277 1119 277 1052 c 2,37,-1
 277 611 l 2,38,39
 277 418 277 418 310.5 336.5 c 128,-1,40
 344 255 344 255 436 255 c 1,41,42
 484 256 484 256 510 282 c 0,43,44
 565 338 565 338 565 614 c 2,45,-1
 565 1050 l 1,31,32
EndSplineSet
EndChar

StartChar: h
Encoding: 104 104 75
Width: 921
Flags: W
LayerCount: 2
UndoRedoHistory
Layer: 1
Undoes
EndUndoes
Redoes
EndRedoes
EndUndoRedoHistory
Fore
SplineSet
502 1381 m 0,0,1
 308 1381 308 1381 309 1191 c 1,2,-1
 309 0 l 1,3,-1
 160 0 l 1,4,-1
 160 1783 l 1,5,-1
 309 1783 l 1,6,-1
 309 1353 l 1,7,8
 329 1420 329 1420 398.5 1469.5 c 128,-1,9
 468 1519 468 1519 561 1519 c 128,-1,10
 654 1519 654 1519 713.5 1442 c 128,-1,11
 773 1365 773 1365 773 1211 c 2,12,-1
 773 0 l 1,13,-1
 623 0 l 1,14,-1
 623 1201 l 2,15,16
 623 1303 623 1303 587.5 1342 c 128,-1,17
 552 1381 552 1381 502 1381 c 0,0,1
EndSplineSet
EndChar

StartChar: i
Encoding: 105 105 76
Width: 460
Flags: W
LayerCount: 2
UndoRedoHistory
Layer: 1
Undoes
EndUndoes
Redoes
EndRedoes
EndUndoRedoHistory
Fore
SplineSet
159 1783 m 1,0,-1
 308 1783 l 1,1,-1
 308 1638 l 1,2,-1
 159 1638 l 1,3,-1
 159 1783 l 1,0,-1
159 1500 m 1,4,-1
 309 1500 l 1,5,-1
 309 0 l 1,6,-1
 159 0 l 1,7,-1
 159 1500 l 1,4,-1
EndSplineSet
EndChar

StartChar: j
Encoding: 106 106 77
Width: 479
Flags: W
LayerCount: 2
UndoRedoHistory
Layer: 1
Undoes
EndUndoes
Redoes
EndRedoes
EndUndoRedoHistory
Fore
SplineSet
274 -185 m 0,0,1
 252 -203 252 -203 229 -213.5 c 128,-1,2
 206 -224 206 -224 154 -224 c 128,-1,3
 102 -224 102 -224 72 -218 c 1,4,-1
 68 -218 l 1,5,-1
 68 -110 l 1,6,7
 88 -114 88 -114 106 -114 c 128,-1,8
 124 -114 124 -114 140 -111 c 0,9,10
 176 -105 176 -105 176 -44 c 2,11,-1
 176 1500 l 1,12,-1
 325 1500 l 1,13,-1
 325 -34 l 1,14,15
 324 -145 324 -145 274 -185 c 0,0,1
177 1783 m 1,16,-1
 326 1783 l 1,17,-1
 326 1638 l 1,18,-1
 177 1638 l 1,19,-1
 177 1783 l 1,16,-1
EndSplineSet
EndChar

StartChar: k
Encoding: 107 107 78
Width: 835
Flags: W
LayerCount: 2
UndoRedoHistory
Layer: 1
Undoes
EndUndoes
Redoes
EndRedoes
EndUndoRedoHistory
Fore
SplineSet
160 1783 m 1,0,-1
 309 1783 l 1,1,-1
 309 760 l 1,2,-1
 640 1500 l 1,3,-1
 789 1500 l 1,4,-1
 448 756 l 1,5,-1
 807 0 l 1,6,-1
 651 0 l 1,7,-1
 309 742 l 1,8,-1
 309 0 l 1,9,-1
 160 0 l 1,10,-1
 160 1783 l 1,0,-1
EndSplineSet
EndChar

StartChar: l
Encoding: 108 108 79
Width: 465
Flags: W
LayerCount: 2
UndoRedoHistory
Layer: 1
Undoes
EndUndoes
Redoes
EndRedoes
EndUndoRedoHistory
Fore
SplineSet
162 1783 m 1,0,-1
 312 1783 l 1,1,-1
 312 0 l 1,2,-1
 162 0 l 1,3,-1
 162 1783 l 1,0,-1
EndSplineSet
EndChar

StartChar: m
Encoding: 109 109 80
Width: 1360
Flags: W
LayerCount: 2
UndoRedoHistory
Layer: 1
Undoes
EndUndoes
Redoes
EndRedoes
EndUndoRedoHistory
Fore
SplineSet
1062 1226 m 2,0,1
 1062 1381 1062 1381 925 1381 c 0,2,3
 810 1381 810 1381 778 1314 c 0,4,5
 764 1284 764 1284 760 1239 c 1,6,-1
 760 0 l 1,7,-1
 611 0 l 1,8,-1
 611 1226 l 2,9,10
 611 1312 611 1312 575.5 1346.5 c 128,-1,11
 540 1381 540 1381 467.5 1381 c 128,-1,12
 395 1381 395 1381 352 1337.5 c 128,-1,13
 309 1294 309 1294 309 1209 c 2,14,-1
 309 0 l 1,15,-1
 160 0 l 1,16,-1
 160 1500 l 1,17,-1
 309 1500 l 1,18,-1
 309 1351 l 1,19,20
 329 1419 329 1419 392.5 1469 c 128,-1,21
 456 1519 456 1519 538 1519 c 0,22,23
 688 1519 688 1519 739 1367 c 1,24,25
 776 1435 776 1435 844 1477 c 128,-1,26
 912 1519 912 1519 1002 1519 c 128,-1,27
 1092 1519 1092 1519 1152 1444 c 128,-1,28
 1212 1369 1212 1369 1212 1217 c 2,29,-1
 1212 0 l 1,30,-1
 1062 0 l 1,31,-1
 1062 1226 l 2,0,1
EndSplineSet
EndChar

StartChar: n
Encoding: 110 110 81
Width: 920
Flags: W
LayerCount: 2
UndoRedoHistory
Layer: 1
Undoes
EndUndoes
Redoes
EndRedoes
EndUndoRedoHistory
Fore
SplineSet
309 1353 m 1,0,1
 329 1420 329 1420 397.5 1469.5 c 128,-1,2
 466 1519 466 1519 559 1519 c 0,3,4
 652 1519 652 1519 712 1442 c 128,-1,5
 772 1365 772 1365 772 1211 c 2,6,-1
 772 0 l 1,7,-1
 623 0 l 1,8,-1
 623 1223 l 2,9,10
 623 1310 623 1310 583.5 1348.5 c 128,-1,11
 544 1387 544 1387 478 1387 c 0,12,13
 309 1387 309 1387 309 1220 c 2,14,-1
 309 0 l 1,15,-1
 160 0 l 1,16,-1
 160 1500 l 1,17,-1
 309 1500 l 1,18,-1
 309 1353 l 1,0,1
EndSplineSet
EndChar

StartChar: o
Encoding: 111 111 82
Width: 845
Flags: W
LayerCount: 2
UndoRedoHistory
Layer: 1
Undoes
EndUndoes
Redoes
EndRedoes
EndUndoRedoHistory
Fore
SplineSet
128 1018 m 2,0,1
 128 1278 128 1278 176 1375 c 128,-1,2
 224 1472 224 1472 310 1500 c 0,3,4
 360 1516 360 1516 421.5 1517 c 128,-1,5
 483 1518 483 1518 527 1504.5 c 128,-1,6
 571 1491 571 1491 602 1469 c 0,7,8
 632 1448 632 1448 654 1410 c 0,9,10
 696 1338 696 1338 706 1243 c 0,11,12
 716 1150 716 1150 717 1018 c 1,13,-1
 717 515 l 2,14,15
 717 338 717 338 709.5 285.5 c 128,-1,16
 702 233 702 233 695 195.5 c 128,-1,17
 688 158 688 158 676.5 133.5 c 128,-1,18
 665 109 665 109 649 82 c 0,19,20
 624 40 624 40 568.5 11 c 128,-1,21
 513 -18 513 -18 444 -18 c 128,-1,22
 375 -18 375 -18 334 -8.5 c 128,-1,23
 293 1 293 1 262.5 22 c 128,-1,24
 232 43 232 43 210 68 c 0,25,26
 188 92 188 92 173 132 c 0,27,28
 143 212 143 212 135.5 301.5 c 128,-1,29
 128 391 128 391 128 515 c 2,30,-1
 128 1018 l 2,0,1
568 1053 m 2,31,32
 568 1311 568 1311 500 1364 c 0,33,34
 470 1387 470 1387 428 1387 c 0,35,36
 313 1387 313 1387 290 1255 c 1,37,38
 277 1187 277 1187 277 1070 c 0,39,40
 277 1062 277 1062 277 1053 c 1,41,-1
 277 463 l 2,42,43
 276 242 276 242 314 177 c 0,44,45
 351 113 351 113 424 113 c 0,46,47
 425 113 425 113 426 113 c 129,-1,48
 427 113 427 113 428 113 c 0,49,50
 516 114 516 114 542 204 c 0,51,52
 568 296 568 296 568 463 c 2,53,-1
 568 1053 l 2,31,32
EndSplineSet
EndChar

StartChar: p
Encoding: 112 112 83
Width: 876
Flags: W
LayerCount: 2
UndoRedoHistory
Layer: 1
Undoes
EndUndoes
Redoes
EndRedoes
EndUndoRedoHistory
Fore
SplineSet
312 1385 m 1,0,1
 365 1511 365 1511 511 1511 c 1,2,3
 614 1510 614 1510 665 1442.5 c 128,-1,4
 716 1375 716 1375 732 1268.5 c 128,-1,5
 748 1162 748 1162 748 1013 c 2,6,-1
 748 475 l 2,7,8
 748 186 748 186 666 74 c 1,9,10
 600 -18 600 -18 472 -18 c 0,11,12
 421 -18 421 -18 376.5 18.5 c 128,-1,13
 332 55 332 55 312 108 c 1,14,-1
 312 -265 l 1,15,-1
 163 -265 l 1,16,-1
 163 1500 l 1,17,-1
 312 1500 l 1,18,-1
 312 1385 l 1,0,1
599 1061 m 2,19,20
 599 1237 599 1237 584.5 1280.5 c 128,-1,21
 570 1324 570 1324 550 1355 c 128,-1,22
 530 1386 530 1386 484 1386 c 128,-1,23
 438 1386 438 1386 416 1380 c 0,24,25
 362 1365 362 1365 337 1293.5 c 128,-1,26
 312 1222 312 1222 312 1059 c 2,27,-1
 312 463 l 2,28,29
 312 272 312 272 342 194 c 128,-1,30
 372 116 372 116 457 115 c 1,31,-1
 458 116 l 1,32,33
 543 116 543 116 571 193.5 c 128,-1,34
 599 271 599 271 599 468 c 2,35,-1
 599 1061 l 2,19,20
EndSplineSet
EndChar

StartChar: q
Encoding: 113 113 84
Width: 853
Flags: W
LayerCount: 2
UndoRedoHistory
Layer: 1
Undoes
EndUndoes
Redoes
EndRedoes
EndUndoRedoHistory
Fore
SplineSet
128 1013 m 2,0,1
 128 1268 128 1268 167 1367 c 128,-1,2
 206 1466 206 1466 274 1494 c 0,3,4
 312 1510 312 1510 364 1511 c 1,5,6
 511 1511 511 1511 565 1381 c 1,7,-1
 565 1500 l 1,8,-1
 715 1500 l 1,9,-1
 715 -265 l 1,10,-1
 565 -265 l 1,11,-1
 565 106 l 1,12,13
 543 53 543 53 499 17.5 c 128,-1,14
 455 -18 455 -18 388.5 -18 c 128,-1,15
 322 -18 322 -18 266 19 c 0,16,17
 128 110 128 110 128 479 c 2,18,-1
 128 1013 l 2,0,1
564 1037 m 2,19,20
 564 1269 564 1269 524.5 1327 c 128,-1,21
 485 1385 485 1385 410 1385 c 1,22,23
 409 1384 409 1384 408 1384 c 0,24,25
 332 1384 332 1384 304 1306 c 128,-1,26
 276 1228 276 1228 276 1031 c 2,27,-1
 276 437 l 2,28,29
 276 229 276 229 308 171.5 c 128,-1,30
 340 114 340 114 404.5 114 c 128,-1,31
 469 114 469 114 496.5 139 c 128,-1,32
 524 164 524 164 536 199 c 0,33,34
 564 276 564 276 564 441 c 2,35,-1
 564 1037 l 2,19,20
EndSplineSet
EndChar

StartChar: r
Encoding: 114 114 85
Width: 605
Flags: W
LayerCount: 2
UndoRedoHistory
Layer: 1
Undoes
EndUndoes
Redoes
EndRedoes
EndUndoRedoHistory
Fore
SplineSet
564 1518 m 0,0,1
 568 1518 568 1518 568 1422 c 1,2,-1
 567 1391 l 1,3,4
 488 1391 488 1391 427.5 1359.5 c 128,-1,5
 367 1328 367 1328 309 1246 c 1,6,-1
 309 0 l 1,7,-1
 160 0 l 1,8,-1
 160 1500 l 1,9,-1
 309 1500 l 1,10,-1
 309 1333 l 1,11,12
 335 1421 335 1421 400.5 1469.5 c 128,-1,13
 466 1518 466 1518 564 1518 c 0,0,1
EndSplineSet
EndChar

StartChar: s
Encoding: 115 115 86
Width: 744
Flags: W
LayerCount: 2
UndoRedoHistory
Layer: 1
Undoes
EndUndoes
Redoes
EndRedoes
EndUndoRedoHistory
Fore
SplineSet
375 1518 m 0,0,1
 653 1518 653 1518 653 1063 c 0,2,3
 653 1057 653 1057 653 1051 c 1,4,-1
 653 957 l 1,5,-1
 513 957 l 1,6,-1
 513 1078 l 2,7,8
 513 1235 513 1235 480.5 1308 c 128,-1,9
 448 1381 448 1381 378 1381 c 0,10,11
 243 1381 243 1381 243 1150 c 0,12,13
 243 1073 243 1073 271 1011.5 c 128,-1,14
 299 950 299 950 386 864 c 2,15,-1
 491 761 l 1,16,17
 683 575 683 575 683 325 c 0,18,19
 683 165 683 165 614 72.5 c 128,-1,20
 545 -20 545 -20 397 -20 c 128,-1,21
 249 -20 249 -20 175.5 82 c 128,-1,22
 102 184 102 184 102 407 c 2,23,-1
 102 536 l 1,24,-1
 251 536 l 1,25,-1
 251 433 l 2,26,27
 251 116 251 116 393 116 c 0,28,29
 467 116 467 116 498 164 c 128,-1,30
 529 212 529 212 529 324.5 c 128,-1,31
 529 437 529 437 504 510.5 c 128,-1,32
 479 584 479 584 388 670 c 2,33,-1
 277 775 l 2,34,35
 93 948 93 948 93 1186 c 0,36,37
 93 1349 93 1349 169 1433.5 c 128,-1,38
 245 1518 245 1518 375 1518 c 0,0,1
EndSplineSet
EndChar

StartChar: t
Encoding: 116 116 87
Width: 585
Flags: W
LayerCount: 2
UndoRedoHistory
Layer: 1
Undoes
EndUndoes
Redoes
EndRedoes
EndUndoRedoHistory
Fore
SplineSet
201 1760 m 1,0,-1
 351 1760 l 1,1,-1
 351 1500 l 1,2,-1
 528 1500 l 1,3,-1
 528 1384 l 1,4,-1
 351 1384 l 1,5,-1
 351 209 l 2,6,7
 350 134 350 134 392 126 c 0,8,9
 429 118 429 118 508 118 c 0,10,11
 517 118 517 118 527 118 c 1,12,-1
 527 -9 l 1,13,-1
 423 -9 l 2,14,15
 281 -9 281 -9 240 41 c 0,16,17
 216 70 216 70 208.5 109.5 c 128,-1,18
 201 149 201 149 201 217 c 2,19,-1
 201 1384 l 1,20,-1
 51 1384 l 1,21,-1
 51 1500 l 1,22,-1
 201 1500 l 1,23,-1
 201 1760 l 1,0,-1
EndSplineSet
EndChar

StartChar: u
Encoding: 117 117 88
Width: 914
Flags: W
LayerCount: 2
UndoRedoHistory
Layer: 1
Undoes
EndUndoes
Redoes
EndRedoes
EndUndoRedoHistory
Fore
SplineSet
297 292 m 2,0,1
 296 119 296 119 448 119 c 0,2,3
 522 119 522 119 567 168.5 c 128,-1,4
 612 218 612 218 612 303 c 2,5,-1
 610 1500 l 1,6,-1
 761 1500 l 1,7,-1
 761 0 l 1,8,-1
 612 0 l 1,9,-1
 612 150 l 1,10,11
 593 82 593 82 530.5 31 c 128,-1,12
 468 -20 468 -20 386 -20 c 128,-1,13
 304 -20 304 -20 226 47 c 128,-1,14
 148 114 148 114 148 285 c 2,15,-1
 148 1500 l 1,16,-1
 297 1500 l 1,17,-1
 297 292 l 2,0,1
EndSplineSet
EndChar

StartChar: v
Encoding: 118 118 89
Width: 718
Flags: W
LayerCount: 2
UndoRedoHistory
Layer: 1
Undoes
EndUndoes
Redoes
EndRedoes
EndUndoRedoHistory
Fore
SplineSet
524 1500 m 1,0,-1
 660 1500 l 1,1,-1
 436 0 l 1,2,-1
 287 0 l 1,3,-1
 58 1500 l 1,4,-1
 194 1500 l 1,5,-1
 312 690 l 1,6,-1
 363 241 l 1,7,-1
 369 241 l 1,8,-1
 414 691 l 1,9,-1
 524 1500 l 1,0,-1
EndSplineSet
EndChar

StartChar: w
Encoding: 119 119 90
Width: 1080
Flags: W
LayerCount: 2
UndoRedoHistory
Layer: 1
Undoes
EndUndoes
Redoes
EndRedoes
EndUndoRedoHistory
Fore
SplineSet
888 1500 m 1,0,-1
 1020 1500 l 1,1,-1
 846 0 l 1,2,-1
 698 0 l 1,3,-1
 551 1283 l 1,4,-1
 378 0 l 1,5,-1
 236 0 l 1,6,-1
 60 1500 l 1,7,-1
 197 1500 l 1,8,-1
 287 613 l 1,9,-1
 311 302 l 1,10,-1
 323 302 l 1,11,-1
 353 614 l 1,12,-1
 479 1500 l 1,13,-1
 606 1500 l 1,14,-1
 743 646 l 1,15,-1
 783 302 l 1,16,-1
 793 302 l 1,17,-1
 813 648 l 1,18,-1
 888 1500 l 1,0,-1
EndSplineSet
EndChar

StartChar: x
Encoding: 120 120 91
Width: 668
Flags: W
LayerCount: 2
UndoRedoHistory
Layer: 1
Undoes
EndUndoes
Redoes
EndRedoes
EndUndoRedoHistory
Fore
SplineSet
400 779 m 1,0,-1
 636 0 l 1,1,-1
 497 0 l 1,2,-1
 326 574 l 1,3,-1
 165 0 l 1,4,-1
 33 0 l 1,5,-1
 270 762 l 1,6,-1
 51 1500 l 1,7,-1
 181 1500 l 1,8,-1
 341 973 l 1,9,-1
 490 1500 l 1,10,-1
 632 1500 l 1,11,-1
 400 779 l 1,0,-1
EndSplineSet
EndChar

StartChar: y
Encoding: 121 121 92
Width: 745
Flags: W
LayerCount: 2
UndoRedoHistory
Layer: 1
Undoes
EndUndoes
Redoes
EndRedoes
EndUndoRedoHistory
Fore
SplineSet
544 1500 m 1,0,-1
 693 1500 l 1,1,-1
 454 3 l 1,2,3
 431 -151 431 -151 401 -188 c 0,4,5
 371 -225 371 -225 333.5 -231.5 c 128,-1,6
 296 -238 296 -238 257 -238 c 2,7,-1
 133 -238 l 1,8,-1
 133 -110 l 1,9,-1
 188 -110 l 2,10,11
 294 -110 294 -110 311 -99 c 1,12,13
 325 -85 325 -85 325 -59 c 0,14,15
 325 -33 325 -33 322 -15 c 0,16,17
 319 3 319 3 314 38 c 2,18,-1
 64 1500 l 1,19,-1
 214 1500 l 1,20,-1
 333 707 l 1,21,-1
 381 299 l 1,22,-1
 394 299 l 1,23,-1
 437 707 l 1,24,-1
 544 1500 l 1,0,-1
EndSplineSet
EndChar

StartChar: z
Encoding: 122 122 93
Width: 621
Flags: W
LayerCount: 2
UndoRedoHistory
Layer: 1
Undoes
EndUndoes
Redoes
EndRedoes
EndUndoRedoHistory
Fore
SplineSet
105 1500 m 1,0,-1
 568 1500 l 1,1,-1
 568 1407 l 1,2,-1
 234 130 l 1,3,-1
 548 130 l 1,4,-1
 548 0 l 1,5,-1
 80 0 l 1,6,-1
 80 108 l 1,7,-1
 409 1371 l 1,8,-1
 105 1371 l 1,9,-1
 105 1500 l 1,0,-1
EndSplineSet
EndChar

StartChar: braceleft
Encoding: 123 123 94
Width: 628
Flags: W
LayerCount: 2
UndoRedoHistory
Layer: 1
Undoes
EndUndoes
Redoes
EndRedoes
EndUndoRedoHistory
Fore
SplineSet
450 -81 m 2,0,1
 316 -81 316 -81 269 -10 c 128,-1,2
 222 61 222 61 222 258 c 2,3,-1
 222 553 l 2,4,5
 222 714 222 714 202.5 753 c 128,-1,6
 183 792 183 792 157.5 801 c 128,-1,7
 132 810 132 810 84 810 c 1,8,-1
 84 891 l 1,9,10
 132 891 132 891 157 900 c 128,-1,11
 182 909 182 909 202 948 c 128,-1,12
 222 987 222 987 222 1148 c 2,13,-1
 222 1443 l 2,14,15
 222 1640 222 1640 269 1711.5 c 128,-1,16
 316 1783 316 1783 450 1783 c 2,17,-1
 510 1783 l 1,18,-1
 510 1658 l 1,19,20
 418 1658 418 1658 394 1617 c 128,-1,21
 370 1576 370 1576 370 1430 c 2,22,-1
 370 1164 l 2,23,24
 370 1017 370 1017 346.5 951 c 128,-1,25
 323 885 323 885 251 850 c 1,26,27
 323 816 323 816 346.5 750 c 128,-1,28
 370 684 370 684 370 537 c 2,29,-1
 370 271 l 2,30,31
 370 125 370 125 394 84 c 128,-1,32
 418 43 418 43 510 43 c 1,33,-1
 510 -81 l 1,34,-1
 450 -81 l 2,0,1
EndSplineSet
EndChar

StartChar: bar
Encoding: 124 124 95
Width: 481
Flags: W
LayerCount: 2
UndoRedoHistory
Layer: 1
Undoes
EndUndoes
Redoes
EndRedoes
EndUndoRedoHistory
Fore
SplineSet
166 1783 m 1,0,-1
 315 1783 l 1,1,-1
 315 -134 l 1,2,-1
 166 -134 l 1,3,-1
 166 1783 l 1,0,-1
EndSplineSet
EndChar

StartChar: braceright
Encoding: 125 125 96
Width: 628
Flags: W
LayerCount: 2
UndoRedoHistory
Layer: 1
Undoes
EndUndoes
Redoes
EndRedoes
EndUndoRedoHistory
Fore
SplineSet
178 -81 m 2,0,-1
 118 -81 l 1,1,-1
 118 43 l 1,2,3
 210 43 210 43 234 84 c 128,-1,4
 258 125 258 125 258 271 c 2,5,-1
 258 537 l 2,6,7
 258 684 258 684 281.5 750 c 128,-1,8
 305 816 305 816 377 850 c 1,9,10
 305 885 305 885 281.5 951 c 128,-1,11
 258 1017 258 1017 258 1164 c 2,12,-1
 258 1430 l 2,13,14
 258 1576 258 1576 234 1617 c 128,-1,15
 210 1658 210 1658 118 1658 c 1,16,-1
 118 1783 l 1,17,-1
 178 1783 l 2,18,19
 312 1783 312 1783 359 1711.5 c 128,-1,20
 406 1640 406 1640 406 1443 c 2,21,-1
 406 1148 l 2,22,23
 406 987 406 987 425.5 948 c 128,-1,24
 445 909 445 909 470.5 900 c 128,-1,25
 496 891 496 891 544 891 c 1,26,-1
 544 810 l 1,27,28
 496 810 496 810 471 801 c 128,-1,29
 446 792 446 792 426 753 c 128,-1,30
 406 714 406 714 406 553 c 2,31,-1
 406 258 l 2,32,33
 406 61 406 61 359 -10 c 128,-1,34
 312 -81 312 -81 178 -81 c 2,0,-1
EndSplineSet
EndChar

StartChar: asciitilde
Encoding: 126 126 97
Width: 1049
Flags: W
LayerCount: 2
UndoRedoHistory
Layer: 1
Undoes
EndUndoes
Redoes
EndRedoes
EndUndoRedoHistory
Fore
SplineSet
111 875 m 1,0,1
 152 1101 152 1101 295 1101 c 0,2,3
 352 1101 352 1101 532.5 1043.5 c 128,-1,4
 713 986 713 986 744 986 c 128,-1,5
 775 986 775 986 791 1018 c 128,-1,6
 807 1050 807 1050 815 1140 c 1,7,-1
 938 1123 l 1,8,9
 915 853 915 853 762 853 c 1,10,11
 761 853 761 853 760 853 c 0,12,13
 692 853 692 853 514 911 c 0,14,15
 332 970 332 970 305 970 c 128,-1,16
 278 970 278 970 260.5 939 c 128,-1,17
 243 908 243 908 229 840 c 1,18,-1
 111 875 l 1,0,1
EndSplineSet
EndChar

StartChar: cent
Encoding: 162 162 100
Width: 803
Flags: W
LayerCount: 2
UndoRedoHistory
Layer: 1
Undoes
EndUndoes
Redoes
EndRedoes
EndUndoRedoHistory
Fore
SplineSet
128 1028 m 2,0,1
 128 1278 128 1278 178 1376 c 0,2,3
 242 1501 242 1501 380 1516 c 1,4,-1
 380 1760 l 1,5,-1
 473 1760 l 1,6,-1
 473 1515 l 1,7,8
 606 1500 606 1500 648 1413 c 1,9,10
 686 1338 686 1338 693 1248 c 128,-1,11
 700 1158 700 1158 700 1020 c 2,12,-1
 700 973 l 1,13,-1
 549 973 l 1,14,-1
 549 1065 l 2,15,16
 549 1239 549 1239 537 1291 c 0,17,18
 515 1381 515 1381 426 1381 c 0,19,20
 317 1381 317 1381 291 1255 c 0,21,22
 277 1187 277 1187 277 1057 c 2,23,-1
 277 455 l 2,24,25
 277 252 277 252 292.5 213.5 c 128,-1,26
 308 175 308 175 324 155 c 0,27,28
 352 119 352 119 422 119 c 0,29,30
 423 120 423 120 424 120 c 0,31,32
 496 120 496 120 521 183 c 128,-1,33
 546 246 546 246 547.5 321 c 128,-1,34
 549 396 549 396 549 449 c 2,35,-1
 549 562 l 1,36,-1
 700 562 l 1,37,-1
 700 517 l 2,38,39
 700 292 700 292 685 209 c 0,40,41
 659 58 659 58 560 10 c 0,42,43
 523 -8 523 -8 473 -15 c 1,44,-1
 473 -249 l 1,45,-1
 380 -249 l 1,46,-1
 380 -16 l 1,47,48
 244 -4 244 -4 190 94 c 0,49,50
 149 169 149 169 138.5 265 c 128,-1,51
 128 361 128 361 128 511 c 2,52,-1
 128 1028 l 2,0,1
EndSplineSet
EndChar

StartChar: sterling
Encoding: 163 163 101
Width: 830
Flags: W
LayerCount: 2
UndoRedoHistory
Layer: 1
Undoes
EndUndoes
Redoes
EndRedoes
EndUndoRedoHistory
Fore
SplineSet
756 1392 m 2,0,-1
 756 1246 l 1,1,-1
 627 1246 l 1,2,-1
 627 1404 l 2,3,4
 627 1565 627 1565 591 1611.5 c 128,-1,5
 555 1658 555 1658 479.5 1658 c 128,-1,6
 404 1658 404 1658 365 1606 c 128,-1,7
 326 1554 326 1554 326 1434.5 c 128,-1,8
 326 1315 326 1315 361 1120 c 1,9,-1
 398 920 l 1,10,-1
 700 920 l 1,11,-1
 700 817 l 1,12,-1
 418 817 l 1,13,-1
 448 643 l 1,14,15
 473 490 473 490 473 407 c 128,-1,16
 473 324 473 324 463 281 c 0,17,18
 437 169 437 169 329 110 c 1,19,-1
 778 110 l 1,20,-1
 778 0 l 1,21,-1
 118 0 l 1,22,-1
 118 86 l 1,23,24
 232 158 232 158 268 208 c 0,25,26
 332 298 332 298 332 396 c 128,-1,27
 332 494 332 494 305 647 c 2,28,-1
 275 817 l 1,29,-1
 88 817 l 1,30,-1
 88 920 l 1,31,-1
 256 920 l 1,32,-1
 220 1097 l 2,33,34
 182 1285 182 1285 182 1386 c 0,35,36
 182 1583 182 1583 252 1683 c 128,-1,37
 322 1783 322 1783 475 1783 c 0,38,39
 639 1783 639 1783 702 1672 c 0,40,41
 756 1577 756 1577 756 1392 c 2,0,-1
EndSplineSet
EndChar

StartChar: currency
Encoding: 164 164 102
Width: 1159
Flags: W
LayerCount: 2
UndoRedoHistory
Layer: 1
Undoes
EndUndoes
Redoes
EndRedoes
EndUndoRedoHistory
Fore
SplineSet
797 1634 m 1,0,-1
 884 1721 l 1,1,-1
 1034 1572 l 1,2,-1
 944 1482 l 1,3,4
 998 1385 998 1385 998 1266.5 c 128,-1,5
 998 1148 998 1148 944 1051 c 1,6,-1
 1034 961 l 1,7,-1
 884 812 l 1,8,-1
 795 900 l 1,9,10
 703 848 703 848 579 848 c 128,-1,11
 455 848 455 848 363 901 c 1,12,-1
 274 812 l 1,13,-1
 125 962 l 1,14,-1
 216 1053 l 1,15,16
 163 1151 163 1151 163 1267.5 c 128,-1,17
 163 1384 163 1384 215 1481 c 1,18,-1
 125 1571 l 1,19,-1
 274 1721 l 1,20,-1
 361 1633 l 1,21,22
 458 1688 458 1688 579 1688 c 128,-1,23
 700 1688 700 1688 797 1634 c 1,0,-1
794 1042.5 m 128,-1,25
 876 1134 876 1134 876 1270 c 128,-1,26
 876 1406 876 1406 795 1494 c 128,-1,27
 714 1582 714 1582 580.5 1582 c 128,-1,28
 447 1582 447 1582 365 1491.5 c 128,-1,29
 283 1401 283 1401 283 1266.5 c 128,-1,30
 283 1132 283 1132 364.5 1041.5 c 128,-1,31
 446 951 446 951 579 951 c 128,-1,24
 712 951 712 951 794 1042.5 c 128,-1,25
EndSplineSet
EndChar

StartChar: yen
Encoding: 165 165 103
Width: 786
Flags: W
LayerCount: 2
UndoRedoHistory
Layer: 1
Undoes
EndUndoes
Redoes
EndRedoes
EndUndoRedoHistory
Fore
SplineSet
616 1760 m 1,0,-1
 770 1760 l 1,1,-1
 498 824 l 1,2,-1
 753 824 l 1,3,-1
 753 741 l 1,4,-1
 483 741 l 1,5,-1
 483 544 l 1,6,-1
 753 544 l 1,7,-1
 753 462 l 1,8,-1
 483 462 l 1,9,-1
 483 0 l 1,10,-1
 334 0 l 1,11,-1
 334 462 l 1,12,-1
 77 462 l 1,13,-1
 77 544 l 1,14,-1
 334 544 l 1,15,-1
 334 741 l 1,16,-1
 77 741 l 1,17,-1
 77 824 l 1,18,-1
 317 824 l 1,19,-1
 16 1760 l 1,20,-1
 166 1760 l 1,21,-1
 407 982 l 1,22,-1
 410 982 l 1,23,-1
 616 1760 l 1,0,-1
EndSplineSet
EndChar

StartChar: brokenbar
Encoding: 166 166 104
Width: 480
Flags: W
LayerCount: 2
UndoRedoHistory
Layer: 1
Undoes
EndUndoes
Redoes
EndRedoes
EndUndoRedoHistory
Fore
SplineSet
166 1760 m 1,0,-1
 314 1760 l 1,1,-1
 314 931 l 1,2,-1
 166 931 l 1,3,-1
 166 1760 l 1,0,-1
166 724 m 1,4,-1
 314 724 l 1,5,-1
 314 -84 l 1,6,-1
 166 -84 l 1,7,-1
 166 724 l 1,4,-1
EndSplineSet
EndChar

StartChar: section
Encoding: 167 167 105
Width: 764
Flags: W
LayerCount: 2
UndoRedoHistory
Layer: 1
Undoes
EndUndoes
Redoes
EndRedoes
EndUndoRedoHistory
Fore
SplineSet
127 1504 m 0,0,1
 128 1783 128 1783 414 1783 c 0,2,3
 558 1783 558 1783 619 1684.5 c 128,-1,4
 680 1586 680 1586 680 1360 c 2,5,-1
 680 1220 l 1,6,-1
 547 1220 l 1,7,-1
 547 1327 l 2,8,9
 547 1498 547 1498 520 1578 c 128,-1,10
 493 1658 493 1658 415 1658 c 0,11,12
 306 1658 306 1658 277 1585 c 0,13,14
 263 1549 263 1549 263 1503 c 0,15,16
 263 1391 263 1391 301 1333 c 128,-1,17
 339 1275 339 1275 375.5 1230.5 c 128,-1,18
 412 1186 412 1186 415 1182 c 128,-1,19
 418 1178 418 1178 423.5 1171.5 c 128,-1,20
 429 1165 429 1165 435.5 1157 c 128,-1,21
 442 1149 442 1149 480 1103 c 0,22,23
 518 1058 518 1058 530 1042 c 0,24,25
 591 961 591 961 614 898 c 0,26,27
 637 836 637 836 637 771.5 c 128,-1,28
 637 707 637 707 591 600 c 1,29,30
 699 461 699 461 699 273 c 0,31,32
 699 152 699 152 633.5 66 c 128,-1,33
 568 -20 568 -20 415.5 -20 c 128,-1,34
 263 -20 263 -20 196 76.5 c 128,-1,35
 129 173 129 173 129 397 c 2,36,-1
 129 526 l 1,37,-1
 266 526 l 1,38,-1
 266 409 l 2,39,40
 266 255 266 255 297.5 179 c 128,-1,41
 329 103 329 103 420 103 c 0,42,43
 565 103 565 103 565 278 c 0,44,45
 565 455 565 455 404 618 c 0,46,47
 340 682 340 682 277 744 c 0,48,49
 126 893 126 893 126 1026 c 128,-1,50
 126 1159 126 1159 208 1236 c 1,51,52
 127 1369 127 1369 127 1504 c 0,0,1
512 681 m 1,53,54
 519 705 519 705 519 751 c 128,-1,55
 519 797 519 797 512.5 825.5 c 128,-1,56
 506 854 506 854 482.5 890 c 128,-1,57
 459 926 459 926 438.5 951 c 128,-1,58
 418 976 418 976 364.5 1038.5 c 128,-1,59
 311 1101 311 1101 270 1152 c 1,60,61
 241 1110 241 1110 241 1051 c 0,62,63
 241 1045 241 1045 242 1021 c 128,-1,64
 243 997 243 997 271.5 948 c 128,-1,65
 300 899 300 899 331 866 c 128,-1,66
 362 833 362 833 423 772.5 c 128,-1,67
 484 712 484 712 512 681 c 1,53,54
EndSplineSet
EndChar

StartChar: dieresis
Encoding: 168 168 106
Width: 976
Flags: W
LayerCount: 2
UndoRedoHistory
Layer: 1
Undoes
EndUndoes
Redoes
EndRedoes
EndUndoRedoHistory
Fore
SplineSet
585 1500 m 1,0,-1
 767 1500 l 1,1,-1
 767 1367 l 1,2,-1
 585 1367 l 1,3,-1
 585 1500 l 1,0,-1
155 1500 m 1,4,-1
 337 1500 l 1,5,-1
 337 1367 l 1,6,-1
 155 1367 l 1,7,-1
 155 1500 l 1,4,-1
EndSplineSet
EndChar

StartChar: copyright
Encoding: 169 169 107
Width: 1466
Flags: W
LayerCount: 2
UndoRedoHistory
Layer: 1
Undoes
EndUndoes
Redoes
EndRedoes
EndUndoRedoHistory
Fore
SplineSet
150 576.5 m 128,-1,1
 104 701 104 701 104 843.5 c 128,-1,2
 104 986 104 986 150 1110.5 c 128,-1,3
 196 1235 196 1235 278 1325 c 128,-1,4
 360 1415 360 1415 478 1467 c 128,-1,5
 596 1519 596 1519 733 1519 c 128,-1,6
 870 1519 870 1519 988 1467 c 128,-1,7
 1106 1415 1106 1415 1188 1325 c 128,-1,8
 1270 1235 1270 1235 1316 1110.5 c 128,-1,9
 1362 986 1362 986 1362 843.5 c 128,-1,10
 1362 701 1362 701 1316 576.5 c 128,-1,11
 1270 452 1270 452 1188 362 c 128,-1,12
 1106 272 1106 272 988 220 c 128,-1,13
 870 168 870 168 733 168 c 128,-1,14
 596 168 596 168 478 220 c 128,-1,15
 360 272 360 272 278 362 c 128,-1,0
 196 452 196 452 150 576.5 c 128,-1,1
509 1036 m 2,16,17
 509 1299 509 1299 728.5 1299 c 128,-1,18
 948 1299 948 1299 947 1097 c 1,19,-1
 947 961 l 1,20,-1
 850 961 l 1,21,-1
 850 1044 l 2,22,23
 850 1132 850 1132 825.5 1168.5 c 128,-1,24
 801 1205 801 1205 733.5 1205 c 128,-1,25
 666 1205 666 1205 641 1168.5 c 128,-1,26
 616 1132 616 1132 616 1057 c 2,27,-1
 616 629 l 2,28,29
 616 556 616 556 643.5 518 c 128,-1,30
 671 480 671 480 736 480 c 128,-1,31
 801 480 801 480 825.5 513.5 c 128,-1,32
 850 547 850 547 850 629 c 2,33,-1
 850 741 l 1,34,-1
 951 741 l 1,35,-1
 951 627 l 2,36,37
 951 509 951 509 901.5 451 c 128,-1,38
 852 393 852 393 740 393 c 0,39,40
 508 393 508 393 509 624 c 1,41,-1
 509 1036 l 2,16,17
1218.5 537 m 128,-1,43
 1289 676 1289 676 1289 822.5 c 128,-1,44
 1289 969 1289 969 1247.5 1081 c 128,-1,45
 1206 1193 1206 1193 1133.5 1274.5 c 128,-1,46
 1061 1356 1061 1356 957 1403.5 c 128,-1,47
 853 1451 853 1451 733 1451 c 128,-1,48
 613 1451 613 1451 509 1403.5 c 128,-1,49
 405 1356 405 1356 332.5 1274.5 c 128,-1,50
 260 1193 260 1193 218.5 1081 c 128,-1,51
 177 969 177 969 177 822.5 c 128,-1,52
 177 676 177 676 247.5 537 c 128,-1,53
 318 398 318 398 445.5 317 c 128,-1,54
 573 236 573 236 733 236 c 128,-1,55
 893 236 893 236 1020.5 317 c 128,-1,42
 1148 398 1148 398 1218.5 537 c 128,-1,43
EndSplineSet
EndChar

StartChar: ordfeminine
Encoding: 170 170 108
Width: 765
Flags: W
LayerCount: 2
UndoRedoHistory
Layer: 1
Undoes
EndUndoes
Redoes
EndRedoes
EndUndoRedoHistory
Fore
SplineSet
521 732 m 1,0,-1
 521 1237 l 1,1,2
 360 1166 360 1166 328.5 1129 c 128,-1,3
 297 1092 297 1092 293 1053 c 128,-1,4
 289 1014 289 1014 289 973 c 2,5,-1
 289 876 l 2,6,7
 289 751 289 751 308.5 702 c 128,-1,8
 328 653 328 653 377.5 653 c 128,-1,9
 427 653 427 653 465.5 678.5 c 128,-1,10
 504 704 504 704 521 732 c 1,0,-1
184 1374 m 1,11,-1
 185 1407 l 1,12,13
 185 1572 185 1572 200 1618 c 0,14,15
 231 1713 231 1713 272 1742 c 0,16,17
 330 1783 330 1783 401 1783 c 128,-1,18
 472 1783 472 1783 511 1772 c 0,19,20
 570 1755 570 1755 613 1674 c 0,21,22
 641 1623 641 1623 641 1428 c 2,23,-1
 641 563 l 1,24,-1
 521 563 l 1,25,-1
 521 655 l 1,26,27
 509 620 509 620 468.5 586.5 c 128,-1,28
 428 553 428 553 362 553 c 0,29,30
 171 553 171 553 171 866 c 2,31,-1
 171 1019 l 1,32,33
 172 1110 172 1110 226 1165.5 c 128,-1,34
 280 1221 280 1221 354 1256 c 128,-1,35
 428 1291 428 1291 468 1308 c 128,-1,36
 508 1325 508 1325 521 1331 c 1,37,-1
 521 1423 l 2,38,39
 521 1584 521 1584 510.5 1610.5 c 128,-1,40
 500 1637 500 1637 484 1657 c 128,-1,41
 468 1677 468 1677 406.5 1677 c 128,-1,42
 345 1677 345 1677 325 1620 c 128,-1,43
 305 1563 305 1563 305 1404 c 2,44,-1
 305 1374 l 1,45,-1
 184 1374 l 1,11,-1
EndSplineSet
EndChar

StartChar: guillemotleft
Encoding: 171 171 109
Width: 1304
Flags: W
LayerCount: 2
UndoRedoHistory
Layer: 1
Undoes
EndUndoes
Redoes
EndRedoes
EndUndoRedoHistory
Fore
SplineSet
599 794 m 1,0,-1
 1065 1065 l 1,1,-1
 1065 915 l 1,2,-1
 753 749 l 1,3,-1
 1065 574 l 1,4,-1
 1065 414 l 1,5,-1
 599 699 l 1,6,-1
 599 794 l 1,0,-1
76 794 m 1,7,-1
 542 1065 l 1,8,-1
 542 915 l 1,9,-1
 230 749 l 1,10,-1
 542 574 l 1,11,-1
 542 414 l 1,12,-1
 76 699 l 1,13,-1
 76 794 l 1,7,-1
EndSplineSet
EndChar

StartChar: logicalnot
Encoding: 172 172 110
Width: 947
Flags: W
LayerCount: 2
UndoRedoHistory
Layer: 1
Undoes
EndUndoes
Redoes
EndRedoes
EndUndoRedoHistory
Fore
SplineSet
97 858 m 1,0,-1
 826 858 l 1,1,-1
 826 439 l 1,2,-1
 701 439 l 1,3,-1
 701 743 l 1,4,-1
 97 743 l 1,5,-1
 97 858 l 1,0,-1
EndSplineSet
EndChar

StartChar: uni00AD
Encoding: 173 173 111
Width: 696
Flags: W
LayerCount: 2
UndoRedoHistory
Layer: 1
Undoes
EndUndoes
Redoes
EndRedoes
EndUndoRedoHistory
Fore
SplineSet
90 741 m 1,0,-1
 606 741 l 1,1,-1
 606 626 l 1,2,-1
 90 626 l 1,3,-1
 90 741 l 1,0,-1
EndSplineSet
EndChar

StartChar: registered
Encoding: 174 174 112
Width: 1502
Flags: W
LayerCount: 2
UndoRedoHistory
Layer: 1
Undoes
EndUndoes
Redoes
EndRedoes
EndUndoRedoHistory
Fore
SplineSet
527 1298 m 1,0,-1
 740 1298 l 2,1,2
 856 1298 856 1298 918.5 1246 c 128,-1,3
 981 1194 981 1194 981 1071.5 c 128,-1,4
 981 949 981 949 858 910 c 1,5,6
 902 902 902 902 934.5 869.5 c 128,-1,7
 967 837 967 837 967 787 c 2,8,-1
 967 446 l 1,9,-1
 849 446 l 1,10,-1
 849 748 l 1,11,12
 848 825 848 825 816 845.5 c 128,-1,13
 784 866 784 866 768 866 c 2,14,-1
 749 866 l 1,15,16
 689 864 689 864 647 864 c 1,17,-1
 647 446 l 1,18,-1
 527 446 l 1,19,-1
 527 1298 l 1,0,-1
726 951 m 1,20,21
 727 951 727 951 728 951 c 0,22,23
 863 951 863 951 863 1086 c 0,24,25
 863 1158 863 1158 820 1184 c 128,-1,26
 777 1210 777 1210 648 1210 c 1,27,-1
 648 951 l 1,28,-1
 726 951 l 1,20,21
76 862 m 128,-1,30
 76 1046 76 1046 162 1196.5 c 128,-1,31
 248 1347 248 1347 398.5 1433 c 128,-1,32
 549 1519 549 1519 733 1519 c 128,-1,33
 917 1519 917 1519 1067.5 1433 c 128,-1,34
 1218 1347 1218 1347 1304 1196.5 c 128,-1,35
 1390 1046 1390 1046 1390 862 c 128,-1,36
 1390 678 1390 678 1304 527.5 c 128,-1,37
 1218 377 1218 377 1067.5 291 c 128,-1,38
 917 205 917 205 733 205 c 128,-1,39
 549 205 549 205 398.5 291 c 128,-1,40
 248 377 248 377 162 527.5 c 128,-1,29
 76 678 76 678 76 862 c 128,-1,30
1309 862 m 128,-1,42
 1309 1024 1309 1024 1233.5 1160 c 128,-1,43
 1158 1296 1158 1296 1025.5 1374.5 c 128,-1,44
 893 1453 893 1453 733 1453 c 128,-1,45
 573 1453 573 1453 440.5 1374.5 c 128,-1,46
 308 1296 308 1296 232.5 1160 c 128,-1,47
 157 1024 157 1024 157 862 c 128,-1,48
 157 700 157 700 232.5 564 c 128,-1,49
 308 428 308 428 440.5 349.5 c 128,-1,50
 573 271 573 271 733 271 c 128,-1,51
 893 271 893 271 1025.5 349.5 c 128,-1,52
 1158 428 1158 428 1233.5 564 c 128,-1,41
 1309 700 1309 700 1309 862 c 128,-1,42
EndSplineSet
EndChar

StartChar: macron
Encoding: 175 175 113
Width: 696
Flags: W
LayerCount: 2
UndoRedoHistory
Layer: 1
Undoes
EndUndoes
Redoes
EndRedoes
EndUndoRedoHistory
Fore
SplineSet
90 43 m 1,0,-1
 585 43 l 1,1,-1
 585 -70 l 1,2,-1
 90 -70 l 1,3,-1
 90 43 l 1,0,-1
EndSplineSet
EndChar

StartChar: degree
Encoding: 176 176 114
Width: 863
Flags: W
LayerCount: 2
UndoRedoHistory
Layer: 1
Undoes
EndUndoes
Redoes
EndRedoes
EndUndoRedoHistory
Fore
SplineSet
431 1114 m 128,-1,1
 236 1114 236 1114 138 1264 c 0,2,3
 88 1342 88 1342 88 1435 c 0,4,5
 88 1611 88 1611 193 1697 c 128,-1,6
 298 1783 298 1783 431 1783 c 0,7,8
 626 1783 626 1783 724 1632 c 0,9,10
 775 1553 775 1553 775 1448 c 0,11,12
 775 1342 775 1342 724 1264 c 0,13,0
 626 1114 626 1114 431 1114 c 128,-1,1
663 1448 m 128,-1,15
 663 1566 663 1566 594.5 1630.5 c 128,-1,16
 526 1695 526 1695 431.5 1695 c 128,-1,17
 337 1695 337 1695 269 1630.5 c 128,-1,18
 201 1566 201 1566 201 1448 c 128,-1,19
 201 1330 201 1330 269.5 1265.5 c 128,-1,20
 338 1201 338 1201 432.5 1201 c 128,-1,21
 527 1201 527 1201 595 1265.5 c 128,-1,14
 663 1330 663 1330 663 1448 c 128,-1,15
EndSplineSet
EndChar

StartChar: plusminus
Encoding: 177 177 115
Width: 854
Flags: W
LayerCount: 2
UndoRedoHistory
Layer: 1
Undoes
EndUndoes
Redoes
EndRedoes
EndUndoRedoHistory
Fore
SplineSet
368 1185 m 1,0,-1
 486 1185 l 1,1,-1
 486 926 l 1,2,-1
 720 926 l 1,3,-1
 720 820 l 1,4,-1
 486 820 l 1,5,-1
 486 554 l 1,6,-1
 368 554 l 1,7,-1
 368 820 l 1,8,-1
 138 820 l 1,9,-1
 138 926 l 1,10,-1
 368 926 l 1,11,-1
 368 1185 l 1,0,-1
173 377 m 1,12,-1
 689 377 l 1,13,-1
 689 259 l 1,14,-1
 173 259 l 1,15,-1
 173 377 l 1,12,-1
EndSplineSet
EndChar

StartChar: uni00B2
Encoding: 178 178 116
Width: 861
Flags: W
LayerCount: 2
UndoRedoHistory
Layer: 1
Undoes
EndUndoes
Redoes
EndRedoes
EndUndoRedoHistory
Fore
SplineSet
507 1135 m 1,0,1
 560 1251 560 1251 560 1440 c 0,2,3
 560 1528 560 1528 547 1587.5 c 128,-1,4
 534 1647 534 1647 516 1664 c 128,-1,5
 498 1681 498 1681 474 1681 c 0,6,7
 428 1681 428 1681 401 1630 c 0,8,9
 375 1581 375 1581 375 1422 c 0,10,11
 375 1416 375 1416 375 1410 c 1,12,-1
 375 1232 l 1,13,-1
 259 1232 l 1,14,-1
 260 1314 l 1,15,16
 260 1486 260 1486 265.5 1527 c 128,-1,17
 271 1568 271 1568 276.5 1601.5 c 128,-1,18
 282 1635 282 1635 291 1655 c 0,19,20
 300 1676 300 1676 312 1698 c 0,21,22
 328 1729 328 1729 372 1753.5 c 128,-1,23
 416 1778 416 1778 476 1778 c 128,-1,24
 536 1778 536 1778 570 1754 c 0,25,26
 631 1713 631 1713 650.5 1620 c 128,-1,27
 670 1527 670 1527 670 1417 c 0,28,29
 670 1222 670 1222 576 1032 c 0,30,31
 536 950 536 950 494 870 c 0,32,33
 392 671 392 671 375 498 c 1,34,-1
 651 498 l 1,35,-1
 651 420 l 1,36,-1
 264 420 l 1,37,-1
 264 492 l 2,38,39
 264 546 264 546 460 1017 c 0,40,41
 509 1135 509 1135 507 1135 c 1,0,1
EndSplineSet
EndChar

StartChar: uni00B3
Encoding: 179 179 117
Width: 880
Flags: W
LayerCount: 2
UndoRedoHistory
Layer: 1
Undoes
EndUndoes
Redoes
EndRedoes
EndUndoRedoHistory
Fore
SplineSet
530 1181 m 1,0,1
 651 1127 651 1127 651 844 c 0,2,3
 651 705 651 705 599.5 623.5 c 128,-1,4
 548 542 548 542 437.5 542 c 128,-1,5
 327 542 327 542 280 623.5 c 128,-1,6
 233 705 233 705 233 880 c 2,7,-1
 233 909 l 1,8,-1
 333 909 l 1,9,-1
 333 879 l 2,10,11
 333 726 333 726 352.5 676 c 128,-1,12
 372 626 372 626 438 626 c 128,-1,13
 504 626 504 626 528.5 681 c 128,-1,14
 553 736 553 736 553 882.5 c 128,-1,15
 553 1029 553 1029 520.5 1084.5 c 128,-1,16
 488 1140 488 1140 410 1140 c 2,17,-1
 379 1140 l 1,18,-1
 379 1227 l 1,19,-1
 408 1227 l 2,20,21
 449 1227 449 1227 472.5 1234 c 128,-1,22
 496 1241 496 1241 516 1265 c 0,23,24
 550 1307 550 1307 550 1479 c 128,-1,25
 550 1651 550 1651 480 1681 c 0,26,27
 462 1689 462 1689 433 1689 c 128,-1,28
 404 1689 404 1689 384 1672 c 0,29,30
 338 1633 338 1633 337 1459 c 1,31,-1
 337 1437 l 1,32,-1
 237 1437 l 1,33,-1
 237 1460 l 2,34,35
 237 1621 237 1621 282.5 1698 c 128,-1,36
 328 1775 328 1775 438.5 1775 c 128,-1,37
 549 1775 549 1775 599 1697 c 128,-1,38
 649 1619 649 1619 649 1460 c 0,39,40
 649 1227 649 1227 530 1181 c 1,0,1
EndSplineSet
EndChar

StartChar: acute
Encoding: 180 180 118
Width: 650
Flags: W
LayerCount: 2
UndoRedoHistory
Layer: 1
Undoes
EndUndoes
Redoes
EndRedoes
EndUndoRedoHistory
Fore
SplineSet
254 1834 m 1,0,-1
 186 1834 l 1,1,-1
 268 2232 l 1,2,-1
 412 2232 l 1,3,-1
 254 1834 l 1,0,-1
EndSplineSet
EndChar

StartChar: paragraph
Encoding: 182 182 119
Width: 989
Flags: W
LayerCount: 2
UndoRedoHistory
Layer: 1
Undoes
EndUndoes
Redoes
EndRedoes
EndUndoRedoHistory
Fore
SplineSet
580 1760 m 2,0,-1
 823 1760 l 1,1,-1
 823 0 l 1,2,-1
 703 0 l 1,3,-1
 703 1620 l 1,4,-1
 550 1620 l 1,5,-1
 550 0 l 1,6,-1
 430 0 l 1,7,-1
 430 1180 l 1,8,9
 283 1196 283 1196 203 1274.5 c 128,-1,10
 123 1353 123 1353 123 1457 c 0,11,12
 123 1633 123 1633 239 1696 c 0,13,14
 356 1760 356 1760 580 1760 c 2,0,-1
EndSplineSet
EndChar

StartChar: periodcentered
Encoding: 183 183 120
Width: 480
Flags: W
LayerCount: 2
UndoRedoHistory
Layer: 1
Undoes
EndUndoes
Redoes
EndRedoes
EndUndoRedoHistory
Fore
SplineSet
163 961 m 1,0,-1
 333 961 l 1,1,-1
 333 786 l 1,2,-1
 163 786 l 1,3,-1
 163 961 l 1,0,-1
EndSplineSet
EndChar

StartChar: cedilla
Encoding: 184 184 121
Width: 1015
Flags: W
LayerCount: 2
UndoRedoHistory
Layer: 1
Undoes
EndUndoes
Redoes
EndRedoes
EndUndoRedoHistory
Fore
SplineSet
383 -501 m 1,0,1
 614 -501 614 -501 614 -360 c 0,2,3
 614 -296 614 -296 567.5 -253.5 c 128,-1,4
 521 -211 521 -211 454 -196 c 1,5,-1
 494 0 l 1,6,-1
 551 0 l 1,7,-1
 560 -147 l 1,8,9
 739 -237 739 -237 739 -389 c 0,10,11
 739 -465 739 -465 662 -530.5 c 128,-1,12
 585 -596 585 -596 470 -596 c 0,13,14
 430 -596 430 -596 383 -587 c 1,15,-1
 383 -501 l 1,0,1
EndSplineSet
EndChar

StartChar: uni00B9
Encoding: 185 185 122
Width: 626
Flags: W
LayerCount: 2
UndoRedoHistory
Layer: 1
Undoes
EndUndoes
Redoes
EndRedoes
EndUndoRedoHistory
Fore
SplineSet
309 1760 m 1,0,-1
 377 1760 l 1,1,-1
 377 414 l 1,2,-1
 266 414 l 1,3,-1
 266 1585 l 1,4,5
 242 1553 242 1553 195 1535 c 128,-1,6
 148 1517 148 1517 103 1517 c 1,7,-1
 103 1591 l 1,8,9
 166 1601 166 1601 221 1644 c 128,-1,10
 276 1687 276 1687 309 1760 c 1,0,-1
EndSplineSet
EndChar

StartChar: ordmasculine
Encoding: 186 186 123
Width: 908
Flags: W
LayerCount: 2
UndoRedoHistory
Layer: 1
Undoes
EndUndoes
Redoes
EndRedoes
EndUndoRedoHistory
Fore
SplineSet
239 1205 m 1,0,1
 240 1415 240 1415 278 1492.5 c 128,-1,2
 316 1570 316 1570 384 1594 c 0,3,4
 423 1608 423 1608 478 1608 c 0,5,6
 480 1608 480 1608 482 1608 c 0,7,8
 540 1608 540 1608 584 1586 c 128,-1,9
 628 1564 628 1564 652 1532 c 0,10,11
 710 1455 710 1455 710 1205 c 2,12,-1
 710 801 l 2,13,14
 710 644 710 644 702 599 c 128,-1,15
 694 554 694 554 686 522 c 0,16,17
 674 474 674 474 646 442 c 128,-1,18
 618 410 618 410 581.5 392 c 128,-1,19
 545 374 545 374 490.5 374 c 128,-1,20
 436 374 436 374 403 381.5 c 128,-1,21
 370 389 370 389 346 406 c 128,-1,22
 322 423 322 423 304 443 c 0,23,24
 286 462 286 462 274 494 c 0,25,26
 250 560 250 560 244 630 c 0,27,28
 239 689 239 689 239 773 c 0,29,30
 239 787 239 787 239 801 c 1,31,-1
 239 1205 l 1,0,1
590 1234 m 2,32,33
 590 1448 590 1448 536 1484 c 0,34,35
 512 1500 512 1500 478.5 1500 c 128,-1,36
 445 1500 445 1500 423 1488 c 0,37,38
 383 1466 383 1466 370 1400 c 0,39,40
 358 1338 358 1338 358 1234 c 2,41,-1
 358 760 l 2,42,43
 358 607 358 607 371.5 570 c 128,-1,44
 385 533 385 533 404 505.5 c 128,-1,45
 423 478 423 478 468.5 478 c 128,-1,46
 514 478 514 478 537 497 c 0,47,48
 590 541 590 541 590 760 c 2,49,-1
 590 1234 l 2,32,33
EndSplineSet
EndChar

StartChar: guillemotright
Encoding: 187 187 124
Width: 1304
Flags: W
LayerCount: 2
UndoRedoHistory
Layer: 1
Undoes
EndUndoes
Redoes
EndRedoes
EndUndoRedoHistory
Fore
SplineSet
716 915 m 1,0,-1
 716 1065 l 1,1,-1
 1182 794 l 1,2,-1
 1182 699 l 1,3,-1
 716 414 l 1,4,-1
 716 574 l 1,5,-1
 1028 749 l 1,6,-1
 716 915 l 1,0,-1
193 915 m 1,7,-1
 193 1065 l 1,8,-1
 659 794 l 1,9,-1
 659 699 l 1,10,-1
 193 414 l 1,11,-1
 193 574 l 1,12,-1
 505 749 l 1,13,-1
 193 915 l 1,7,-1
EndSplineSet
EndChar

StartChar: onequarter
Encoding: 188 188 125
Width: 1535
Flags: W
LayerCount: 2
UndoRedoHistory
Layer: 1
Undoes
EndUndoes
Redoes
EndRedoes
EndUndoRedoHistory
Fore
SplineSet
948 1783 m 1,0,-1
 1068 1783 l 1,1,-1
 607 0 l 1,2,-1
 489 0 l 1,3,-1
 948 1783 l 1,0,-1
312 1783 m 1,4,-1
 383 1783 l 1,5,-1
 383 424 l 1,6,-1
 267 424 l 1,7,-1
 267 1605 l 1,8,9
 242 1573 242 1573 194 1555 c 128,-1,10
 146 1537 146 1537 100 1537 c 1,11,-1
 100 1612 l 1,12,13
 165 1622 165 1622 222 1665.5 c 128,-1,14
 279 1709 279 1709 312 1783 c 1,4,-1
1190 326 m 1,15,-1
 1190 989 l 1,16,-1
 1007 326 l 1,17,-1
 1190 326 l 1,15,-1
1189 1224 m 1,18,-1
 1284 1224 l 1,19,-1
 1284 326 l 1,20,-1
 1393 326 l 1,21,-1
 1393 244 l 1,22,-1
 1284 244 l 1,23,-1
 1284 0 l 1,24,-1
 1190 0 l 1,25,-1
 1190 244 l 1,26,-1
 916 244 l 1,27,-1
 911 314 l 1,28,-1
 1189 1224 l 1,18,-1
EndSplineSet
EndChar

StartChar: onehalf
Encoding: 189 189 126
Width: 1620
Flags: W
LayerCount: 2
UndoRedoHistory
Layer: 1
Undoes
EndUndoes
Redoes
EndRedoes
EndUndoRedoHistory
Fore
SplineSet
312 1783 m 1,0,-1
 383 1783 l 1,1,-1
 383 424 l 1,2,-1
 267 424 l 1,3,-1
 267 1605 l 1,4,5
 242 1573 242 1573 194 1555 c 128,-1,6
 146 1537 146 1537 100 1537 c 1,7,-1
 100 1612 l 1,8,9
 165 1622 165 1622 222 1665.5 c 128,-1,10
 279 1709 279 1709 312 1783 c 1,0,-1
948 1783 m 1,11,-1
 1068 1783 l 1,12,-1
 607 0 l 1,13,-1
 489 0 l 1,14,-1
 948 1783 l 1,11,-1
1127 904 m 2,15,16
 1127 1089 1127 1089 1134.5 1136.5 c 128,-1,17
 1142 1184 1142 1184 1150 1218 c 0,18,19
 1158 1254 1158 1254 1170 1274 c 0,20,21
 1229 1372 1229 1372 1344 1372 c 1,22,23
 1442 1372 1442 1372 1480 1318 c 0,24,25
 1521 1261 1521 1261 1532 1184 c 0,26,27
 1543 1104 1543 1104 1543 963 c 0,28,29
 1543 821 1543 821 1470 669 c 1,30,-1
 1305 315 l 2,31,32
 1255 210 1255 210 1246 126 c 2,33,-1
 1243 98 l 1,34,-1
 1523 98 l 1,35,-1
 1523 0 l 1,36,-1
 1131 0 l 1,37,-1
 1131 74 l 2,38,39
 1131 195 1131 195 1210 365 c 2,40,-1
 1377 724 l 2,41,42
 1431 840 1431 840 1431 979.5 c 128,-1,43
 1431 1119 1431 1119 1418 1179 c 128,-1,44
 1405 1239 1405 1239 1387 1256 c 128,-1,45
 1369 1273 1369 1273 1344 1273 c 0,46,47
 1298 1273 1298 1273 1271 1222 c 128,-1,48
 1244 1171 1244 1171 1244 1001 c 2,49,-1
 1244 821 l 1,50,-1
 1127 821 l 1,51,-1
 1127 904 l 2,15,16
EndSplineSet
EndChar

StartChar: threequarters
Encoding: 190 190 127
Width: 1555
Flags: W
LayerCount: 2
UndoRedoHistory
Layer: 1
Undoes
EndUndoes
Redoes
EndRedoes
EndUndoRedoHistory
Fore
SplineSet
1027 1783 m 1,0,-1
 1147 1783 l 1,1,-1
 686 0 l 1,2,-1
 568 0 l 1,3,-1
 1027 1783 l 1,0,-1
1268 1224 m 1,4,-1
 1363 1224 l 1,5,-1
 1363 326 l 1,6,-1
 1472 326 l 1,7,-1
 1472 244 l 1,8,-1
 1363 244 l 1,9,-1
 1363 0 l 1,10,-1
 1269 0 l 1,11,-1
 1269 244 l 1,12,-1
 995 244 l 1,13,-1
 990 314 l 1,14,-1
 1268 1224 l 1,4,-1
1269 326 m 1,15,-1
 1269 989 l 1,16,-1
 1086 326 l 1,17,-1
 1269 326 l 1,15,-1
456 1199 m 1,18,19
 580 1142 580 1142 580 858 c 0,20,21
 580 716 580 716 526.5 633.5 c 128,-1,22
 473 551 473 551 358.5 551 c 128,-1,23
 244 551 244 551 195.5 633 c 128,-1,24
 147 715 147 715 147 893 c 2,25,-1
 147 924 l 1,26,-1
 252 924 l 1,27,-1
 252 893 l 2,28,29
 252 739 252 739 272 688.5 c 128,-1,30
 292 638 292 638 359 638 c 128,-1,31
 426 638 426 638 450.5 693.5 c 128,-1,32
 475 749 475 749 475 896.5 c 128,-1,33
 475 1044 475 1044 442 1100.5 c 128,-1,34
 409 1157 409 1157 329 1157 c 2,35,-1
 298 1157 l 1,36,-1
 298 1244 l 1,37,-1
 329 1244 l 2,38,39
 384 1244 384 1244 412 1259 c 0,40,41
 472 1291 472 1291 472 1458.5 c 128,-1,42
 472 1626 472 1626 440 1668.5 c 128,-1,43
 408 1711 408 1711 357 1711 c 128,-1,44
 306 1711 306 1711 281 1662.5 c 128,-1,45
 256 1614 256 1614 256 1480 c 2,46,-1
 256 1457 l 1,47,-1
 151 1457 l 1,48,-1
 151 1481 l 2,49,50
 151 1644 151 1644 198.5 1722 c 128,-1,51
 246 1800 246 1800 360 1800 c 128,-1,52
 474 1800 474 1800 526 1721 c 128,-1,53
 578 1642 578 1642 578 1481 c 0,54,55
 578 1245 578 1245 456 1199 c 1,18,19
EndSplineSet
EndChar

StartChar: AE
Encoding: 198 198 135
Width: 1074
Flags: W
LayerCount: 2
UndoRedoHistory
Layer: 1
Undoes
EndUndoes
Redoes
EndRedoes
EndUndoRedoHistory
Fore
SplineSet
433 1760 m 1,0,-1
 989 1760 l 1,1,-1
 989 1644 l 1,2,-1
 684 1644 l 1,3,-1
 684 956 l 1,4,-1
 970 956 l 1,5,-1
 970 836 l 1,6,-1
 684 836 l 1,7,-1
 684 118 l 1,8,-1
 986 118 l 1,9,-1
 986 0 l 1,10,-1
 551 0 l 1,11,-1
 551 370 l 1,12,-1
 259 370 l 1,13,-1
 183 0 l 1,14,-1
 43 0 l 1,15,-1
 433 1760 l 1,0,-1
551 483 m 1,16,-1
 551 1646 l 1,17,-1
 533 1645 l 1,18,-1
 288 483 l 1,19,-1
 551 483 l 1,16,-1
EndSplineSet
EndChar

StartChar: multiply
Encoding: 215 215 152
Width: 710
Flags: W
LayerCount: 2
UndoRedoHistory
Layer: 1
Undoes
EndUndoes
Redoes
EndRedoes
EndUndoRedoHistory
Fore
SplineSet
542 936 m 1,0,-1
 626 852 l 1,1,-1
 438 665 l 1,2,-1
 626 478 l 1,3,-1
 542 394 l 1,4,-1
 355 582 l 1,5,-1
 168 394 l 1,6,-1
 84 478 l 1,7,-1
 272 665 l 1,8,-1
 84 852 l 1,9,-1
 168 936 l 1,10,-1
 355 748 l 1,11,-1
 542 936 l 1,0,-1
EndSplineSet
EndChar

StartChar: Oslash
Encoding: 216 216 153
Width: 891
Flags: W
LayerCount: 2
UndoRedoHistory
Layer: 1
Undoes
EndUndoes
Redoes
EndRedoes
EndUndoRedoHistory
Fore
SplineSet
577 0 m 128,-1,1
 523 -22 523 -22 444 -21 c 128,-1,2
 365 -20 365 -20 307 6 c 1,3,-1
 256 -225 l 1,4,-1
 197 -206 l 1,5,-1
 251 41 l 1,6,7
 239 51 239 51 215.5 77 c 128,-1,8
 192 103 192 103 164 198 c 128,-1,9
 136 293 136 293 136 519 c 2,10,-1
 136 1268 l 2,11,12
 136 1588 136 1588 216 1685.5 c 128,-1,13
 296 1783 296 1783 454 1783 c 0,14,15
 550 1783 550 1783 620 1744 c 1,16,-1
 666 1956 l 1,17,-1
 733 1941 l 1,18,-1
 678 1693 l 1,19,20
 744 1602 744 1602 753 1392 c 0,21,22
 755 1342 755 1342 755 1268 c 2,23,-1
 755 519 l 2,24,25
 755 290 755 290 727.5 196.5 c 128,-1,26
 700 103 700 103 665.5 62.5 c 128,-1,0
 631 22 631 22 577 0 c 128,-1,1
338 148 m 1,27,28
 370 102 370 102 433 102 c 128,-1,29
 496 102 496 102 526 121 c 128,-1,30
 556 140 556 140 574 190 c 0,31,32
 606 275 606 275 606 519 c 2,33,-1
 606 1280 l 2,34,35
 606 1322 606 1322 605 1359 c 1,36,-1
 338 148 l 1,27,28
580 1560 m 1,37,38
 551 1658 551 1658 454 1658 c 128,-1,39
 357 1658 357 1658 321 1571.5 c 128,-1,40
 285 1485 285 1485 285 1281 c 2,41,-1
 285 519 l 2,42,43
 285 340 285 340 298 261 c 1,44,-1
 580 1560 l 1,37,38
EndSplineSet
EndChar

StartChar: Thorn
Encoding: 222 222 159
Width: 865
Flags: W
LayerCount: 2
UndoRedoHistory
Layer: 1
Undoes
EndUndoes
Redoes
EndRedoes
EndUndoRedoHistory
Fore
SplineSet
166 1760 m 1,0,-1
 315 1760 l 1,1,-1
 315 1535 l 1,2,-1
 472 1535 l 2,3,4
 644 1535 644 1535 710 1428 c 0,5,6
 753 1357 753 1357 765 1262 c 0,7,8
 777 1167 777 1167 777 1027 c 2,9,-1
 777 1007 l 2,10,11
 776 778 776 778 748 685 c 0,12,13
 720 592 720 592 684 552 c 0,14,15
 611 468 611 468 463 468 c 2,16,-1
 315 468 l 1,17,-1
 315 0 l 1,18,-1
 166 0 l 1,19,-1
 166 1760 l 1,0,-1
629 1042 m 2,20,21
 629 1245 629 1245 599 1328 c 128,-1,22
 569 1411 569 1411 480 1411 c 2,23,-1
 315 1411 l 1,24,-1
 315 594 l 1,25,-1
 474 594 l 2,26,27
 566 594 566 594 597.5 680.5 c 128,-1,28
 629 767 629 767 629 1006 c 2,29,-1
 629 1042 l 2,20,21
EndSplineSet
EndChar

StartChar: germandbls
Encoding: 223 223 160
Width: 933
Flags: W
LayerCount: 2
UndoRedoHistory
Layer: 1
Undoes
EndUndoes
Redoes
EndRedoes
EndUndoRedoHistory
Fore
SplineSet
157 1417 m 2,0,1
 157 1556 157 1556 163 1589.5 c 128,-1,2
 169 1623 169 1623 176.5 1650 c 128,-1,3
 184 1677 184 1677 194 1691 c 0,4,5
 201 1700 201 1700 220 1722 c 0,6,7
 272 1782 272 1782 450 1783 c 0,8,9
 548 1783 548 1783 610 1765.5 c 128,-1,10
 672 1748 672 1748 710 1704.5 c 128,-1,11
 748 1661 748 1661 761.5 1594 c 128,-1,12
 775 1527 775 1527 775 1417 c 2,13,-1
 775 1220 l 2,14,15
 775 1091 775 1091 740 1034 c 128,-1,16
 705 977 705 977 606 945 c 1,17,18
 696 923 696 923 744.5 882.5 c 128,-1,19
 793 842 793 842 814 765 c 128,-1,20
 835 688 835 688 835 553 c 2,21,-1
 835 476 l 2,22,23
 835 285 835 285 824.5 237.5 c 128,-1,24
 814 190 814 190 803 155 c 0,25,26
 787 104 787 104 749.5 70 c 128,-1,27
 712 36 712 36 662.5 18 c 128,-1,28
 613 0 613 0 522 0 c 2,29,-1
 418 0 l 1,30,-1
 418 100 l 1,31,32
 545 100 545 100 585.5 119 c 128,-1,33
 626 138 626 138 644 157 c 0,34,35
 688 204 688 204 687 395 c 2,36,-1
 687 656 l 2,37,38
 687 783 687 783 630.5 836 c 128,-1,39
 574 889 574 889 427 889 c 1,40,-1
 427 997 l 1,41,42
 540 997 540 997 586 1035.5 c 128,-1,43
 632 1074 632 1074 632 1170 c 2,44,-1
 632 1500 l 2,45,46
 632 1609 632 1609 595.5 1648 c 128,-1,47
 559 1687 559 1687 464.5 1687 c 128,-1,48
 370 1687 370 1687 337 1647.5 c 128,-1,49
 304 1608 304 1608 304 1500 c 2,50,-1
 304 0 l 1,51,-1
 157 0 l 1,52,-1
 157 1417 l 2,0,1
EndSplineSet
EndChar

StartChar: ae
Encoding: 230 230 167
Width: 1236
Flags: W
LayerCount: 2
UndoRedoHistory
Layer: 1
Undoes
EndUndoes
Redoes
EndRedoes
EndUndoRedoHistory
Fore
SplineSet
433 1518 m 0,0,1
 593 1518 593 1518 638 1427 c 1,2,3
 710 1518 710 1518 868 1518 c 128,-1,4
 1026 1518 1026 1518 1080 1405 c 0,5,6
 1117 1326 1117 1326 1124.5 1233 c 128,-1,7
 1132 1140 1132 1140 1132 1002 c 2,8,-1
 1132 754 l 1,9,-1
 712 754 l 1,10,-1
 712 443 l 2,11,12
 712 248 712 248 727 209 c 128,-1,13
 742 170 742 170 758 150 c 0,14,15
 786 114 786 114 854 113 c 1,16,17
 854 73 854 73 869 73 c 0,18,19
 890 73 890 73 942 152 c 0,20,21
 971 196 971 196 977 261 c 128,-1,22
 983 326 983 326 983 439 c 2,23,-1
 983 556 l 1,24,-1
 1128 556 l 1,25,-1
 1128 505 l 2,26,27
 1128 263 1128 263 1117 218.5 c 128,-1,28
 1106 174 1106 174 1093.5 130.5 c 128,-1,29
 1081 87 1081 87 1060.5 66 c 128,-1,30
 1040 45 1040 45 1012 22 c 0,31,32
 962 -18 962 -18 851 -18 c 0,33,34
 676 -18 676 -18 609 103 c 1,35,36
 567 63 567 63 493 26 c 128,-1,37
 419 -11 419 -11 355 -11 c 0,38,39
 127 -11 127 -11 127 375 c 2,40,-1
 127 566 l 2,41,42
 127 638 127 638 151 691 c 128,-1,43
 175 744 175 744 242.5 791 c 128,-1,44
 310 838 310 838 355 860.5 c 128,-1,45
 400 883 400 883 462 910.5 c 128,-1,46
 524 938 524 938 530.5 940.5 c 128,-1,47
 537 943 537 943 547 947.5 c 128,-1,48
 557 952 557 952 566 956 c 1,49,-1
 566 1065 l 2,50,51
 566 1268 566 1268 552.5 1301 c 128,-1,52
 539 1334 539 1334 518.5 1361 c 128,-1,53
 498 1388 498 1388 446 1388 c 0,54,55
 362 1388 362 1388 330 1340 c 0,56,57
 297 1289 297 1289 295 1047 c 1,58,-1
 295 1011 l 1,59,-1
 145 1011 l 1,60,-1
 145 1051 l 2,61,62
 145 1214 145 1214 154 1261.5 c 128,-1,63
 163 1309 163 1309 173.5 1344.5 c 128,-1,64
 184 1380 184 1380 198 1403 c 0,65,66
 237 1465 237 1465 292 1491.5 c 128,-1,67
 347 1518 347 1518 433 1518 c 0,0,1
566 211 m 1,68,-1
 566 840 l 1,69,70
 404 766 404 766 376 745 c 0,71,72
 313 698 313 698 303.5 676 c 128,-1,73
 294 654 294 654 284.5 623.5 c 128,-1,74
 275 593 275 593 275 511 c 2,75,-1
 275 390 l 2,76,77
 275 234 275 234 299 173 c 128,-1,78
 323 112 323 112 385 112 c 128,-1,79
 447 112 447 112 496.5 144 c 128,-1,80
 546 176 546 176 566 211 c 1,68,-1
983 874 m 1,81,-1
 983 1082 l 2,82,83
 983 1250 983 1250 970 1301 c 0,84,85
 950 1375 950 1375 886 1385 c 1,86,-1
 860 1387 l 1,87,88
 766 1386 766 1386 739 1302 c 128,-1,89
 712 1218 712 1218 712 1063 c 2,90,-1
 712 874 l 1,91,-1
 983 874 l 1,81,-1
EndSplineSet
EndChar

StartChar: eth
Encoding: 240 240 177
Width: 910
Flags: W
LayerCount: 2
UndoRedoHistory
Layer: 1
Undoes
EndUndoes
Redoes
EndRedoes
EndUndoRedoHistory
Fore
SplineSet
543 1534 m 1,0,1
 453 1640 453 1640 307 1640 c 0,2,3
 300 1640 300 1640 293 1640 c 1,4,-1
 293 1780 l 1,5,6
 308 1780 l 2,7,8
 552 1780 552 1780 678 1616 c 1,9,-1
 878 1735 l 1,10,-1
 931 1635 l 1,11,-1
 732 1516 l 1,12,13
 748 1468 748 1468 763 958 c 1,14,-1
 763 506 l 2,15,16
 763 202 763 202 666 80 c 0,17,18
 586 -20 586 -20 416 -20 c 0,19,20
 246 -20 246 -20 179 96 c 0,21,22
 112 212 112 212 111 442 c 1,23,-1
 111 557 l 2,24,25
 111 866 111 866 177.5 984.5 c 128,-1,26
 244 1103 244 1103 411 1103 c 0,27,28
 422 1103 422 1103 451.5 1102 c 128,-1,29
 481 1101 481 1101 533.5 1076.5 c 128,-1,30
 586 1052 586 1052 616 1009 c 1,31,32
 608 1392 608 1392 596 1434 c 1,33,-1
 371 1299 l 1,34,-1
 318 1399 l 1,35,-1
 543 1534 l 1,0,1
614 926 m 1,36,37
 610 926 610 926 552 952 c 0,38,39
 494 978 494 978 425 978 c 0,40,41
 326 978 326 978 293 886.5 c 128,-1,42
 260 795 260 795 260 545 c 2,43,-1
 260 446 l 2,44,45
 260 305 260 305 275.5 234 c 128,-1,46
 291 163 291 163 326.5 135 c 128,-1,47
 362 107 362 107 431 107 c 0,48,49
 539 107 539 107 576.5 196.5 c 128,-1,50
 614 286 614 286 614 505 c 2,51,-1
 614 926 l 1,36,37
EndSplineSet
EndChar

StartChar: divide
Encoding: 247 247 184
Width: 804
Flags: W
LayerCount: 2
UndoRedoHistory
Layer: 1
Undoes
EndUndoes
Redoes
EndRedoes
EndUndoRedoHistory
Fore
SplineSet
94 823 m 1,0,-1
 710 823 l 1,1,-1
 710 708 l 1,2,-1
 94 708 l 1,3,-1
 94 823 l 1,0,-1
343 535 m 1,4,-1
 471 535 l 1,5,-1
 471 327 l 1,6,-1
 343 327 l 1,7,-1
 343 535 l 1,4,-1
343 1174 m 1,8,-1
 471 1174 l 1,9,-1
 471 976 l 1,10,-1
 343 976 l 1,11,-1
 343 1174 l 1,8,-1
EndSplineSet
EndChar

StartChar: oslash
Encoding: 248 248 185
Width: 845
Flags: W
LayerCount: 2
UndoRedoHistory
Layer: 1
Undoes
EndUndoes
Redoes
EndRedoes
EndUndoRedoHistory
Fore
SplineSet
346 139 m 1,0,1
 379 113 379 113 425 113 c 0,2,3
 517 113 517 113 542.5 204 c 128,-1,4
 568 295 568 295 568 463 c 2,5,-1
 568 1053 l 2,6,7
 568 1208 568 1208 545 1290 c 1,8,-1
 346 139 l 1,0,1
501.5 -12 m 128,-1,10
 467 -18 467 -18 416.5 -18 c 128,-1,11
 366 -18 366 -18 322 -5 c 1,12,-1
 284 -223 l 1,13,-1
 223 -215 l 1,14,-1
 264 21 l 1,15,16
 198 64 198 64 178 118 c 0,17,18
 142 212 142 212 135 301.5 c 128,-1,19
 128 391 128 391 128 515 c 2,20,-1
 128 1018 l 2,21,22
 128 1278 128 1278 176 1375 c 128,-1,23
 224 1472 224 1472 310 1500 c 0,24,25
 360 1516 360 1516 419 1517 c 128,-1,26
 478 1518 478 1518 520 1507 c 1,27,-1
 561 1746 l 1,28,-1
 622 1738 l 1,29,-1
 578 1484 l 1,30,31
 684 1427 684 1427 706 1240 c 0,32,33
 716 1150 716 1150 717 1018 c 1,34,-1
 717 515 l 2,35,36
 717 338 717 338 709.5 285.5 c 128,-1,37
 702 233 702 233 695 195.5 c 128,-1,38
 688 158 688 158 676.5 133.5 c 128,-1,39
 665 109 665 109 649 82 c 128,-1,40
 633 55 633 55 611.5 38.5 c 128,-1,41
 590 22 590 22 563 8 c 128,-1,9
 536 -6 536 -6 501.5 -12 c 128,-1,10
496 1367 m 1,42,43
 468 1387 468 1387 427 1387 c 0,44,45
 313 1387 313 1387 290 1255 c 1,46,47
 277 1187 277 1187 277 1070 c 0,48,49
 277 1062 277 1062 277 1053 c 1,50,-1
 277 463 l 2,51,52
 277 294 277 294 298 220 c 1,53,-1
 496 1367 l 1,42,43
EndSplineSet
EndChar

StartChar: thorn
Encoding: 254 254 191
Width: 875
Flags: W
LayerCount: 2
UndoRedoHistory
Layer: 1
Undoes
EndUndoes
Redoes
EndRedoes
EndUndoRedoHistory
Fore
SplineSet
160 1783 m 1,0,-1
 310 1783 l 1,1,-1
 310 1385 l 1,2,3
 363 1511 363 1511 509 1511 c 0,4,5
 678 1510 678 1510 722 1310 c 0,6,7
 746 1198 746 1198 747 1013 c 1,8,-1
 747 475 l 2,9,10
 747 110 747 110 607 20 c 0,11,12
 551 -16 551 -16 484.5 -16 c 128,-1,13
 418 -16 418 -16 374 19.5 c 128,-1,14
 330 55 330 55 310 108 c 1,15,-1
 310 -265 l 1,16,-1
 160 -265 l 1,17,-1
 160 1783 l 1,0,-1
597 1062 m 2,18,19
 597 1238 597 1238 582.5 1281 c 128,-1,20
 568 1324 568 1324 548 1355 c 128,-1,21
 528 1386 528 1386 482 1386 c 0,22,23
 478 1386 478 1386 474 1387 c 0,24,25
 434 1387 434 1387 414 1381 c 0,26,27
 359 1366 359 1366 334.5 1293 c 128,-1,28
 310 1220 310 1220 310 1059 c 2,29,-1
 310 463 l 2,30,31
 310 270 310 270 341 188 c 128,-1,32
 372 106 372 106 455 106 c 2,33,-1
 456 106 l 2,34,35
 540 106 540 106 568.5 188 c 128,-1,36
 597 270 597 270 597 468 c 2,37,-1
 597 1062 l 2,18,19
EndSplineSet
EndChar

StartChar: Delta
Encoding: 916 916 202
Width: 868
Flags: W
LayerCount: 2
UndoRedoHistory
Layer: 1
Undoes
EndUndoes
Redoes
EndRedoes
EndUndoRedoHistory
Fore
SplineSet
495 1760 m 1,0,-1
 808 0 l 1,1,-1
 60 0 l 1,2,-1
 343 1760 l 1,3,-1
 495 1760 l 1,0,-1
219 123 m 1,4,-1
 644 123 l 1,5,-1
 424 1476 l 1,6,-1
 422 1476 l 1,7,-1
 219 123 l 1,4,-1
EndSplineSet
EndChar

StartChar: Euro
Encoding: 8364 8364 208
Width: 830
Flags: W
LayerCount: 2
UndoRedoHistory
Layer: 1
Undoes
EndUndoes
Redoes
EndRedoes
EndUndoRedoHistory
Fore
SplineSet
98 1251 m 2,0,1
 98 1570 98 1570 178.5 1676.5 c 128,-1,2
 259 1783 259 1783 407.5 1783 c 128,-1,3
 556 1783 556 1783 620 1709 c 0,4,5
 666 1656 666 1656 680 1604 c 0,6,7
 713 1480 713 1480 713 1239 c 2,8,-1
 713 1087 l 1,9,-1
 562 1087 l 1,10,-1
 562 1257 l 2,11,12
 562 1461 562 1461 542 1535 c 128,-1,13
 522 1609 522 1609 492 1633.5 c 128,-1,14
 462 1658 462 1658 415 1658 c 0,15,16
 320 1658 320 1658 283.5 1562 c 128,-1,17
 247 1466 247 1466 247 1258 c 2,18,-1
 247 1076 l 1,19,-1
 437 1076 l 1,20,-1
 437 986 l 1,21,-1
 247 986 l 1,22,-1
 247 849 l 1,23,-1
 437 849 l 1,24,-1
 437 751 l 1,25,-1
 247 751 l 1,26,-1
 247 552 l 2,27,28
 247 297 247 297 279 199.5 c 128,-1,29
 311 102 311 102 407 102 c 128,-1,30
 503 102 503 102 532.5 199 c 128,-1,31
 562 296 562 296 562 551 c 2,32,-1
 562 692 l 1,33,-1
 712 692 l 1,34,-1
 712 552 l 2,35,36
 712 321 712 321 686 219.5 c 128,-1,37
 660 118 660 118 627 74 c 0,38,39
 557 -20 557 -20 410 -20 c 128,-1,40
 263 -20 263 -20 189 73 c 0,41,42
 98 187 98 187 98 550 c 2,43,-1
 98 751 l 1,44,-1
 10 751 l 1,45,-1
 10 849 l 1,46,-1
 98 849 l 1,47,-1
 98 986 l 1,48,-1
 10 986 l 1,49,-1
 10 1076 l 1,50,-1
 98 1076 l 1,51,-1
 98 1251 l 2,0,1
EndSplineSet
EndChar

StartChar: Hbar
Encoding: 294 294 213
Width: 932
Flags: W
LayerCount: 2
UndoRedoHistory
Layer: 1
Undoes
EndUndoes
Redoes
EndRedoes
EndUndoRedoHistory
Fore
SplineSet
637 1760 m 1,0,-1
 786 1760 l 1,1,-1
 786 1500 l 1,2,-1
 900 1500 l 1,3,-1
 900 1416 l 1,4,-1
 786 1416 l 1,5,-1
 786 0 l 1,6,-1
 637 0 l 1,7,-1
 637 886 l 1,8,-1
 315 886 l 1,9,-1
 315 0 l 1,10,-1
 166 0 l 1,11,-1
 166 1416 l 1,12,-1
 55 1416 l 1,13,-1
 55 1500 l 1,14,-1
 166 1500 l 1,15,-1
 166 1760 l 1,16,-1
 315 1760 l 1,17,-1
 315 1500 l 1,18,-1
 637 1500 l 1,19,-1
 637 1760 l 1,0,-1
315 1416 m 1,20,-1
 315 998 l 1,21,-1
 637 998 l 1,22,-1
 637 1416 l 1,23,-1
 315 1416 l 1,20,-1
EndSplineSet
EndChar

StartChar: Lslash
Encoding: 321 321 227
Width: 705
Flags: W
LayerCount: 2
UndoRedoHistory
Layer: 1
Undoes
EndUndoes
Redoes
EndRedoes
EndUndoRedoHistory
Fore
SplineSet
166 1760 m 1,0,-1
 315 1760 l 1,1,-1
 315 1054 l 1,2,-1
 497 1133 l 1,3,-1
 497 1011 l 1,4,-1
 315 932 l 1,5,-1
 315 118 l 1,6,-1
 627 118 l 1,7,-1
 627 0 l 1,8,-1
 166 0 l 1,9,-1
 166 867 l 1,10,-1
 -1 794 l 1,11,-1
 -1 916 l 1,12,-1
 166 989 l 1,13,-1
 166 1760 l 1,0,-1
EndSplineSet
EndChar

StartChar: OE
Encoding: 338 338 231
Width: 1168
Flags: W
LayerCount: 2
UndoRedoHistory
Layer: 1
Undoes
EndUndoes
Redoes
EndRedoes
EndUndoRedoHistory
Fore
SplineSet
453 1760 m 2,0,-1
 1082 1760 l 1,1,-1
 1082 1644 l 1,2,-1
 755 1644 l 1,3,-1
 755 956 l 1,4,-1
 1063 956 l 1,5,-1
 1063 836 l 1,6,-1
 755 836 l 1,7,-1
 755 118 l 1,8,-1
 1080 118 l 1,9,-1
 1080 0 l 1,10,-1
 446 0 l 2,11,12
 300 0 300 0 226 76 c 0,13,14
 134 171 134 171 134 519 c 2,15,-1
 134 1269 l 2,16,17
 134 1466 134 1466 159 1552 c 0,18,19
 184 1638 184 1638 218 1676 c 0,20,21
 294 1760 294 1760 453 1760 c 2,0,-1
606 126 m 1,22,-1
 606 1634 l 1,23,-1
 453 1634 l 2,24,25
 354 1634 354 1634 318.5 1558 c 128,-1,26
 283 1482 283 1482 283 1282 c 2,27,-1
 283 518 l 2,28,29
 283 226 283 226 326 176 c 0,30,31
 369 126 369 126 446 126 c 2,32,-1
 606 126 l 1,22,-1
EndSplineSet
EndChar

StartChar: approxequal
Encoding: 8776 8776 263
Width: 1117
Flags: W
LayerCount: 2
UndoRedoHistory
Layer: 1
Undoes
EndUndoes
Redoes
EndRedoes
EndUndoRedoHistory
Fore
SplineSet
746 1044 m 1,0,1
 813 1053 813 1053 846 1162 c 1,2,-1
 989 1120 l 1,3,4
 955 986 955 986 904 950 c 0,5,6
 853 914 853 914 784 915 c 0,7,8
 715 915 715 915 561 955 c 128,-1,9
 407 995 407 995 353.5 995 c 128,-1,10
 300 995 300 995 260 902 c 1,11,-1
 132 937 l 1,12,13
 210 1123 210 1123 346 1123 c 0,14,15
 403 1123 403 1123 561 1083.5 c 128,-1,16
 719 1044 719 1044 746 1044 c 1,0,1
746 642 m 1,17,18
 813 649 813 649 846 760 c 1,19,-1
 989 718 l 1,20,21
 955 584 955 584 904 548 c 0,22,23
 853 512 853 512 784 513 c 0,24,25
 715 513 715 513 561 553 c 128,-1,26
 407 593 407 593 353.5 593 c 128,-1,27
 300 593 300 593 260 500 c 1,28,-1
 132 535 l 1,29,30
 211 721 211 721 346 721 c 0,31,32
 403 721 403 721 561 681.5 c 128,-1,33
 719 642 719 642 746 642 c 1,17,18
EndSplineSet
EndChar

StartChar: breve
Encoding: 728 728 264
Width: 1016
Flags: W
LayerCount: 2
UndoRedoHistory
Layer: 1
Undoes
EndUndoes
Redoes
EndRedoes
EndUndoRedoHistory
Fore
SplineSet
632 1823 m 1,0,-1
 696 1823 l 1,1,-1
 696 1810 l 2,2,3
 696 1722 696 1722 647.5 1670.5 c 128,-1,4
 599 1619 599 1619 506 1619 c 0,5,6
 413 1619 413 1619 364 1669.5 c 128,-1,7
 315 1720 315 1720 315 1808 c 2,8,-1
 315 1823 l 1,9,-1
 379 1823 l 1,10,11
 380 1710 380 1710 506 1710 c 0,12,13
 632 1710 632 1710 632 1823 c 1,0,-1
EndSplineSet
EndChar

StartChar: bullet
Encoding: 8226 8226 265
Width: 861
Flags: W
LayerCount: 2
UndoRedoHistory
Layer: 1
Undoes
EndUndoes
Redoes
EndRedoes
EndUndoRedoHistory
Fore
SplineSet
227 861 m 1,0,1
 226 1089 226 1089 430 1089 c 128,-1,2
 634 1089 634 1089 634 861 c 128,-1,3
 634 633 634 633 430 633 c 128,-1,4
 226 633 226 633 227 861 c 1,0,1
EndSplineSet
EndChar

StartChar: caron
Encoding: 711 711 267
Width: 970
Flags: W
LayerCount: 2
UndoRedoHistory
Layer: 1
Undoes
EndUndoes
Redoes
EndRedoes
EndUndoRedoHistory
Fore
SplineSet
571 1830 m 1,0,-1
 688 1830 l 1,1,-1
 568 1577 l 1,2,-1
 402 1577 l 1,3,-1
 281 1830 l 1,4,-1
 399 1830 l 1,5,-1
 485 1655 l 1,6,-1
 571 1830 l 1,0,-1
EndSplineSet
EndChar

StartChar: circumflex
Encoding: 710 710 271
Width: 970
Flags: W
LayerCount: 2
UndoRedoHistory
Layer: 1
Undoes
EndUndoes
Redoes
EndRedoes
EndUndoRedoHistory
Fore
SplineSet
402 1831 m 1,0,-1
 568 1831 l 1,1,-1
 688 1577 l 1,2,-1
 571 1577 l 1,3,-1
 485 1752 l 1,4,-1
 399 1577 l 1,5,-1
 281 1577 l 1,6,-1
 402 1831 l 1,0,-1
EndSplineSet
EndChar

StartChar: commaaccentcomb
Encoding: 806 806 272
Width: 528
Flags: W
LayerCount: 2
UndoRedoHistory
Layer: 1
Undoes
EndUndoes
Redoes
EndRedoes
EndUndoRedoHistory
Fore
SplineSet
168 242 m 1,0,-1
 365 242 l 1,1,-1
 365 59 l 1,2,-1
 287 -223 l 1,3,-1
 225 -223 l 1,4,-1
 268 50 l 1,5,-1
 168 50 l 1,6,-1
 168 242 l 1,0,-1
EndSplineSet
EndChar

StartChar: dagger
Encoding: 8224 8224 273
Width: 909
Flags: W
LayerCount: 2
UndoRedoHistory
Layer: 1
Undoes
EndUndoes
Redoes
EndRedoes
EndUndoRedoHistory
Fore
SplineSet
382 1592 m 1,0,-1
 530 1592 l 1,1,-1
 530 1182 l 1,2,-1
 818 1182 l 1,3,-1
 818 1066 l 1,4,-1
 530 1066 l 1,5,-1
 530 0 l 1,6,-1
 382 0 l 1,7,-1
 382 1066 l 1,8,-1
 91 1066 l 1,9,-1
 91 1182 l 1,10,-1
 382 1182 l 1,11,-1
 382 1592 l 1,0,-1
EndSplineSet
EndChar

StartChar: daggerdbl
Encoding: 8225 8225 274
Width: 830
Flags: W
LayerCount: 2
UndoRedoHistory
Layer: 1
Undoes
EndUndoes
Redoes
EndRedoes
EndUndoRedoHistory
Fore
SplineSet
757 1066 m 1,0,-1
 475 1066 l 1,1,-1
 475 612 l 1,2,-1
 757 612 l 1,3,-1
 757 506 l 1,4,-1
 475 506 l 1,5,-1
 475 0 l 1,6,-1
 358 0 l 1,7,-1
 358 506 l 1,8,-1
 73 506 l 1,9,-1
 73 612 l 1,10,-1
 358 612 l 1,11,-1
 358 1066 l 1,12,-1
 73 1066 l 1,13,-1
 73 1172 l 1,14,-1
 358 1172 l 1,15,-1
 358 1592 l 1,16,-1
 475 1592 l 1,17,-1
 475 1172 l 1,18,-1
 757 1172 l 1,19,-1
 757 1066 l 1,0,-1
EndSplineSet
EndChar

StartChar: dblgravecmb
Encoding: 783 783 275
Width: 626
Flags: W
LayerCount: 2
UndoRedoHistory
Layer: 1
Undoes
EndUndoes
Redoes
EndRedoes
EndUndoRedoHistory
Fore
SplineSet
89 1726 m 1,0,-1
 194 1783 l 1,1,-1
 294 1435 l 1,2,-1
 245 1411 l 1,3,-1
 89 1726 l 1,0,-1
340 1726 m 1,4,-1
 441 1783 l 1,5,-1
 504 1435 l 1,6,-1
 455 1411 l 1,7,-1
 340 1726 l 1,4,-1
EndSplineSet
EndChar

StartChar: dcroat
Encoding: 273 273 277
Width: 872
Flags: W
LayerCount: 2
UndoRedoHistory
Layer: 1
Undoes
EndUndoes
Redoes
EndRedoes
EndUndoRedoHistory
Fore
SplineSet
565 1037 m 1,0,1
 565 1043 565 1043 565 1050 c 0,2,3
 564 1234 564 1234 536 1308 c 0,4,5
 506 1386 506 1386 422 1385 c 1,6,-1
 421 1384 l 1,7,8
 336 1384 336 1384 307 1305 c 128,-1,9
 278 1226 278 1226 278 1030 c 2,10,-1
 278 436 l 2,11,12
 278 230 278 230 310.5 172 c 128,-1,13
 343 114 343 114 407 114 c 128,-1,14
 471 114 471 114 498.5 137.5 c 128,-1,15
 526 161 526 161 545.5 216 c 128,-1,16
 565 271 565 271 565 434 c 2,17,-1
 565 1037 l 1,0,1
564 1783 m 1,18,-1
 714 1783 l 1,19,-1
 714 1682 l 1,20,-1
 834 1682 l 1,21,-1
 834 1601 l 1,22,-1
 714 1601 l 1,23,-1
 714 0 l 1,24,-1
 564 0 l 1,25,-1
 564 114 l 1,26,27
 512 -11 512 -11 365 -11 c 0,28,29
 198 -10 198 -10 153 188 c 0,30,31
 128 297 128 297 128 481 c 2,32,-1
 128 1008 l 2,33,34
 128 1310 128 1310 200.5 1414 c 128,-1,35
 273 1518 273 1518 405 1518 c 0,36,37
 456 1518 456 1518 499.5 1481.5 c 128,-1,38
 543 1445 543 1445 564 1393 c 1,39,-1
 564 1601 l 1,40,-1
 211 1601 l 1,41,-1
 211 1682 l 1,42,-1
 564 1682 l 1,43,-1
 564 1783 l 1,18,-1
EndSplineSet
EndChar

StartChar: dotaccent
Encoding: 729 729 278
Width: 572
Flags: W
LayerCount: 2
UndoRedoHistory
Layer: 1
Undoes
EndUndoes
Redoes
EndRedoes
EndUndoRedoHistory
Fore
SplineSet
213 78 m 1,0,-1
 372 78 l 1,1,-1
 372 -55 l 1,2,-1
 213 -55 l 1,3,-1
 213 78 l 1,0,-1
EndSplineSet
EndChar

StartChar: dotlessi
Encoding: 305 305 279
Width: 474
Flags: W
LayerCount: 2
UndoRedoHistory
Layer: 1
Undoes
EndUndoes
Redoes
EndRedoes
EndUndoRedoHistory
Fore
SplineSet
162 1500 m 1,0,-1
 312 1500 l 1,1,-1
 312 0 l 1,2,-1
 162 0 l 1,3,-1
 162 1500 l 1,0,-1
EndSplineSet
EndChar

StartChar: emdash
Encoding: 8212 8212 284
Width: 1153
Flags: W
LayerCount: 2
UndoRedoHistory
Layer: 1
Undoes
EndUndoes
Redoes
EndRedoes
EndUndoRedoHistory
Fore
SplineSet
100 741 m 1,0,-1
 1052 741 l 1,1,-1
 1052 626 l 1,2,-1
 100 626 l 1,3,-1
 100 741 l 1,0,-1
EndSplineSet
EndChar

StartChar: endash
Encoding: 8211 8211 285
Width: 756
Flags: W
LayerCount: 2
UndoRedoHistory
Layer: 1
Undoes
EndUndoes
Redoes
EndRedoes
EndUndoRedoHistory
Fore
SplineSet
120 741 m 1,0,-1
 636 741 l 1,1,-1
 636 626 l 1,2,-1
 120 626 l 1,3,-1
 120 741 l 1,0,-1
EndSplineSet
EndChar

StartChar: florin
Encoding: 402 402 287
Width: 687
Flags: W
LayerCount: 2
UndoRedoHistory
Layer: 1
Undoes
EndUndoes
Redoes
EndRedoes
EndUndoRedoHistory
Fore
SplineSet
282 1563 m 2,0,1
 282 1720 282 1720 375 1760 c 0,2,3
 430 1783 430 1783 514 1783 c 0,4,5
 561 1783 561 1783 618 1776 c 1,6,-1
 618 1673 l 1,7,8
 556 1678 556 1678 533 1678 c 2,9,-1
 506 1678 l 2,10,11
 462 1678 462 1678 440.5 1651 c 128,-1,12
 419 1624 419 1624 419 1560 c 2,13,-1
 419 1044 l 1,14,-1
 635 1044 l 1,15,-1
 635 940 l 1,16,-1
 419 940 l 1,17,-1
 419 63 l 1,18,19
 420 -76 420 -76 338 -122 c 0,20,21
 279 -155 279 -155 169 -155 c 0,22,23
 128 -155 128 -155 81 -150 c 1,24,-1
 81 -52 l 1,25,26
 119 -54 119 -54 145.5 -54 c 128,-1,27
 172 -54 172 -54 198.5 -51.5 c 128,-1,28
 225 -49 225 -49 248 -28.5 c 128,-1,29
 271 -8 271 -8 276.5 24.5 c 128,-1,30
 282 57 282 57 282 123 c 2,31,-1
 282 940 l 1,32,-1
 77 940 l 1,33,-1
 77 1044 l 1,34,-1
 282 1044 l 1,35,-1
 282 1563 l 2,0,1
EndSplineSet
EndChar

StartChar: fraction
Encoding: 8260 8260 288
Width: 829
Flags: W
LayerCount: 2
UndoRedoHistory
Layer: 1
Undoes
EndUndoes
Redoes
EndRedoes
EndUndoRedoHistory
Fore
SplineSet
536 1768 m 1,0,-1
 673 1768 l 1,1,-1
 231 0 l 1,2,-1
 94 0 l 1,3,-1
 536 1768 l 1,0,-1
EndSplineSet
EndChar

StartChar: greaterequal
Encoding: 8805 8805 293
Width: 781
Flags: W
LayerCount: 2
UndoRedoHistory
Layer: 1
Undoes
EndUndoes
Redoes
EndRedoes
EndUndoRedoHistory
Fore
SplineSet
100 1042 m 1,0,-1
 100 1209 l 1,1,-1
 679 813 l 1,2,-1
 679 679 l 1,3,-1
 100 279 l 1,4,-1
 100 439 l 1,5,-1
 567 749 l 1,6,-1
 100 1042 l 1,0,-1
92 111 m 1,7,-1
 641 111 l 1,8,-1
 641 0 l 1,9,-1
 92 0 l 1,10,-1
 92 111 l 1,7,-1
EndSplineSet
EndChar

StartChar: guilsinglleft
Encoding: 8249 8249 294
Width: 606
Flags: W
LayerCount: 2
UndoRedoHistory
Layer: 1
Undoes
EndUndoes
Redoes
EndRedoes
EndUndoRedoHistory
Fore
SplineSet
82 794 m 1,0,-1
 548 1065 l 1,1,-1
 548 915 l 1,2,-1
 236 749 l 1,3,-1
 548 574 l 1,4,-1
 548 414 l 1,5,-1
 82 699 l 1,6,-1
 82 794 l 1,0,-1
EndSplineSet
EndChar

StartChar: guilsinglright
Encoding: 8250 8250 295
Width: 727
Flags: W
LayerCount: 2
UndoRedoHistory
Layer: 1
Undoes
EndUndoes
Redoes
EndRedoes
EndUndoRedoHistory
Fore
SplineSet
166 915 m 1,0,-1
 166 1065 l 1,1,-1
 632 794 l 1,2,-1
 632 699 l 1,3,-1
 166 414 l 1,4,-1
 166 574 l 1,5,-1
 478 749 l 1,6,-1
 166 915 l 1,0,-1
EndSplineSet
EndChar

StartChar: hbar
Encoding: 295 295 296
Width: 924
Flags: W
LayerCount: 2
UndoRedoHistory
Layer: 1
Undoes
EndUndoes
Redoes
EndRedoes
EndUndoRedoHistory
Fore
SplineSet
502 1381 m 0,0,1
 308 1381 308 1381 309 1191 c 1,2,-1
 309 0 l 1,3,-1
 160 0 l 1,4,-1
 160 1601 l 1,5,-1
 0 1601 l 1,6,-1
 0 1682 l 1,7,-1
 160 1682 l 1,8,-1
 160 1783 l 1,9,-1
 309 1783 l 1,10,-1
 309 1682 l 1,11,-1
 623 1682 l 1,12,-1
 623 1601 l 1,13,-1
 309 1601 l 1,14,-1
 309 1353 l 1,15,16
 329 1420 329 1420 398.5 1469.5 c 128,-1,17
 468 1519 468 1519 561 1519 c 128,-1,18
 654 1519 654 1519 713.5 1442 c 128,-1,19
 773 1365 773 1365 773 1211 c 2,20,-1
 773 0 l 1,21,-1
 623 0 l 1,22,-1
 623 1201 l 2,23,24
 623 1303 623 1303 587.5 1342 c 128,-1,25
 552 1381 552 1381 502 1381 c 0,0,1
EndSplineSet
EndChar

StartChar: hungarumlaut
Encoding: 733 733 298
Width: 882
Flags: W
LayerCount: 2
UndoRedoHistory
Layer: 1
Undoes
EndUndoes
Redoes
EndRedoes
EndUndoRedoHistory
Fore
SplineSet
449 1273 m 1,0,-1
 683 1783 l 1,1,-1
 790 1733 l 1,2,-1
 517 1241 l 1,3,-1
 449 1273 l 1,0,-1
198 1281 m 1,4,-1
 375 1783 l 1,5,-1
 479 1744 l 1,6,-1
 267 1252 l 1,7,-1
 198 1281 l 1,4,-1
EndSplineSet
EndChar

StartChar: infinity
Encoding: 8734 8734 302
Width: 1300
Flags: W
LayerCount: 2
UndoRedoHistory
Layer: 1
Undoes
EndUndoes
Redoes
EndRedoes
EndUndoRedoHistory
Fore
SplineSet
639 855 m 1,0,1
 706 939 706 939 781 990 c 128,-1,2
 856 1041 856 1041 912 1041 c 0,3,4
 1042 1041 1042 1041 1122 959.5 c 128,-1,5
 1202 878 1202 878 1202 742 c 128,-1,6
 1202 606 1202 606 1122 522.5 c 128,-1,7
 1042 439 1042 439 912 439 c 0,8,9
 851 439 851 439 776 487.5 c 128,-1,10
 701 536 701 536 639 615 c 1,11,12
 574 541 574 541 500 496.5 c 128,-1,13
 426 452 426 452 370 452 c 0,14,15
 244 452 244 452 166 532 c 0,16,17
 88 612 88 612 88 742 c 128,-1,18
 88 872 88 872 165.5 950 c 128,-1,19
 243 1028 243 1028 370 1028 c 0,20,21
 422 1028 422 1028 495.5 980.5 c 128,-1,22
 569 933 569 933 639 855 c 1,0,1
588 740 m 1,23,24
 542 813 542 813 484 857 c 0,25,26
 424 901 424 901 364 901 c 128,-1,27
 304 901 304 901 261 857 c 128,-1,28
 218 813 218 813 218 740 c 128,-1,29
 218 667 218 667 261 622.5 c 128,-1,30
 304 578 304 578 364 578 c 128,-1,31
 424 578 424 578 483 622.5 c 128,-1,32
 542 667 542 667 588 740 c 1,23,24
1074 740 m 128,-1,34
 1074 813 1074 813 1029 857.5 c 128,-1,35
 984 902 984 902 921 902 c 128,-1,36
 858 902 858 902 795.5 857.5 c 128,-1,37
 733 813 733 813 683 740 c 1,38,39
 729 667 729 667 791.5 622.5 c 128,-1,40
 854 578 854 578 919 578 c 128,-1,41
 984 578 984 578 1029 622.5 c 128,-1,33
 1074 667 1074 667 1074 740 c 128,-1,34
EndSplineSet
EndChar

StartChar: integral
Encoding: 8747 8747 303
Width: 767
Flags: W
LayerCount: 2
UndoRedoHistory
Layer: 1
Undoes
EndUndoes
Redoes
EndRedoes
EndUndoRedoHistory
Fore
SplineSet
316 1539 m 2,0,1
 316 1787 316 1787 496 1787 c 0,2,3
 558 1787 558 1787 652 1752 c 1,4,-1
 652 1630 l 1,5,6
 575 1654 575 1654 533 1654 c 0,7,8
 491 1654 491 1654 472 1623 c 128,-1,9
 453 1592 453 1592 453 1521 c 2,10,-1
 453 221 l 2,11,12
 453 -12 453 -12 252 -12 c 0,13,14
 194 -12 194 -12 115 8 c 1,15,-1
 115 130 l 1,16,17
 155 128 155 128 170 128 c 0,18,19
 264 128 264 128 290 161 c 128,-1,20
 316 194 316 194 316 305 c 2,21,-1
 316 1539 l 2,0,1
EndSplineSet
EndChar

StartChar: kgreenlandic
Encoding: 312 312 308
Width: 835
Flags: W
LayerCount: 2
UndoRedoHistory
Layer: 1
Undoes
EndUndoes
Redoes
EndRedoes
EndUndoRedoHistory
Fore
SplineSet
160 1500 m 1,0,-1
 309 1500 l 1,1,-1
 309 760 l 1,2,-1
 640 1500 l 1,3,-1
 789 1500 l 1,4,-1
 448 756 l 1,5,-1
 807 0 l 1,6,-1
 651 0 l 1,7,-1
 309 742 l 1,8,-1
 309 0 l 1,9,-1
 160 0 l 1,10,-1
 160 1500 l 1,0,-1
EndSplineSet
EndChar

StartChar: lessequal
Encoding: 8804 8804 313
Width: 781
Flags: W
LayerCount: 2
UndoRedoHistory
Layer: 1
Undoes
EndUndoes
Redoes
EndRedoes
EndUndoRedoHistory
Fore
SplineSet
59 813 m 1,0,-1
 638 1209 l 1,1,-1
 638 1042 l 1,2,-1
 171 749 l 1,3,-1
 638 439 l 1,4,-1
 638 279 l 1,5,-1
 59 679 l 1,6,-1
 59 813 l 1,0,-1
93 111 m 1,7,-1
 642 111 l 1,8,-1
 642 0 l 1,9,-1
 93 0 l 1,10,-1
 93 111 l 1,7,-1
EndSplineSet
EndChar

StartChar: lozenge
Encoding: 9674 9674 314
Width: 921
Flags: W
LayerCount: 2
UndoRedoHistory
Layer: 1
Undoes
EndUndoes
Redoes
EndRedoes
EndUndoRedoHistory
Fore
SplineSet
367 1760 m 1,0,-1
 558 1760 l 1,1,-1
 807 883 l 1,2,-1
 558 0 l 1,3,-1
 367 0 l 1,4,-1
 114 883 l 1,5,-1
 367 1760 l 1,0,-1
659 883 m 1,6,-1
 465 1623 l 1,7,-1
 453 1623 l 1,8,-1
 259 883 l 1,9,-1
 453 129 l 1,10,-1
 465 129 l 1,11,-1
 659 883 l 1,6,-1
EndSplineSet
EndChar

StartChar: lslash
Encoding: 322 322 315
Width: 731
Flags: W
LayerCount: 2
UndoRedoHistory
Layer: 1
Undoes
EndUndoes
Redoes
EndRedoes
EndUndoRedoHistory
Fore
SplineSet
256 1783 m 1,0,-1
 406 1783 l 1,1,-1
 406 1060 l 1,2,-1
 610 1153 l 1,3,-1
 610 1010 l 1,4,-1
 406 917 l 1,5,-1
 406 0 l 1,6,-1
 256 0 l 1,7,-1
 256 849 l 1,8,-1
 99 778 l 1,9,-1
 99 921 l 1,10,-1
 256 992 l 1,11,-1
 256 1783 l 1,0,-1
EndSplineSet
EndChar

StartChar: minus
Encoding: 8722 8722 316
Width: 637
Flags: W
LayerCount: 2
UndoRedoHistory
Layer: 1
Undoes
EndUndoes
Redoes
EndRedoes
EndUndoRedoHistory
Fore
SplineSet
20 741 m 1,0,-1
 616 741 l 1,1,-1
 616 626 l 1,2,-1
 20 626 l 1,3,-1
 20 741 l 1,0,-1
EndSplineSet
EndChar

StartChar: mu
Encoding: 956 956 317
Width: 915
Flags: W
LayerCount: 2
UndoRedoHistory
Layer: 1
Undoes
EndUndoes
Redoes
EndRedoes
EndUndoRedoHistory
Fore
SplineSet
298 -186 m 1,0,-1
 148 -186 l 1,1,-1
 148 1500 l 1,2,-1
 298 1500 l 1,3,-1
 298 125 l 1,4,5
 334 82 334 82 408 82 c 0,6,7
 482 82 482 82 547 140.5 c 128,-1,8
 612 199 612 199 612 300 c 2,9,-1
 612 1500 l 1,10,-1
 762 1500 l 1,11,-1
 762 0 l 1,12,-1
 613 0 l 1,13,-1
 613 150 l 1,14,15
 595 85 595 85 540.5 32.5 c 128,-1,16
 486 -20 486 -20 412 -20 c 0,17,18
 338 -20 338 -20 298 7 c 1,19,-1
 298 -186 l 1,0,-1
EndSplineSet
EndChar

StartChar: oe
Encoding: 339 339 323
Width: 1241
Flags: W
LayerCount: 2
UndoRedoHistory
Layer: 1
Undoes
EndUndoes
Redoes
EndRedoes
EndUndoRedoHistory
Fore
SplineSet
643 1396 m 1,0,1
 720 1518 720 1518 860 1518 c 128,-1,2
 1000 1518 1000 1518 1054 1447 c 0,3,4
 1084 1408 1084 1408 1101 1370 c 0,5,6
 1135 1294 1135 1294 1137 1002 c 1,7,-1
 1137 754 l 1,8,-1
 716 754 l 1,9,-1
 716 450 l 2,10,11
 716 217 716 217 751 165 c 0,12,13
 786 112 786 112 853 112 c 0,14,-1
 854 112 l 0,15,16
 967 112 967 112 980 251 c 0,17,18
 987 326 987 326 987 439 c 2,19,-1
 987 556 l 1,20,-1
 1132 556 l 1,21,-1
 1132 505 l 2,22,23
 1132 284 1132 284 1117 201 c 0,24,25
 1091 53 1091 53 992 7 c 0,26,27
 939 -18 939 -18 859 -18 c 0,28,29
 711 -18 711 -18 636 106 c 1,30,31
 562 -18 562 -18 425 -18 c 0,32,33
 255 -18 255 -18 192 94 c 0,34,35
 150 170 150 170 139 271 c 128,-1,36
 128 372 128 372 128 515 c 2,37,-1
 128 1018 l 2,38,39
 128 1280 128 1280 177 1376 c 128,-1,40
 226 1472 226 1472 310 1500 c 0,41,42
 360 1516 360 1516 425 1518 c 0,43,44
 568 1522 568 1522 643 1396 c 1,0,1
567 1053 m 2,45,46
 567 1258 567 1258 531.5 1323 c 128,-1,47
 496 1388 496 1388 427 1388 c 128,-1,48
 358 1388 358 1388 321 1336 c 0,49,50
 277 1273 277 1273 277 1084 c 0,51,52
 277 1069 277 1069 277 1053 c 1,53,-1
 277 463 l 1,54,55
 278 242 278 242 314 177 c 0,56,57
 349 113 349 113 423 113 c 0,58,59
 424 113 424 113 425 113 c 1,60,61
 552 113 552 113 564 345 c 0,62,63
 566 393 566 393 567 463 c 1,64,-1
 567 1053 l 2,45,46
988 874 m 1,65,-1
 988 1138 l 2,66,67
 988 1271 988 1271 978 1295.5 c 128,-1,68
 968 1320 968 1320 962 1336 c 0,69,70
 942 1387 942 1387 868 1387 c 0,71,72
 759 1387 759 1387 732 1261 c 0,73,74
 717 1189 717 1189 717 1063 c 2,75,-1
 717 874 l 1,76,-1
 988 874 l 1,65,-1
EndSplineSet
EndChar

StartChar: ogonek
Encoding: 731 731 324
Width: 456
Flags: W
LayerCount: 2
UndoRedoHistory
Layer: 1
Undoes
EndUndoes
Redoes
EndRedoes
EndUndoRedoHistory
Fore
SplineSet
390 -411 m 1,0,1
 346 -431 346 -431 262 -431 c 0,2,3
 69 -431 69 -431 69 -286 c 0,4,5
 69 -216 69 -216 113 -141 c 128,-1,6
 157 -66 157 -66 245 0 c 1,7,-1
 309 0 l 1,8,9
 236 -62 236 -62 199.5 -129.5 c 128,-1,10
 163 -197 163 -197 163 -252 c 0,11,12
 163 -339 163 -339 271 -339 c 0,13,14
 323 -339 323 -339 356 -329 c 128,-1,15
 389 -319 389 -319 390 -318 c 1,16,-1
 390 -411 l 1,0,1
EndSplineSet
EndChar

StartChar: partialdiff
Encoding: 8706 8706 327
Width: 961
Flags: W
LayerCount: 2
UndoRedoHistory
Layer: 1
Undoes
EndUndoes
Redoes
EndRedoes
EndUndoRedoHistory
Fore
SplineSet
335 1034.5 m 128,-1,1
 419 1093 419 1093 503 1093 c 128,-1,2
 587 1093 587 1093 709 1047 c 1,3,4
 721 1198 721 1198 721 1264 c 0,5,6
 721 1390 721 1390 678 1467.5 c 128,-1,7
 635 1545 635 1545 516.5 1545 c 128,-1,8
 398 1545 398 1545 225 1485 c 1,9,-1
 201 1607 l 1,10,11
 408 1673 408 1673 542 1673 c 0,12,13
 716 1673 716 1673 792.5 1564 c 128,-1,14
 869 1455 869 1455 869 1227 c 0,15,16
 869 1104 869 1104 847 925 c 2,17,-1
 783 417 l 1,18,19
 757 201 757 201 652 92 c 128,-1,20
 547 -17 547 -17 427.5 -17 c 128,-1,21
 308 -17 308 -17 230 49 c 0,22,23
 82 173 82 173 82 427.5 c 128,-1,24
 82 682 82 682 197 882 c 0,25,0
 251 976 251 976 335 1034.5 c 128,-1,1
687 919 m 1,26,27
 581 960 581 960 523.5 960 c 128,-1,28
 466 960 466 960 411 912 c 128,-1,29
 356 864 356 864 321 787 c 0,30,31
 246 623 246 623 246 432 c 0,32,33
 246 245 246 245 320 162 c 0,34,35
 358 118 358 118 422 118 c 0,36,37
 423 117 l 0,38,39
 487 117 487 117 547 196 c 0,40,41
 608 275 608 275 626 419 c 2,42,-1
 687 919 l 1,26,27
EndSplineSet
EndChar

StartChar: perthousand
Encoding: 8240 8240 328
Width: 2930
Flags: W
LayerCount: 2
UndoRedoHistory
Layer: 1
Undoes
EndUndoes
Redoes
EndRedoes
EndUndoRedoHistory
Fore
SplineSet
1347 1760 m 1,0,-1
 1487 1760 l 1,1,-1
 765 0 l 1,2,-1
 617 0 l 1,3,-1
 1347 1760 l 1,0,-1
576 1436 m 2,4,5
 576 1559 576 1559 547.5 1602.5 c 128,-1,6
 519 1646 519 1646 439.5 1646 c 128,-1,7
 360 1646 360 1646 331 1602.5 c 128,-1,8
 302 1559 302 1559 302 1436 c 2,9,-1
 302 936 l 2,10,11
 302 808 302 808 330.5 763 c 128,-1,12
 359 718 359 718 439 718 c 128,-1,13
 519 718 519 718 547.5 763 c 128,-1,14
 576 808 576 808 576 936 c 2,15,-1
 576 1436 l 2,4,5
155 1364 m 1,16,17
 156 1657 156 1657 244 1730 c 0,18,19
 308 1783 308 1783 439 1783 c 128,-1,20
 570 1783 570 1783 635 1730 c 0,21,22
 724 1657 724 1657 724 1364 c 2,23,-1
 724 1012 l 2,24,25
 724 881 724 881 711.5 800.5 c 128,-1,26
 699 720 699 720 665 669.5 c 128,-1,27
 631 619 631 619 578.5 600 c 128,-1,28
 526 581 526 581 439.5 581 c 128,-1,29
 353 581 353 581 300 600 c 128,-1,30
 247 619 247 619 213.5 669.5 c 128,-1,31
 180 720 180 720 167.5 800.5 c 128,-1,32
 155 881 155 881 155 1012 c 2,33,-1
 155 1364 l 1,16,17
1399 763 m 1,34,35
 1400 1056 1400 1056 1488 1128 c 0,36,37
 1552 1180 1552 1180 1683 1180 c 128,-1,38
 1814 1180 1814 1180 1878 1128 c 0,39,40
 1966 1055 1966 1055 1967 763 c 1,41,-1
 1967 411 l 2,42,43
 1967 280 1967 280 1954.5 199.5 c 128,-1,44
 1942 119 1942 119 1908.5 69 c 128,-1,45
 1875 19 1875 19 1822 0 c 128,-1,46
 1769 -19 1769 -19 1683 -19 c 128,-1,47
 1597 -19 1597 -19 1544 0 c 128,-1,48
 1491 19 1491 19 1457.5 69 c 128,-1,49
 1424 119 1424 119 1411.5 199.5 c 128,-1,50
 1399 280 1399 280 1399 411 c 2,51,-1
 1399 763 l 1,34,35
1820 835 m 2,52,53
 1820 958 1820 958 1791 1001.5 c 128,-1,54
 1762 1045 1762 1045 1682.5 1045 c 128,-1,55
 1603 1045 1603 1045 1574.5 1001.5 c 128,-1,56
 1546 958 1546 958 1546 835 c 2,57,-1
 1546 335 l 2,58,59
 1546 207 1546 207 1574.5 162 c 128,-1,60
 1603 117 1603 117 1683 117 c 128,-1,61
 1763 117 1763 117 1791.5 162 c 128,-1,62
 1820 207 1820 207 1820 335 c 2,63,-1
 1820 835 l 2,52,53
2207 763 m 1,64,65
 2208 1056 2208 1056 2296 1128 c 0,66,67
 2360 1180 2360 1180 2491 1180 c 128,-1,68
 2622 1180 2622 1180 2686 1128 c 0,69,70
 2774 1055 2774 1055 2775 763 c 1,71,-1
 2775 411 l 2,72,73
 2775 280 2775 280 2762.5 199.5 c 128,-1,74
 2750 119 2750 119 2716.5 69 c 128,-1,75
 2683 19 2683 19 2630 0 c 128,-1,76
 2577 -19 2577 -19 2491 -19 c 128,-1,77
 2405 -19 2405 -19 2352 0 c 128,-1,78
 2299 19 2299 19 2265.5 69 c 128,-1,79
 2232 119 2232 119 2219.5 199.5 c 128,-1,80
 2207 280 2207 280 2207 411 c 2,81,-1
 2207 763 l 1,64,65
2628 835 m 2,82,83
 2628 958 2628 958 2599.5 1001.5 c 128,-1,84
 2571 1045 2571 1045 2491.5 1045 c 128,-1,85
 2412 1045 2412 1045 2383 1001.5 c 128,-1,86
 2354 958 2354 958 2354 835 c 2,87,-1
 2354 335 l 2,88,89
 2354 207 2354 207 2382.5 162 c 128,-1,90
 2411 117 2411 117 2491 117 c 128,-1,91
 2571 117 2571 117 2599.5 162 c 128,-1,92
 2628 207 2628 207 2628 335 c 2,93,-1
 2628 835 l 2,82,83
EndSplineSet
EndChar

StartChar: product
Encoding: 8719 8719 329
Width: 955
Flags: W
LayerCount: 2
UndoRedoHistory
Layer: 1
Undoes
EndUndoes
Redoes
EndRedoes
EndUndoRedoHistory
Fore
SplineSet
166 1760 m 1,0,-1
 789 1760 l 1,1,-1
 789 0 l 1,2,-1
 639 0 l 1,3,-1
 639 1649 l 1,4,-1
 316 1649 l 1,5,-1
 316 0 l 1,6,-1
 166 0 l 1,7,-1
 166 1760 l 1,0,-1
EndSplineSet
EndChar

StartChar: quotedblbase
Encoding: 8222 8222 330
Width: 1016
Flags: W
LayerCount: 2
UndoRedoHistory
Layer: 1
Undoes
EndUndoes
Redoes
EndRedoes
EndUndoRedoHistory
Fore
SplineSet
628 206 m 1,0,-1
 903 206 l 1,1,-1
 903 9 l 1,2,-1
 783 -428 l 1,3,-1
 680 -428 l 1,4,-1
 774 0 l 1,5,-1
 628 0 l 1,6,-1
 628 206 l 1,0,-1
181 206 m 1,7,-1
 456 206 l 1,8,-1
 456 9 l 1,9,-1
 336 -428 l 1,10,-1
 233 -428 l 1,11,-1
 327 0 l 1,12,-1
 181 0 l 1,13,-1
 181 206 l 1,7,-1
EndSplineSet
EndChar

StartChar: quotedblleft
Encoding: 8220 8220 331
Width: 1030
Flags: W
LayerCount: 2
UndoRedoHistory
Layer: 1
Undoes
EndUndoes
Redoes
EndRedoes
EndUndoRedoHistory
Fore
SplineSet
742 1783 m 1,0,-1
 845 1783 l 1,1,-1
 752 1355 l 1,2,-1
 898 1355 l 1,3,-1
 898 1149 l 1,4,-1
 623 1149 l 1,5,-1
 623 1346 l 1,6,-1
 742 1783 l 1,0,-1
295 1783 m 1,7,-1
 399 1783 l 1,8,-1
 305 1355 l 1,9,-1
 451 1355 l 1,10,-1
 451 1149 l 1,11,-1
 176 1149 l 1,12,-1
 176 1346 l 1,13,-1
 295 1783 l 1,7,-1
EndSplineSet
EndChar

StartChar: quotedblright
Encoding: 8221 8221 332
Width: 1077
Flags: W
LayerCount: 2
UndoRedoHistory
Layer: 1
Undoes
EndUndoes
Redoes
EndRedoes
EndUndoRedoHistory
Fore
SplineSet
638 1783 m 1,0,-1
 913 1783 l 1,1,-1
 913 1585 l 1,2,-1
 793 1148 l 1,3,-1
 690 1148 l 1,4,-1
 783 1576 l 1,5,-1
 638 1576 l 1,6,-1
 638 1783 l 1,0,-1
191 1783 m 1,7,-1
 466 1783 l 1,8,-1
 466 1585 l 1,9,-1
 346 1148 l 1,10,-1
 243 1148 l 1,11,-1
 337 1576 l 1,12,-1
 191 1576 l 1,13,-1
 191 1783 l 1,7,-1
EndSplineSet
EndChar

StartChar: quoteleft
Encoding: 8216 8216 333
Width: 597
Flags: W
LayerCount: 2
UndoRedoHistory
Layer: 1
Undoes
EndUndoes
Redoes
EndRedoes
EndUndoRedoHistory
Fore
SplineSet
281 1783 m 1,0,-1
 387 1783 l 1,1,-1
 296 1365 l 1,2,-1
 438 1365 l 1,3,-1
 438 1163 l 1,4,-1
 167 1163 l 1,5,-1
 167 1356 l 1,6,-1
 281 1783 l 1,0,-1
EndSplineSet
EndChar

StartChar: quoteright
Encoding: 8217 8217 334
Width: 597
Flags: W
LayerCount: 2
UndoRedoHistory
Layer: 1
Undoes
EndUndoes
Redoes
EndRedoes
EndUndoRedoHistory
Fore
SplineSet
189 1783 m 1,0,-1
 460 1783 l 1,1,-1
 460 1589 l 1,2,-1
 346 1163 l 1,3,-1
 240 1163 l 1,4,-1
 331 1580 l 1,5,-1
 189 1580 l 1,6,-1
 189 1783 l 1,0,-1
EndSplineSet
EndChar

StartChar: quotesinglbase
Encoding: 8218 8218 335
Width: 484
Flags: W
LayerCount: 2
UndoRedoHistory
Layer: 1
Undoes
EndUndoes
Redoes
EndRedoes
EndUndoRedoHistory
Fore
SplineSet
113 207 m 1,0,-1
 388 207 l 1,1,-1
 388 9 l 1,2,-1
 269 -437 l 1,3,-1
 166 -437 l 1,4,-1
 259 0 l 1,5,-1
 113 0 l 1,6,-1
 113 207 l 1,0,-1
EndSplineSet
EndChar

StartChar: radical
Encoding: 8730 8730 337
Width: 1152
Flags: W
LayerCount: 2
UndoRedoHistory
Layer: 1
Undoes
EndUndoes
Redoes
EndRedoes
EndUndoRedoHistory
Fore
SplineSet
638 1500 m 1,0,-1
 1091 1500 l 1,1,-1
 1091 1367 l 1,2,-1
 777 1367 l 1,3,-1
 503 0 l 1,4,-1
 349 0 l 1,5,-1
 58 741 l 1,6,-1
 197 741 l 1,7,-1
 411 218 l 1,8,-1
 638 1500 l 1,0,-1
EndSplineSet
EndChar

StartChar: ring
Encoding: 730 730 340
Width: 923
Flags: W
LayerCount: 2
UndoRedoHistory
Layer: 1
Undoes
EndUndoes
Redoes
EndRedoes
EndUndoRedoHistory
Fore
SplineSet
338.5 1523 m 128,-1,1
 294 1569 294 1569 294 1629.5 c 128,-1,2
 294 1690 294 1690 338.5 1736.5 c 128,-1,3
 383 1783 383 1783 463.5 1783 c 128,-1,4
 544 1783 544 1783 588 1736.5 c 128,-1,5
 632 1690 632 1690 632 1629 c 128,-1,6
 632 1568 632 1568 588 1522.5 c 128,-1,7
 544 1477 544 1477 463.5 1477 c 128,-1,0
 383 1477 383 1477 338.5 1523 c 128,-1,1
563 1630 m 128,-1,9
 563 1672 563 1672 536.5 1702 c 128,-1,10
 510 1732 510 1732 464 1732 c 128,-1,11
 418 1732 418 1732 392 1701.5 c 128,-1,12
 366 1671 366 1671 366 1630 c 128,-1,13
 366 1589 366 1589 392 1558.5 c 128,-1,14
 418 1528 418 1528 464 1528 c 128,-1,15
 510 1528 510 1528 536.5 1558 c 128,-1,8
 563 1588 563 1588 563 1630 c 128,-1,9
EndSplineSet
EndChar

StartChar: summation
Encoding: 8721 8721 346
Width: 681
Flags: W
LayerCount: 2
UndoRedoHistory
Layer: 1
Undoes
EndUndoes
Redoes
EndRedoes
EndUndoRedoHistory
Fore
SplineSet
102 1760 m 1,0,-1
 553 1760 l 1,1,-1
 553 1649 l 1,2,-1
 265 1649 l 1,3,-1
 505 880 l 1,4,-1
 265 125 l 1,5,-1
 553 125 l 1,6,-1
 553 0 l 1,7,-1
 102 0 l 1,8,-1
 102 101 l 1,9,-1
 347 881 l 1,10,-1
 102 1673 l 1,11,-1
 102 1760 l 1,0,-1
EndSplineSet
EndChar

StartChar: tilde
Encoding: 732 732 348
Width: 683
Flags: W
LayerCount: 2
UndoRedoHistory
Layer: 1
Undoes
EndUndoes
Redoes
EndRedoes
EndUndoRedoHistory
Fore
SplineSet
50 1650 m 1,0,1
 78 1746 78 1746 120 1764 c 0,2,3
 203 1800 203 1800 212 1783 c 0,4,5
 213 1781 213 1781 214 1783 c 0,6,7
 222 1799 222 1799 354 1748 c 0,8,9
 450 1711 450 1711 468 1711 c 2,10,-1
 472 1711 l 1,11,12
 489 1714 489 1714 501.5 1728 c 128,-1,13
 514 1742 514 1742 528 1783 c 1,14,-1
 633 1754 l 1,15,-1
 624 1728 l 1,16,17
 595 1637 595 1637 565.5 1610 c 128,-1,18
 536 1583 536 1583 487 1583 c 128,-1,19
 438 1583 438 1583 348 1624 c 0,20,21
 259 1665 259 1665 230 1665 c 0,22,-1
 230 1664 l 0,23,24
 202 1664 202 1664 186 1660.5 c 128,-1,25
 170 1657 170 1657 143 1604 c 1,26,-1
 50 1650 l 1,0,1
EndSplineSet
EndChar

StartChar: trademark
Encoding: 8482 8482 349
Width: 1407
Flags: W
LayerCount: 2
UndoRedoHistory
Layer: 1
Undoes
EndUndoes
Redoes
EndRedoes
EndUndoRedoHistory
Fore
SplineSet
1143 1760 m 1,0,-1
 1274 1760 l 1,1,-1
 1274 447 l 1,2,-1
 1179 447 l 1,3,-1
 1179 1005 l 1,4,-1
 1195 1525 l 1,5,-1
 1013 447 l 1,6,-1
 899 447 l 1,7,-1
 710 1525 l 1,8,-1
 727 1005 l 1,9,-1
 727 447 l 1,10,-1
 631 447 l 1,11,-1
 631 1760 l 1,12,-1
 763 1760 l 1,13,-1
 956 562 l 1,14,-1
 1143 1760 l 1,0,-1
123 1760 m 1,15,-1
 492 1760 l 1,16,-1
 492 1674 l 1,17,-1
 369 1674 l 1,18,-1
 369 447 l 1,19,-1
 260 447 l 1,20,-1
 260 1674 l 1,21,-1
 123 1674 l 1,22,-1
 123 1760 l 1,15,-1
EndSplineSet
EndChar

StartChar: uni0237
Encoding: 567 567 393
Width: 479
Flags: W
LayerCount: 2
UndoRedoHistory
Layer: 1
Undoes
EndUndoes
Redoes
EndRedoes
EndUndoRedoHistory
Fore
SplineSet
274 -185 m 0,0,1
 252 -203 252 -203 229 -213.5 c 128,-1,2
 206 -224 206 -224 154 -224 c 128,-1,3
 102 -224 102 -224 72 -218 c 1,4,-1
 68 -218 l 1,5,-1
 68 -110 l 1,6,7
 88 -114 88 -114 106 -114 c 0,8,9
 124 -114 124 -114 140 -111 c 0,10,11
 176 -105 176 -105 176 -44 c 2,12,-1
 176 1500 l 1,13,-1
 325 1500 l 1,14,-1
 325 -34 l 1,15,16
 324 -145 324 -145 274 -185 c 0,0,1
EndSplineSet
EndChar

StartChar: uni02C9
Encoding: 713 713 394
Width: 696
Flags: W
LayerCount: 2
UndoRedoHistory
Layer: 1
Undoes
EndUndoes
Redoes
EndRedoes
EndUndoRedoHistory
Fore
SplineSet
90 741 m 1,0,-1
 606 741 l 1,1,-1
 606 626 l 1,2,-1
 90 626 l 1,3,-1
 90 741 l 1,0,-1
EndSplineSet
EndChar

StartChar: uni0307
Encoding: 775 775 395
Width: 572
Flags: W
LayerCount: 2
UndoRedoHistory
Layer: 1
Undoes
EndUndoes
Redoes
EndRedoes
EndUndoRedoHistory
Fore
SplineSet
215 310 m 1,0,-1
 383 310 l 1,1,-1
 383 -8 l 1,2,-1
 215 -8 l 1,3,-1
 215 310 l 1,0,-1
EndSplineSet
EndChar

StartChar: uni0311
Encoding: 785 785 396
Width: 1016
Flags: W
LayerCount: 2
UndoRedoHistory
Layer: 1
Undoes
EndUndoes
Redoes
EndRedoes
EndUndoRedoHistory
Fore
SplineSet
313 1596 m 1,0,-1
 313 1616 l 2,1,2
 313 1699 313 1699 360 1753 c 128,-1,3
 407 1807 407 1807 499 1807 c 0,4,5
 500 1806 500 1806 501 1806 c 0,6,7
 595 1807 595 1807 644 1760 c 128,-1,8
 693 1713 693 1713 695 1624 c 1,9,-1
 695 1609 l 1,10,-1
 631 1606 l 1,11,12
 629 1715 629 1715 502 1715 c 128,-1,13
 375 1715 375 1715 377 1599 c 1,14,-1
 313 1596 l 1,0,-1
EndSplineSet
EndChar

StartChar: uni2074
Encoding: 8308 8308 411
Width: 857
Flags: W
LayerCount: 2
UndoRedoHistory
Layer: 1
Undoes
EndUndoes
Redoes
EndRedoes
EndUndoRedoHistory
Fore
SplineSet
495 1760 m 1,0,-1
 580 1760 l 1,1,-1
 580 873 l 1,2,-1
 688 873 l 1,3,-1
 688 795 l 1,4,-1
 580 795 l 1,5,-1
 580 554 l 1,6,-1
 489 554 l 1,7,-1
 489 795 l 1,8,-1
 224 795 l 1,9,-1
 224 862 l 1,10,-1
 495 1760 l 1,0,-1
489 873 m 1,11,-1
 489 1533 l 1,12,-1
 310 873 l 1,13,-1
 489 873 l 1,11,-1
EndSplineSet
EndChar

StartChar: uni2215
Encoding: 8725 8725 412
Width: 767
Flags: W
LayerCount: 2
UndoRedoHistory
Layer: 1
Undoes
EndUndoes
Redoes
EndRedoes
EndUndoRedoHistory
Fore
SplineSet
536 1783 m 1,0,-1
 673 1783 l 1,1,-1
 231 0 l 1,2,-1
 94 0 l 1,3,-1
 536 1783 l 1,0,-1
EndSplineSet
EndChar

StartChar: uniFB00
Encoding: 65539 -1 414
Width: 1220
Flags: W
LayerCount: 2
UndoRedoHistory
Layer: 1
Undoes
EndUndoes
Redoes
EndRedoes
EndUndoRedoHistory
Fore
SplineSet
834 1442 m 1,0,-1
 834 1512 l 2,1,2
 834 1650 834 1650 883 1719.5 c 128,-1,3
 932 1789 932 1789 1048 1789 c 0,4,5
 1129 1789 1129 1789 1183 1771 c 1,6,-1
 1183 1650 l 1,7,8
 1138 1657 1138 1657 1082 1657 c 0,9,10
 1026 1657 1026 1657 1005 1627.5 c 128,-1,11
 984 1598 984 1598 984 1534 c 2,12,-1
 984 1442 l 1,13,-1
 1183 1442 l 1,14,-1
 1183 1329 l 1,15,-1
 984 1329 l 1,16,-1
 984 0 l 1,17,-1
 834 0 l 1,18,-1
 834 1329 l 1,19,-1
 374 1329 l 1,20,-1
 374 0 l 1,21,-1
 224 0 l 1,22,-1
 224 1329 l 1,23,-1
 84 1329 l 1,24,-1
 84 1442 l 1,25,-1
 224 1442 l 1,26,-1
 224 1512 l 2,27,28
 224 1650 224 1650 273 1719.5 c 128,-1,29
 322 1789 322 1789 438 1789 c 0,30,31
 519 1789 519 1789 573 1771 c 1,32,-1
 573 1650 l 1,33,34
 528 1657 528 1657 472 1657 c 0,35,36
 416 1657 416 1657 395 1627.5 c 128,-1,37
 374 1598 374 1598 374 1534 c 2,38,-1
 374 1442 l 1,39,-1
 834 1442 l 1,0,-1
EndSplineSet
EndChar

StartChar: uniFB01
Encoding: 64257 64257 415
Width: 1084
Flags: W
LayerCount: 2
UndoRedoHistory
Layer: 1
Undoes
EndUndoes
Redoes
EndRedoes
EndUndoRedoHistory
Fore
SplineSet
922 1615 m 1,0,-1
 772 1615 l 1,1,-1
 772 1800 l 1,2,-1
 922 1800 l 1,3,-1
 922 1615 l 1,0,-1
922 0 m 1,4,-1
 772 0 l 1,5,-1
 772 1388 l 1,6,-1
 374 1388 l 1,7,-1
 374 0 l 1,8,-1
 224 0 l 1,9,-1
 224 1388 l 1,10,-1
 84 1388 l 1,11,-1
 84 1500 l 1,12,-1
 224 1500 l 1,13,-1
 224 1518 l 2,14,15
 224 1656 224 1656 273 1725.5 c 128,-1,16
 322 1795 322 1795 438 1795 c 0,17,18
 519 1795 519 1795 573 1777 c 1,19,-1
 573 1656 l 1,20,21
 528 1663 528 1663 472 1663 c 128,-1,22
 416 1663 416 1663 395 1633.5 c 128,-1,23
 374 1604 374 1604 374 1540 c 2,24,-1
 374 1500 l 1,25,-1
 922 1500 l 1,26,-1
 922 0 l 1,4,-1
EndSplineSet
EndChar

StartChar: uniFB02
Encoding: 64258 64258 416
Width: 1080
Flags: W
LayerCount: 2
UndoRedoHistory
Layer: 1
Undoes
EndUndoes
Redoes
EndRedoes
EndUndoRedoHistory
Fore
SplineSet
920 1744 m 1,0,-1
 920 0 l 1,1,-1
 770 0 l 1,2,-1
 770 1660 l 1,3,4
 638 1691 638 1691 568 1691 c 0,5,6
 455 1691 455 1691 411 1655 c 1,7,8
 374 1622 374 1622 374 1541 c 2,9,-1
 374 1442 l 1,10,-1
 573 1442 l 1,11,-1
 573 1329 l 1,12,-1
 374 1329 l 1,13,-1
 374 0 l 1,14,-1
 224 0 l 1,15,-1
 224 1329 l 1,16,-1
 84 1329 l 1,17,-1
 84 1442 l 1,18,-1
 224 1442 l 1,19,-1
 224 1512 l 2,20,21
 224 1696 224 1696 296 1753 c 128,-1,22
 368 1810 368 1810 512 1810 c 0,23,24
 513 1810 513 1810 514 1811 c 0,25,26
 658 1811 658 1811 920 1744 c 1,0,-1
EndSplineSet
EndChar

StartChar: uniFB03
Encoding: 65540 -1 417
Width: 1694
Flags: W
LayerCount: 2
UndoRedoHistory
Layer: 1
Undoes
EndUndoes
Redoes
EndRedoes
EndUndoRedoHistory
Fore
SplineSet
1382 1800 m 1,0,-1
 1532 1800 l 1,1,-1
 1532 1615 l 1,2,-1
 1382 1615 l 1,3,-1
 1382 1800 l 1,0,-1
984 1500 m 1,4,-1
 1532 1500 l 1,5,-1
 1532 0 l 1,6,-1
 1382 0 l 1,7,-1
 1382 1387 l 1,8,-1
 984 1387 l 1,9,-1
 984 0 l 1,10,-1
 834 0 l 1,11,-1
 834 1387 l 1,12,-1
 374 1387 l 1,13,-1
 374 0 l 1,14,-1
 224 0 l 1,15,-1
 224 1387 l 1,16,-1
 84 1387 l 1,17,-1
 84 1500 l 1,18,-1
 224 1500 l 1,19,-1
 224 1519 l 2,20,21
 224 1657 224 1657 273 1726.5 c 128,-1,22
 322 1796 322 1796 438 1796 c 0,23,24
 519 1796 519 1796 573 1778 c 1,25,-1
 573 1657 l 1,26,27
 528 1664 528 1664 472 1664 c 0,28,29
 416 1664 416 1664 395 1634.5 c 128,-1,30
 374 1605 374 1605 374 1541 c 2,31,-1
 374 1500 l 1,32,-1
 834 1500 l 1,33,-1
 834 1519 l 2,34,35
 834 1657 834 1657 883 1726.5 c 128,-1,36
 932 1796 932 1796 1048 1796 c 0,37,38
 1129 1796 1129 1796 1183 1778 c 1,39,-1
 1183 1657 l 1,40,41
 1138 1664 1138 1664 1082 1664 c 0,42,43
 1026 1664 1026 1664 1005 1634.5 c 128,-1,44
 984 1605 984 1605 984 1541 c 2,45,-1
 984 1500 l 1,4,-1
EndSplineSet
EndChar

StartChar: uniFB04
Encoding: 65541 -1 418
Width: 1635
Flags: W
LayerCount: 2
UndoRedoHistory
Layer: 1
Undoes
EndUndoes
Redoes
EndRedoes
EndUndoRedoHistory
Fore
SplineSet
779 1442 m 1,0,-1
 779 1512 l 1,1,2
 779 1515 779 1515 779 1517 c 0,3,4
 779 1697 779 1697 850 1753 c 0,5,6
 922 1810 922 1810 1066 1810 c 0,7,8
 1067 1810 1067 1810 1069 1811 c 0,9,10
 1213 1811 1213 1811 1475 1744 c 1,11,-1
 1475 0 l 1,12,-1
 1325 0 l 1,13,-1
 1325 1660 l 1,14,15
 1193 1691 1193 1691 1123 1691 c 0,16,17
 1010 1691 1010 1691 966 1655 c 1,18,19
 929 1622 929 1622 929 1541 c 2,20,-1
 929 1442 l 1,21,-1
 1128 1442 l 1,22,-1
 1128 1329 l 1,23,-1
 929 1329 l 1,24,-1
 929 0 l 1,25,-1
 779 0 l 1,26,-1
 779 1329 l 1,27,-1
 374 1329 l 1,28,-1
 374 0 l 1,29,-1
 224 0 l 1,30,-1
 224 1329 l 1,31,-1
 84 1329 l 1,32,-1
 84 1442 l 1,33,-1
 224 1442 l 1,34,-1
 224 1512 l 2,35,36
 224 1650 224 1650 273 1719.5 c 128,-1,37
 322 1789 322 1789 438 1789 c 0,38,39
 519 1789 519 1789 573 1771 c 1,40,-1
 573 1650 l 1,41,42
 528 1657 528 1657 472 1657 c 128,-1,43
 416 1657 416 1657 395 1627.5 c 128,-1,44
 374 1598 374 1598 374 1534 c 2,45,-1
 374 1442 l 1,46,-1
 779 1442 l 1,0,-1
EndSplineSet
EndChar

StartChar: uni0302
Encoding: 770 770 431
Width: 616
Flags: W
LayerCount: 2
UndoRedoHistory
Layer: 1
Undoes
EndUndoes
Redoes
EndRedoes
EndUndoRedoHistory
Fore
SplineSet
232 1638 m 1,0,-1
 398 1638 l 1,1,-1
 518 1384 l 1,2,-1
 401 1384 l 1,3,-1
 315 1559 l 1,4,-1
 229 1384 l 1,5,-1
 111 1384 l 1,6,-1
 232 1638 l 1,0,-1
EndSplineSet
EndChar
